<?xml version="1.0" standalone="no"?>
<!DOCTYPE svg PUBLIC "-//W3C//DTD SVG 20010904//EN"
 "http://www.w3.org/TR/2001/REC-SVG-20010904/DTD/svg10.dtd">
<svg version="1.0" xmlns="http://www.w3.org/2000/svg"
 width="1878.000000pt" height="1920.000000pt" viewBox="0 0 1878.000000 1920.000000"
 preserveAspectRatio="xMidYMid meet">

<g transform="translate(0.000000,1920.000000) scale(0.100000,-0.100000)"
fill="#000000" stroke="none">
<path d="M1085 17482 c-135 -49 -194 -80 -303 -157 -55 -39 -89 -169 -98 -377
-4 -84 2 -274 15 -518 11 -212 30 -626 41 -920 41 -1091 44 -1152 90 -1885 31
-483 39 -545 85 -634 29 -59 58 -81 103 -81 46 0 79 25 108 81 65 130 67 186
25 864 -16 270 -33 551 -37 626 l-7 136 59 6 c91 9 206 71 304 164 227 214
389 603 440 1058 14 126 14 498 0 635 -41 395 -162 685 -369 883 -107 102
-187 141 -296 145 -68 2 -92 -2 -160 -26z m243 -733 c106 -52 193 -168 239
-315 23 -76 26 -399 4 -509 -22 -112 -68 -244 -114 -325 -83 -146 -228 -260
-333 -260 l-41 0 -7 198 c-12 361 -26 674 -42 926 -8 143 -11 253 -6 258 18
18 149 58 193 58 31 0 65 -10 107 -31z"/>
<path d="M16910 17471 c-45 -47 -84 -142 -105 -253 -8 -46 -51 -598 -95 -1228
-44 -630 -98 -1387 -120 -1683 -22 -295 -40 -583 -40 -640 0 -105 18 -204 46
-260 41 -80 115 -124 169 -99 37 17 83 88 106 161 20 67 24 117 60 784 7 125
15 227 19 227 6 0 128 -140 191 -220 187 -238 367 -571 531 -985 71 -179 99
-230 138 -250 44 -23 76 -18 114 16 110 96 139 357 66 584 -76 237 -207 527
-348 773 -76 132 -87 162 -61 162 22 0 128 77 193 139 181 174 276 410 307
761 28 316 -19 692 -122 988 -112 318 -298 645 -450 787 -79 75 -126 103 -314
193 -204 98 -229 102 -285 43z m350 -831 c163 -83 358 -392 435 -687 33 -124
48 -285 36 -363 -20 -123 -137 -282 -249 -337 -54 -26 -64 -28 -182 -27 -102
1 -140 6 -205 26 l-80 24 0 74 c1 77 84 1325 91 1347 3 12 59 -9 154 -57z"/>
<path d="M15247 17267 c-64 -65 -87 -196 -87 -508 0 -223 -8 -319 -90 -1059
-78 -703 -89 -826 -97 -1070 -9 -322 17 -533 82 -667 58 -119 169 -201 351
-262 177 -59 604 -130 701 -115 93 14 143 78 164 213 25 164 -26 307 -125 352
-27 12 -64 19 -111 19 -65 0 -441 61 -596 96 -108 25 -113 31 -117 164 -4 115
5 271 35 609 l17 194 105 -7 c58 -3 207 -11 331 -17 124 -5 272 -13 330 -18
60 -4 120 -3 140 2 84 22 130 123 130 284 0 141 -44 238 -125 274 -44 19 -59
21 -639 48 -109 6 -200 11 -201 13 -2 2 5 89 15 193 10 105 26 291 36 415 9
124 19 227 21 229 9 11 168 30 255 30 193 2 333 -42 555 -173 97 -57 131 -57
187 -1 57 56 80 132 81 255 0 95 -3 110 -28 162 -67 136 -279 256 -557 314
-138 29 -282 31 -438 8 l-105 -15 -26 24 c-39 36 -65 47 -115 47 -38 0 -51 -5
-79 -33z"/>
<path d="M3162 17198 c-76 -96 -293 -830 -547 -1853 -46 -187 -91 -374 -101
-415 -13 -60 -24 -83 -54 -116 -73 -80 -90 -144 -71 -260 11 -65 10 -82 -24
-259 -54 -286 -95 -540 -101 -635 -23 -313 191 -485 303 -243 24 51 109 458
168 798 13 81 27 151 31 156 10 17 110 57 305 124 102 35 211 75 242 89 31 13
59 22 61 18 2 -4 16 -70 31 -147 37 -195 118 -512 166 -651 45 -132 76 -197
114 -243 83 -98 206 45 222 257 7 99 -12 207 -82 472 -31 116 -74 317 -99 465
-88 507 -197 1177 -276 1688 -90 583 -107 652 -175 724 -43 45 -91 58 -113 31z
m23 -1428 c14 -96 39 -264 55 -373 17 -109 30 -207 30 -217 0 -15 -26 -27
-127 -61 -71 -23 -149 -52 -175 -66 -27 -13 -48 -19 -48 -14 0 5 33 148 74
318 41 169 91 380 112 467 27 114 40 154 45 140 5 -10 20 -98 34 -194z"/>
<path d="M13445 17191 c-72 -43 -130 -145 -145 -253 -5 -40 -19 -264 -30 -498
-31 -637 -48 -902 -80 -1260 -53 -586 -61 -714 -50 -763 21 -97 57 -153 114
-178 23 -10 53 -30 66 -45 33 -35 120 -94 195 -131 103 -52 189 -74 320 -80
195 -9 333 23 460 108 242 162 438 537 495 949 18 122 15 394 -4 520 -48 312
-183 620 -398 903 -88 116 -257 281 -368 359 -52 37 -156 120 -230 184 -240
209 -275 228 -345 185z m250 -717 c302 -236 450 -383 569 -565 212 -327 245
-746 86 -1087 -77 -164 -175 -271 -283 -309 -72 -25 -286 -25 -372 1 -64 19
-137 61 -172 98 l-21 23 23 375 c13 206 38 602 54 880 38 620 40 643 55 632 6
-5 34 -26 61 -48z"/>
<path d="M5040 17073 c-25 -2 -145 -15 -267 -28 -245 -27 -364 -30 -544 -14
-108 10 -122 9 -156 -8 -151 -74 -161 -412 -14 -487 67 -35 189 -49 382 -44
l186 6 7 -107 c4 -58 22 -266 41 -461 43 -444 52 -558 65 -795 6 -104 17 -271
25 -370 9 -99 14 -239 13 -310 -3 -141 6 -185 49 -243 52 -70 127 -91 189 -53
58 36 94 123 114 276 9 64 7 129 -9 320 -11 132 -27 350 -36 485 -9 135 -29
391 -45 570 -45 498 -61 722 -55 729 4 3 149 8 323 11 360 6 361 7 412 86 60
96 66 239 14 342 -52 100 -49 100 -371 99 -153 0 -298 -2 -323 -4z"/>
<path d="M7477 16971 c-38 -25 -73 -78 -103 -158 -56 -148 -59 -174 -59 -513
l0 -314 -40 -7 c-22 -4 -89 -15 -150 -24 -102 -16 -460 -101 -670 -160 -49
-13 -97 -25 -105 -25 -13 0 -15 64 -18 506 -2 466 -4 510 -21 548 -61 139
-240 139 -306 0 -16 -34 -16 -83 -6 -733 7 -444 7 -765 1 -886 -5 -104 -9
-264 -9 -355 -1 -140 2 -171 18 -206 47 -102 173 -131 259 -59 57 48 59 60 67
435 4 190 8 347 10 349 2 2 62 19 132 37 424 113 665 167 788 180 l65 7 0
-109 c0 -60 4 -170 10 -244 5 -74 14 -218 20 -319 13 -210 23 -243 91 -288 32
-21 54 -27 93 -27 74 0 121 31 154 103 l26 56 -18 230 c-10 127 -22 273 -27
325 -12 141 -10 1026 3 1240 18 292 17 300 -15 349 -30 44 -91 80 -137 81 -14
0 -38 -8 -53 -19z"/>
<path d="M11165 16971 c-50 -22 -109 -87 -125 -137 -10 -28 -11 -99 -7 -278 9
-392 -20 -1139 -58 -1541 -28 -281 -18 -341 61 -402 29 -21 50 -28 100 -31 63
-4 65 -4 102 34 44 45 76 127 92 240 5 39 14 231 20 425 11 379 38 880 47 889
3 3 7 1 9 -5 7 -18 219 -357 334 -535 189 -291 402 -589 584 -815 172 -214
241 -270 332 -269 120 2 164 73 193 314 19 148 74 1236 74 1455 0 304 -33 468
-109 534 -29 26 -43 31 -87 31 -73 0 -116 -25 -147 -86 -24 -47 -25 -54 -20
-189 11 -299 -5 -1121 -26 -1373 -8 -87 -5 -88 -108 43 -318 400 -634 890
-956 1477 -118 215 -194 270 -305 219z"/>
<path d="M8459 16915 c-59 -7 -142 -20 -185 -28 -61 -11 -91 -12 -130 -4 -43
9 -60 8 -97 -7 -56 -21 -104 -73 -113 -123 -4 -20 3 -433 15 -917 21 -868 22
-882 44 -925 31 -61 74 -83 153 -79 48 3 71 10 102 32 75 52 74 47 65 479 -4
210 -8 395 -8 411 0 27 4 31 50 43 178 48 241 54 471 47 251 -8 274 -4 327 55
78 87 48 221 -58 261 -16 6 -110 16 -207 21 -199 11 -370 1 -506 -30 -45 -10
-85 -15 -87 -11 -6 9 -8 401 -2 406 2 3 67 14 143 26 207 31 438 30 601 -5
132 -28 169 -25 225 14 31 22 68 94 68 131 0 59 -73 109 -227 153 -213 62
-414 78 -644 50z"/>
<path d="M9643 16921 c-77 -10 -127 -45 -155 -109 -41 -92 0 -205 89 -244 41
-18 57 -19 200 -12 l156 7 -6 -34 c-15 -80 -29 -661 -25 -972 4 -242 2 -340
-6 -343 -6 -2 -73 -8 -148 -13 -152 -11 -191 -23 -231 -70 -70 -84 -54 -208
36 -275 41 -30 148 -32 342 -6 122 17 227 23 440 26 154 3 297 9 317 15 44 11
93 50 113 90 24 46 19 135 -10 186 -45 75 -72 83 -300 83 l-195 0 1 438 c0
431 11 837 23 849 3 3 66 -1 139 -10 233 -30 278 -21 334 62 32 47 32 149 0
205 -34 61 -72 74 -284 103 -155 20 -239 25 -478 28 -159 2 -318 0 -352 -4z"/>
<path d="M8597 14255 c-4 -9 -18 -153 -32 -319 -73 -887 -114 -1161 -188
-1244 -26 -28 -49 -22 -100 27 -64 60 -96 113 -232 385 -71 143 -136 262 -144
264 -15 5 -13 -33 16 -253 8 -66 16 -175 17 -242 1 -102 -2 -125 -16 -139 -15
-16 -19 -16 -50 2 -47 28 -138 153 -268 370 -167 278 -307 484 -331 484 -17 0
-9 -50 26 -155 33 -99 84 -232 280 -740 96 -247 153 -412 161 -467 l7 -41 -53
6 c-140 17 -275 126 -417 340 -47 70 -89 127 -94 127 -11 0 -13 10 51 -250 59
-236 73 -363 46 -405 -9 -14 -24 -25 -34 -25 -40 0 -126 72 -312 259 -337 338
-561 621 -804 1014 -27 42 -50 77 -52 77 -3 0 51 -109 120 -242 420 -818 611
-1336 545 -1480 -31 -69 -122 -51 -282 54 -62 41 -82 50 -95 41 -27 -16 -25
-54 8 -190 44 -181 51 -230 39 -275 -18 -68 -48 -64 -261 33 -300 136 -585
323 -837 550 -192 174 -201 180 -188 127 8 -31 129 -231 326 -537 356 -554
498 -816 474 -876 -14 -37 -156 4 -269 77 -82 53 -190 142 -454 374 -361 316
-540 458 -548 434 -6 -17 34 -71 184 -250 356 -425 410 -491 493 -599 175
-232 227 -323 222 -393 -3 -51 -125 -17 -310 86 -65 36 -121 66 -125 66 -21 0
9 -49 132 -212 150 -201 205 -293 200 -336 -3 -26 -6 -27 -63 -30 -81 -4 -193
22 -294 69 -138 64 -259 154 -455 340 -61 56 -112 97 -114 91 -5 -15 34 -85
151 -272 333 -531 456 -778 427 -856 -13 -34 -30 -38 -107 -24 -175 30 -427
134 -957 398 -192 95 -358 172 -369 170 -43 -6 93 -143 663 -668 146 -134 355
-334 465 -444 192 -193 265 -279 265 -317 0 -43 -102 -26 -202 35 -61 36 -93
60 -328 242 -80 61 -176 130 -214 154 -193 117 -156 65 198 -285 299 -295 396
-401 396 -430 0 -37 -271 -27 -435 15 -240 62 -577 229 -900 446 -80 54 -149
96 -135 82 3 -3 124 -94 269 -203 797 -598 1230 -999 1258 -1168 10 -66 -56
-105 -222 -128 -131 -18 -311 -1 -534 52 -166 39 -180 38 -108 -9 31 -21 80
-49 107 -62 l50 -24 -28 -30 c-71 -76 -78 -111 -32 -150 37 -30 88 -46 154
-46 43 0 53 4 81 35 19 19 39 51 45 71 12 34 14 36 49 29 46 -9 47 -10 29 -37
-20 -31 -58 -134 -58 -158 0 -44 132 -14 245 56 26 16 57 35 70 43 20 13 32
12 116 -13 119 -35 232 -89 258 -122 62 -79 0 -148 -306 -339 l-48 -30 45 -3
c61 -4 206 35 390 103 206 76 257 88 355 83 276 -15 177 -139 -434 -543 -139
-92 -250 -169 -248 -172 3 -2 48 14 100 36 268 114 470 145 632 97 100 -30
175 -114 175 -194 0 -55 14 -35 43 61 56 183 133 292 226 317 59 16 81 2 81
-53 0 -61 -15 -105 -87 -265 -35 -79 -63 -150 -61 -159 2 -12 26 5 86 61 81
76 198 146 221 131 12 -7 37 72 52 165 6 36 11 145 11 243 l0 179 101 -99
c203 -198 391 -312 663 -402 122 -41 299 -81 354 -81 26 0 35 -8 61 -50 17
-28 33 -50 36 -50 4 0 -23 49 -57 100 -36 55 -100 183 -124 249 -96 266 -73
667 53 937 77 164 192 298 304 354 74 37 167 41 234 10 119 -53 216 -232 238
-435 13 -126 -34 -264 -168 -492 -94 -160 -111 -255 -68 -387 23 -70 84 -200
127 -268 14 -21 22 -43 19 -48 -4 -6 1 -10 10 -10 14 0 14 5 -5 36 -12 19 -20
37 -18 39 2 3 19 6 38 7 l34 3 -1 -68 -2 -67 60 -75 c32 -41 62 -75 66 -75 3
0 -2 10 -13 22 -19 21 -19 21 1 14 59 -22 128 -29 179 -17 59 13 125 63 154
115 l17 31 6 -90 c12 -162 58 -239 160 -269 l41 -12 -47 -32 c-27 -18 -44 -32
-38 -32 6 0 44 25 84 55 41 31 85 58 99 61 42 9 46 12 20 13 -20 1 -14 8 36
36 34 19 65 42 68 51 4 10 9 51 13 92 l6 75 22 -49 c25 -54 54 -96 55 -77 0 6
-4 15 -10 18 -19 12 -11 26 9 15 11 -5 22 -6 25 -2 3 5 0 9 -7 10 -50 4 -59
17 -81 105 -5 22 -4 27 6 21 7 -4 9 -3 5 1 -4 5 -14 10 -22 11 -12 2 -15 -11
-16 -59 -1 -34 -1 -67 0 -74 1 -6 -3 -14 -8 -18 -6 -3 -7 -13 -4 -21 3 -9 -13
-2 -41 17 -86 61 -187 50 -279 -31 -19 -16 -37 -26 -41 -22 -4 4 -6 2 -4 -3 2
-6 -1 -12 -6 -15 -5 -3 -10 2 -12 10 -1 8 -7 35 -13 60 -6 25 -11 73 -11 107
0 59 1 62 23 57 12 -3 84 -8 160 -11 142 -6 258 6 327 35 84 34 187 213 204
351 3 24 7 45 9 48 6 5 47 -61 47 -74 0 -6 9 -18 20 -28 12 -11 18 -25 15 -34
-3 -8 -3 -12 1 -8 15 15 62 -119 68 -194 3 -47 16 -65 16 -23 0 42 -27 139
-54 201 -23 50 -24 52 -6 81 38 63 152 104 356 129 l131 16 7 60 c3 33 6 75 6
93 0 39 -6 38 119 15 l95 -17 17 -79 c27 -123 30 -116 -61 -169 -44 -25 -87
-58 -97 -73 -9 -16 -36 -46 -60 -68 -43 -41 -46 -55 -11 -55 12 0 18 -7 18
-21 0 -11 7 -27 15 -35 17 -17 21 -109 5 -119 -5 -3 -17 -21 -26 -41 -9 -19
-36 -51 -60 -72 -25 -20 -68 -59 -97 -85 -28 -26 -97 -78 -152 -115 -55 -37
-101 -70 -103 -74 -2 -5 -8 -8 -13 -8 -6 0 -15 -5 -22 -10 -35 -29 -199 -150
-247 -182 l-55 -37 -6 67 -5 67 -2 -71 c-3 -126 -45 -222 -112 -257 -25 -13
-28 -17 -10 -12 118 32 173 25 228 -27 31 -30 33 -30 18 -6 -10 15 -35 35 -57
46 l-40 20 73 58 c40 32 111 93 158 134 47 42 113 99 147 127 34 28 75 64 90
80 15 16 46 42 68 58 22 17 49 38 60 48 11 10 33 25 48 34 36 18 121 82 125
94 2 5 9 9 15 9 6 0 18 6 26 14 9 8 35 17 59 21 37 6 42 5 42 -12 0 -11 -6
-25 -12 -33 -11 -12 -10 -12 4 -1 9 7 22 10 27 7 10 -6 85 46 185 128 l49 40
26 -34 c14 -19 40 -49 57 -67 17 -18 29 -35 26 -38 -3 -3 -1 -5 5 -5 6 0 20
-14 30 -30 19 -29 210 -230 220 -230 2 0 25 -14 49 -31 69 -47 199 -104 294
-129 71 -19 118 -23 280 -26 107 -1 187 -1 177 2 -9 3 -15 10 -12 15 4 5 -3 9
-15 9 -13 0 -19 4 -14 11 4 8 -4 9 -27 4 -19 -4 -30 -4 -26 1 4 4 -2 13 -14
19 -18 10 -9 13 61 19 232 19 588 115 808 217 24 11 62 27 85 36 85 34 317
155 537 280 163 93 452 285 646 429 128 94 284 221 284 231 0 6 4 9 -111 -83
-48 -38 -99 -78 -115 -89 -15 -11 -40 -31 -56 -43 -15 -13 -28 -21 -28 -17 0
3 -15 -8 -32 -24 -18 -17 -36 -31 -40 -31 -4 0 -16 -7 -25 -15 -10 -8 -41 -29
-70 -47 -81 -52 -198 -130 -203 -137 -3 -3 -11 -7 -19 -9 -8 -2 -31 -16 -50
-31 -20 -16 -54 -38 -76 -50 -80 -42 -156 -88 -175 -104 -11 -9 -20 -15 -20
-12 0 5 -40 -17 -145 -76 -76 -44 -318 -157 -445 -209 -30 -12 -68 -28 -85
-36 -43 -20 -177 -60 -355 -104 -358 -91 -624 -74 -824 51 -36 22 -66 45 -66
50 0 5 -8 12 -17 16 -26 9 -114 103 -108 114 4 5 0 6 -8 3 -8 -3 -23 6 -35 21
-11 14 -22 25 -25 23 -13 -10 -133 146 -157 205 -13 31 -26 55 -29 53 -3 -2
-6 6 -7 17 0 12 -6 61 -13 108 -50 344 189 847 610 1287 38 39 66 72 61 72
-18 0 -258 -257 -373 -400 -270 -338 -412 -658 -413 -938 l-1 -112 -17 37 c-9
21 -17 49 -17 64 -1 14 -6 30 -12 36 -6 6 -14 26 -19 44 -4 19 -18 70 -31 114
-12 44 -23 92 -24 106 -1 14 -5 31 -10 39 -4 7 -10 27 -11 44 -2 17 -7 38 -10
46 -10 25 -15 107 -19 300 -2 102 -4 191 -4 199 -1 7 -7 11 -16 7 -21 -8 -19
17 10 119 78 267 236 541 488 842 47 56 84 103 82 105 -7 6 -238 -12 -341 -26
-126 -19 -194 -42 -367 -127 -250 -124 -561 -211 -757 -212 -119 -1 -162 13
-282 94 -91 61 -698 678 -690 702 1 5 -1 6 -6 4 -4 -3 -32 10 -62 29 -29 18
-70 36 -89 40 -20 3 -49 10 -65 16 -26 11 -28 14 -23 52 3 23 10 57 15 77 16
62 -3 95 -98 171 -150 122 -373 349 -356 365 2 2 15 -1 29 -6 60 -23 41 26
-66 169 -39 52 -98 129 -131 170 -33 41 -64 81 -70 89 -6 8 27 -16 74 -54 181
-146 440 -291 440 -247 0 19 -72 118 -199 275 -155 193 -231 291 -227 295 2 1
50 -18 107 -42 117 -50 159 -63 159 -48 0 5 -68 68 -151 138 -199 170 -225
193 -216 194 4 0 51 -22 105 -49 53 -26 158 -76 232 -109 193 -87 227 -92 154
-21 -54 52 -96 123 -92 156 2 23 8 29 33 31 17 2 35 10 42 19 29 38 -60 208
-248 473 l-53 75 63 -55 c203 -179 312 -248 372 -236 69 14 139 80 139 132 0
27 -34 70 -69 88 -15 8 -85 33 -156 56 -263 86 -419 164 -524 264 -146 139
-160 292 -46 488 104 178 232 287 389 333 72 21 244 16 324 -9 108 -35 146
-95 287 -466 97 -253 149 -360 185 -377 63 -28 494 -83 513 -64 20 20 20 149
2 495 -9 182 -16 342 -14 356 3 15 24 -48 52 -155 170 -634 222 -809 238 -800
5 4 9 23 9 44 0 47 24 186 52 306 20 84 22 88 29 55 4 -19 12 -107 19 -195 6
-88 13 -172 17 -187 6 -31 23 -38 23 -10 0 46 137 489 175 567 l15 30 -5 -46
c-2 -25 -7 -147 -11 -270 -5 -170 -4 -230 5 -248 l13 -23 24 23 c47 44 328
639 383 812 15 43 25 50 17 10 -13 -61 -76 -586 -85 -708 -6 -73 -26 -205 -46
-299 -39 -186 -42 -216 -21 -216 18 0 49 40 164 210 102 152 157 220 178 220
11 0 14 -17 14 -78 0 -43 3 -81 6 -84 3 -3 34 4 69 15 53 17 66 18 79 8 9 -8
16 -21 16 -30 0 -16 -33 -88 -69 -150 -25 -42 -15 -65 31 -79 50 -16 184 -22
224 -11 46 13 160 121 244 233 35 47 66 84 67 82 2 -2 -10 -41 -26 -87 -42
-119 -53 -166 -46 -200 25 -112 281 -56 537 117 119 81 171 127 368 324 364
365 504 385 527 73 l6 -82 65 87 c36 48 114 136 174 195 59 60 108 111 108
114 0 8 -91 -2 -310 -33 -237 -34 -484 -39 -573 -11 -158 49 -168 166 -26 321
77 84 191 173 416 322 111 74 205 139 208 144 10 15 -10 13 -206 -29 -242 -52
-339 -64 -478 -59 -119 4 -187 23 -235 66 -36 32 -66 113 -66 178 0 162 106
335 460 752 38 46 70 87 70 92 0 33 -65 3 -375 -174 -539 -307 -724 -368 -751
-248 -3 15 -8 33 -10 41 -9 27 18 188 56 338 46 178 138 457 278 843 55 151
104 289 108 305 l7 30 -22 -20 c-32 -28 -164 -203 -408 -540 -382 -529 -498
-681 -592 -777 -30 -32 -61 -58 -68 -58 -52 0 4 623 91 1010 31 138 25 128
-149 -239 -234 -492 -358 -717 -421 -757 -26 -18 -27 -18 -55 14 -46 52 -54
96 -52 315 1 109 -2 195 -6 192 -5 -3 -52 -92 -104 -198 -106 -217 -164 -295
-208 -284 -32 8 -55 56 -70 144 -13 79 -15 401 -4 621 5 101 4 152 -3 152 -6
0 -38 -66 -72 -147 -115 -274 -182 -428 -212 -488 -49 -97 -118 -194 -149
-211 -28 -14 -31 -13 -53 9 -73 73 -115 315 -181 1039 -19 213 -39 397 -43
409 -8 20 -9 20 -15 4z m-114 -6250 c87 -104 86 -103 171 -210 134 -169 249
-267 344 -295 71 -20 280 -33 442 -27 178 7 261 22 335 61 26 14 51 23 55 21
5 -3 10 -1 12 4 5 14 138 82 148 76 5 -3 12 0 16 6 5 8 3 9 -6 4 -9 -5 -11 -4
-6 3 4 7 12 12 18 12 6 0 47 18 91 40 44 23 87 38 94 35 8 -2 12 -1 9 4 -8 12
83 54 117 54 15 0 23 4 16 7 -8 6 -8 9 0 14 6 4 16 4 23 0 7 -4 8 -3 4 4 -6
10 6 17 17 10 1 -1 12 4 25 11 13 7 42 14 65 17 23 3 47 10 54 16 7 6 24 8 38
6 14 -3 25 -2 25 2 0 4 27 8 60 9 35 0 60 -4 60 -10 0 -6 -4 -8 -9 -5 -4 3 -7
-6 -5 -19 1 -14 -2 -25 -7 -25 -6 0 -8 -4 -5 -9 8 -12 -4 -42 -13 -37 -4 3 -8
-7 -9 -22 -1 -15 -7 -29 -12 -30 -6 -2 -8 -8 -5 -12 8 -13 -27 -80 -37 -74 -5
3 -8 0 -7 -7 4 -20 -41 -119 -54 -119 -6 0 -7 -3 -4 -6 9 -10 -12 -46 -23 -39
-6 3 -7 0 -4 -8 3 -8 -1 -21 -8 -28 -7 -8 -14 -21 -16 -29 -2 -8 -10 -22 -18
-31 -8 -8 -14 -21 -14 -27 0 -6 -10 -23 -23 -39 -12 -15 -29 -41 -36 -57 -10
-24 -14 -27 -22 -15 -9 12 -10 12 -6 -1 6 -21 -21 -72 -34 -64 -6 3 -9 0 -7
-7 1 -8 -6 -28 -16 -46 -19 -30 -20 -31 -45 -16 -21 12 -23 12 -8 0 22 -18 22
-28 -3 -55 -12 -12 -18 -22 -14 -22 3 0 1 -7 -6 -15 -7 -8 -16 -13 -20 -10 -5
3 -12 0 -16 -6 -5 -8 -3 -9 6 -4 8 5 11 3 8 -6 -3 -8 -12 -13 -21 -13 -9 1
-13 -4 -10 -12 5 -15 -74 -111 -88 -107 -4 2 -6 -4 -3 -11 3 -8 -3 -19 -15
-25 -11 -6 -23 -20 -26 -31 -4 -11 -11 -18 -16 -15 -5 4 -9 1 -9 -4 0 -6 -8
-11 -17 -11 -14 0 -15 -2 -4 -9 11 -7 10 -10 -3 -18 -9 -5 -34 -30 -55 -56
-21 -25 -40 -45 -42 -43 -2 2 -13 -6 -24 -17 -11 -11 -13 -16 -5 -12 8 5 -2
-8 -24 -29 -22 -21 -45 -35 -53 -32 -8 3 -12 2 -9 -3 7 -11 -47 -71 -64 -71
-6 0 -9 -4 -6 -9 3 -5 -2 -15 -11 -22 -14 -12 -16 -12 -9 1 5 8 -5 0 -22 -17
-17 -18 -35 -33 -39 -33 -5 0 -14 -9 -21 -21 -7 -12 -16 -18 -19 -15 -3 3 -14
-5 -24 -17 -12 -15 -18 -17 -19 -8 0 12 -3 12 -17 -1 -10 -8 -38 -21 -63 -27
-236 -65 -316 -74 -360 -44 -45 30 -89 71 -83 77 4 3 1 6 -5 6 -15 0 -52 36
-52 51 0 5 -3 8 -7 6 -7 -4 -205 214 -228 251 -5 9 -18 25 -28 36 -41 47 -107
146 -152 231 -26 50 -51 95 -55 100 -4 6 -26 46 -49 90 -23 44 -46 87 -51 95
-5 8 -15 29 -23 45 -8 17 -46 93 -84 170 -85 169 -118 241 -164 355 -20 51
-17 245 5 288 9 18 22 32 29 32 30 0 107 -114 107 -158 0 -11 9 -22 19 -25 28
-7 69 74 77 152 l7 62 21 -23 c12 -12 47 -54 79 -93z m-1249 -262 c85 -91 151
-222 211 -420 6 -22 4 -23 -72 -25 l-78 -2 75 -3 76 -4 17 -50 c10 -27 34 -76
53 -109 l34 -59 -43 -86 c-24 -47 -46 -82 -51 -78 -4 4 -4 0 -1 -8 9 -25 -12
-69 -34 -69 -66 0 -190 -218 -275 -485 -16 -49 -33 -99 -38 -110 -15 -36 -38
-189 -38 -257 l0 -67 -38 17 c-21 10 -49 25 -63 35 -13 10 -18 15 -10 11 10
-5 12 -3 6 5 -5 9 -10 10 -18 2 -9 -9 -60 10 -77 30 -3 3 -13 8 -23 12 -10 4
-16 10 -13 15 2 4 -4 9 -16 9 -11 1 -32 10 -46 20 -23 15 -25 18 -9 21 15 3
17 9 12 30 -4 15 -13 31 -21 35 -8 4 -14 13 -14 19 0 6 -48 59 -106 118 -58
59 -123 131 -145 161 -45 59 -80 125 -71 134 6 6 45 -18 72 -45 37 -37 137
-80 185 -80 26 0 55 -5 67 -11 26 -14 34 -5 20 24 -6 12 -21 47 -32 77 -12 30
-27 69 -35 85 -70 153 -132 355 -108 355 3 0 29 -18 58 -40 78 -60 142 -82
190 -64 20 8 44 54 59 113 l11 46 54 -3 c100 -7 115 7 146 128 9 36 19 72 22
80 13 32 14 51 22 270 4 124 11 233 15 243 12 26 31 21 70 -20z m3383 -1525
c-3 -8 -6 -5 -6 6 -1 11 2 17 5 13 3 -3 4 -12 1 -19z m-6 -55 c-3 -2 -5 -27
-4 -55 0 -29 3 -102 4 -162 2 -60 6 -99 9 -85 11 45 17 -4 7 -51 l-10 -45 -14
45 c-21 67 -28 232 -13 320 9 53 15 69 20 55 4 -11 5 -21 1 -22z m-2408 -71
c48 -65 127 -229 127 -263 0 -30 -9 -35 -78 -44 -48 -6 -68 1 -54 18 11 14
-12 137 -33 176 -27 53 -31 161 -5 161 4 0 24 -22 43 -48z m175 -364 c66 -22
283 -69 293 -62 4 2 10 0 14 -6 4 -6 11 -8 16 -5 5 3 6 -1 3 -9 -3 -9 -11 -13
-17 -9 -6 3 -7 1 -3 -5 7 -12 -22 -61 -37 -62 -5 0 -5 5 -1 12 4 7 3 8 -4 4
-6 -4 -8 -14 -5 -23 5 -13 2 -15 -11 -10 -10 4 -15 3 -11 -3 7 -12 -21 -27
-76 -39 -47 -11 -159 4 -159 21 0 5 -5 6 -11 2 -15 -9 -68 44 -90 91 -21 45
-24 81 -9 120 9 22 13 24 31 15 11 -7 46 -21 77 -32z m2223 -145 c13 -16 12
-17 -3 -4 -10 7 -18 15 -18 17 0 8 8 3 21 -13z m-311 3 c0 -2 -7 -7 -16 -10
-8 -3 -12 -2 -9 4 6 10 25 14 25 6z m-13 -58 c-3 -8 -6 -5 -6 6 -1 11 2 17 5
13 3 -3 4 -12 1 -19z"/>
<path d="M10646 7833 c-6 -14 -5 -15 5 -6 7 7 10 15 7 18 -3 3 -9 -2 -12 -12z"/>
<path d="M10205 7710 c-3 -6 1 -7 9 -4 18 7 21 14 7 14 -6 0 -13 -4 -16 -10z"/>
<path d="M8738 7593 c12 -2 32 -2 45 0 12 2 2 4 -23 4 -25 0 -35 -2 -22 -4z"/>
<path d="M9945 6700 c3 -5 8 -10 11 -10 2 0 4 5 4 10 0 6 -5 10 -11 10 -5 0
-7 -4 -4 -10z"/>
<path d="M6845 6070 c-3 -6 1 -7 9 -4 18 7 21 14 7 14 -6 0 -13 -4 -16 -10z"/>
<path d="M8290 5660 c6 -11 13 -20 16 -20 2 0 0 9 -6 20 -6 11 -13 20 -16 20
-2 0 0 -9 6 -20z"/>
<path d="M8325 5581 c-6 -11 13 -26 22 -17 4 3 1 6 -6 6 -7 0 -9 5 -6 10 3 6
4 10 1 10 -3 0 -7 -4 -11 -9z"/>
<path d="M8577 5569 c7 -7 15 -10 18 -7 3 3 -2 9 -12 12 -14 6 -15 5 -6 -5z"/>
<path d="M9089 10379 c-111 -16 -210 -68 -277 -144 -55 -63 -53 -73 6 -28 133
102 288 115 464 39 43 -19 78 -31 78 -27 0 9 -49 82 -74 109 -43 49 -105 65
-197 51z"/>
<path d="M12173 10031 c-66 -84 -159 -161 -233 -194 -39 -18 -63 -20 -227 -18
-149 2 -188 -1 -213 -14 -33 -17 -33 -19 -30 -118 1 -37 -4 -115 -11 -173 -15
-128 -6 -159 41 -152 17 3 30 1 30 -3 0 -3 -28 -31 -62 -62 -74 -64 -108 -114
-85 -123 21 -8 105 30 212 93 57 35 82 46 69 31 -11 -13 -44 -49 -72 -82 -113
-126 -103 -150 41 -104 71 23 101 28 109 20 17 -17 -6 -46 -150 -190 -177
-178 -290 -332 -243 -332 16 0 124 77 221 157 178 148 212 174 218 169 23 -24
-398 -465 -595 -623 -133 -107 -166 -125 -329 -183 -75 -27 -145 -57 -155 -66
-18 -16 -18 -19 -3 -35 21 -23 80 -45 168 -64 l69 -14 125 120 c268 257 584
497 890 674 45 26 82 50 82 54 0 3 -7 15 -15 25 -22 29 -18 55 14 111 51 90
239 250 405 345 45 26 81 53 81 60 0 9 -40 27 -105 49 -123 42 -190 79 -224
124 -40 53 -41 73 -8 106 36 36 76 48 227 67 309 37 375 52 375 80 0 18 -14
25 -165 79 -72 26 -157 61 -190 78 -55 29 -166 128 -190 169 -9 15 -19 7 -72
-61z"/>
<path d="M10831 9951 c-12 -16 -21 -34 -21 -40 0 -7 28 -25 63 -40 107 -49
216 -164 297 -314 23 -42 43 -77 45 -77 1 0 -2 21 -6 48 -51 273 -292 544
-378 423z"/>
<path d="M8636 9904 c9 -25 62 -94 93 -119 13 -11 49 -35 80 -52 70 -41 60
-41 -59 -2 -117 37 -169 67 -239 133 -49 47 -52 48 -35 17 27 -47 121 -143
173 -175 24 -16 73 -41 109 -56 35 -15 59 -30 53 -34 -6 -4 -50 -7 -98 -7 -74
0 -94 4 -137 26 l-51 27 25 -28 c33 -35 112 -72 173 -80 39 -5 47 -10 42 -23
-4 -9 -10 -37 -15 -63 -36 -185 132 -364 321 -344 151 15 257 128 267 282 4
62 1 79 -23 133 -48 106 -129 162 -266 181 -179 25 -311 80 -379 157 -22 26
-38 38 -34 27z m329 -390 c1 -16 4 -35 9 -42 13 -21 -14 -72 -40 -78 -89 -23
-126 91 -39 121 17 5 34 16 38 23 14 21 32 8 32 -24z m-15 -148 c0 -11 -19
-15 -25 -6 -3 5 1 10 9 10 9 0 16 -2 16 -4z"/>
<path d="M10337 9340 c-90 -23 -168 -86 -209 -169 -31 -63 -32 -176 -2 -242
47 -102 139 -168 249 -176 140 -12 261 67 306 200 20 57 18 56 104 33 64 -17
118 -20 150 -6 18 8 18 9 -6 9 -50 2 -126 31 -183 72 -31 23 -55 43 -53 45 2
2 39 -1 81 -8 59 -9 96 -9 154 -1 71 11 228 60 219 69 -2 3 -33 -3 -68 -12
-79 -20 -175 -14 -304 19 l-90 24 110 4 c89 4 118 9 153 28 24 12 42 25 39 28
-3 2 -16 -1 -29 -8 -14 -9 -56 -13 -108 -13 -93 1 -192 25 -309 74 -76 33
-149 43 -204 30z m218 -250 c0 -8 10 -24 23 -37 29 -29 28 -58 -3 -88 -37 -38
-87 -28 -105 21 -10 25 5 74 22 74 5 0 13 12 18 26 11 27 45 31 45 4z m-85
-150 c0 -5 -4 -10 -10 -10 -5 0 -10 5 -10 10 0 6 5 10 10 10 6 0 10 -4 10 -10z"/>
<path d="M9653 8960 c-41 -10 -119 -59 -162 -104 -41 -42 -35 -44 74 -16 129
33 152 27 263 -68 29 -25 55 -42 59 -39 10 11 -46 113 -89 162 -34 38 -95 79
-110 74 -2 -1 -17 -4 -35 -9z"/>
<path d="M9387 8656 c-21 -8 -47 -22 -58 -32 -36 -32 -17 -96 43 -143 35 -28
145 -80 186 -87 38 -7 37 -19 -10 -96 -65 -105 -164 -156 -285 -145 -187 18
-280 136 -293 372 -6 109 -6 110 -14 51 -30 -208 60 -390 215 -433 67 -19 71
-25 95 -153 24 -130 72 -186 177 -205 88 -17 145 22 202 135 48 95 52 97 136
75 87 -22 204 -17 269 12 90 40 183 162 205 268 3 19 -2 13 -15 -19 -28 -66
-85 -150 -123 -182 -63 -53 -113 -69 -217 -68 -149 2 -226 40 -274 136 -22 45
-26 65 -26 144 l0 91 88 -4 c192 -11 274 59 186 157 -92 102 -360 171 -487
126z m212 -511 c7 -16 23 -44 36 -61 22 -28 23 -33 9 -45 -8 -7 -32 -42 -54
-78 -46 -79 -78 -111 -122 -121 -28 -7 -29 -8 -8 -9 44 -2 88 36 141 118 49
79 74 100 92 82 5 -5 1 -17 -12 -30 -11 -11 -34 -47 -50 -79 -16 -32 -46 -73
-67 -91 -35 -31 -41 -33 -99 -29 -75 5 -133 38 -158 91 -9 19 -23 69 -31 111
-8 41 -20 85 -26 96 -7 12 -9 25 -5 28 14 14 41 -18 53 -64 39 -144 45 -159
77 -191 18 -18 39 -33 47 -33 7 1 1 8 -14 16 -35 19 -61 70 -82 160 -8 39 -18
78 -22 87 -4 12 7 18 48 26 90 20 178 86 211 159 11 24 13 20 18 -43 3 -39 12
-83 18 -100z"/>
<path d="M13878 8625 c-377 -52 -772 -185 -1218 -413 -176 -90 -206 -112 -55
-41 159 74 322 140 470 189 72 24 139 49 150 56 11 7 39 18 63 25 23 7 42 15
42 19 0 4 21 13 48 20 26 7 52 16 57 19 6 3 19 7 30 8 11 1 53 13 94 28 98 33
295 67 401 68 103 2 204 -12 175 -24 -18 -7 -17 -8 5 -8 14 -1 36 -7 50 -14
14 -7 70 -31 125 -52 55 -22 92 -41 82 -43 -10 -2 -24 0 -30 5 -7 4 -5 0 6 -9
10 -9 25 -14 32 -11 8 3 15 0 15 -6 0 -6 3 -10 8 -10 21 4 32 -3 32 -20 0 -10
7 -22 16 -25 9 -4 13 -2 8 5 -4 7 -3 10 2 7 5 -2 24 -11 42 -18 17 -8 32 -20
32 -26 0 -15 36 -24 70 -17 16 3 31 0 35 -6 5 -8 -2 -10 -22 -5 -25 7 -27 6
-14 -9 18 -22 49 -22 53 0 3 16 5 16 23 -2 11 -11 34 -21 50 -22 47 -4 55 -6
50 -11 -3 -3 4 -11 15 -19 11 -8 20 -19 20 -25 0 -5 9 -23 21 -39 30 -42 68
-158 80 -247 16 -111 4 -241 -36 -394 -23 -91 -31 -137 -24 -149 5 -10 6 -25
2 -35 -5 -13 -3 -15 8 -9 9 6 8 2 -3 -11 -26 -29 -39 -72 -26 -80 7 -4 8 -3 4
4 -4 7 -3 12 2 12 16 0 91 183 118 288 37 142 44 326 15 444 -68 286 -250 482
-526 567 -159 50 -394 63 -597 36z"/>
<path d="M10688 8183 c7 -3 16 -2 19 1 4 3 -2 6 -13 5 -11 0 -14 -3 -6 -6z"/>
<path d="M10748 8173 c7 -3 16 -2 19 1 4 3 -2 6 -13 5 -11 0 -14 -3 -6 -6z"/>
<path d="M15965 7341 c-57 -25 -69 -43 -60 -88 8 -45 95 -138 138 -148 56 -14
161 44 193 107 15 29 15 32 -14 67 -63 78 -167 103 -257 62z"/>
<path d="M14535 7296 c-11 -12 -18 -27 -17 -34 2 -8 -1 -11 -7 -7 -6 3 -11 2
-11 -3 0 -16 13 -22 27 -11 9 9 13 8 13 0 0 -6 -4 -11 -10 -11 -5 0 -7 -8 -4
-17 5 -17 5 -17 -6 0 -15 24 -29 21 -36 -8 -3 -14 -10 -25 -14 -25 -4 0 -11
-8 -14 -17 -8 -21 -23 -48 -53 -89 -12 -17 -21 -33 -20 -35 1 -2 0 -3 -2 -2
-2 1 -17 -17 -34 -40 -121 -169 -348 -391 -615 -601 -62 -49 -111 -91 -108
-93 2 -2 16 7 31 21 15 14 32 23 38 19 6 -3 7 -1 3 5 -4 7 -3 12 2 12 5 0 19
9 32 20 13 11 29 20 37 20 8 0 11 5 8 10 -3 6 1 10 9 10 9 0 33 15 53 33 21
18 67 54 103 79 36 25 80 59 98 76 18 16 32 28 32 26 0 -3 6 1 14 8 8 7 12 16
9 21 -2 4 3 7 11 7 8 0 21 9 29 21 11 15 16 17 20 7 4 -9 6 -7 6 5 1 9 8 17
17 17 8 0 20 14 26 32 10 28 12 30 19 12 4 -10 8 -14 8 -7 1 14 21 35 106 113
66 60 135 143 135 161 0 6 6 9 13 6 8 -3 22 15 37 49 14 30 31 54 39 54 11 0
11 4 -1 23 -11 16 -12 26 -4 39 8 13 5 24 -13 49 -21 28 -22 31 -5 25 10 -4
15 -4 11 0 -4 4 -2 13 5 21 18 22 5 21 -17 -1z m-695 -830 c0 -2 -8 -10 -17
-17 -16 -13 -17 -12 -4 4 13 16 21 21 21 13z"/>
<path d="M15617 7283 c-103 -109 -161 -483 -83 -535 21 -15 106 -8 160 12 70
27 164 88 215 141 51 52 53 82 10 169 -54 107 -198 240 -261 240 -8 0 -26 -12
-41 -27z"/>
<path d="M16210 7079 c-30 -16 -70 -45 -89 -64 -29 -28 -32 -36 -22 -49 32
-39 210 -70 311 -55 36 5 98 12 138 16 39 3 72 9 72 13 0 5 -21 12 -47 16 -39
6 -58 17 -103 59 -91 85 -108 95 -159 95 -32 0 -63 -9 -101 -31z"/>
<path d="M16075 6856 c-15 -23 -14 -28 19 -93 20 -37 44 -78 55 -90 39 -46
114 -55 216 -26 33 9 76 16 95 15 19 -1 51 1 70 4 l35 6 -47 18 c-26 10 -69
37 -95 60 -76 67 -222 129 -305 130 -18 0 -33 -8 -43 -24z"/>
<path d="M15885 6750 c-73 -24 -135 -72 -135 -105 0 -29 37 -66 105 -106 80
-46 176 -38 229 20 25 27 17 66 -29 141 -46 76 -68 82 -170 50z"/>
<path d="M3983 6699 c-36 -11 -46 -32 -45 -98 4 -159 127 -425 207 -445 33 -8
72 13 118 63 63 70 137 239 137 314 0 38 -47 82 -128 119 -111 50 -217 68
-289 47z"/>
<path d="M5012 6646 c-31 -8 -61 -9 -103 -2 -95 16 -254 -13 -320 -57 -66 -44
-50 -75 72 -132 75 -35 83 -37 119 -26 48 14 127 75 160 124 14 20 34 38 45
41 11 3 34 19 50 36 16 16 27 29 24 29 -2 -1 -23 -7 -47 -13z"/>
<path d="M4477 6369 c-75 -78 -105 -159 -72 -193 22 -22 118 -31 182 -16 65
14 116 60 134 120 11 37 10 42 -10 64 -29 31 -123 76 -157 76 -20 0 -41 -14
-77 -51z"/>
<path d="M14000 6390 c-8 -5 -12 -12 -9 -15 4 -3 12 1 19 10 14 17 11 19 -10
5z"/>
<path d="M1760 6183 c-57 -22 -130 -108 -130 -154 0 -18 9 -35 26 -48 31 -25
114 -51 160 -51 68 0 133 90 134 183 0 45 -2 49 -35 63 -34 14 -125 18 -155 7z"/>
<path d="M13429 6173 c-13 -16 -12 -17 4 -4 9 7 17 15 17 17 0 8 -8 3 -21 -13z"/>
<path d="M13389 6143 c-13 -16 -12 -17 4 -4 9 7 17 15 17 17 0 8 -8 3 -21 -13z"/>
<path d="M2375 6103 c-34 -13 -54 -13 -136 -2 -53 6 -112 9 -132 5 -61 -11
-127 -108 -143 -207 -5 -31 -3 -40 11 -45 52 -20 233 64 316 147 32 32 76 70
99 85 58 38 54 43 -15 17z"/>
<path d="M13189 6013 c-13 -16 -12 -17 4 -4 9 7 17 15 17 17 0 8 -8 3 -21 -13z"/>
<path d="M13907 5940 c-27 -10 -55 -24 -63 -30 -55 -47 64 -210 153 -210 42 0
100 29 140 70 46 48 47 65 5 112 -68 75 -144 94 -235 58z"/>
<path d="M1419 5891 c-21 -17 -24 -27 -22 -88 2 -120 81 -323 157 -407 48 -52
82 -50 147 11 59 55 133 196 150 285 10 49 9 61 -5 83 -62 95 -355 174 -427
116z"/>
<path d="M13532 5862 c-61 -85 -120 -327 -106 -436 8 -60 39 -96 82 -96 88 0
269 93 341 175 39 44 40 79 4 151 -58 119 -175 231 -252 241 -37 5 -41 3 -69
-35z"/>
<path d="M2487 5854 c-3 -4 -77 -7 -164 -8 -135 -2 -167 -5 -217 -24 -122 -45
-128 -85 -21 -146 99 -55 145 -58 210 -14 28 19 68 58 90 86 22 28 47 51 55
51 22 1 89 60 69 61 -9 0 -19 -3 -22 -6z"/>
<path d="M14185 5698 c-38 -14 -126 -71 -150 -98 -18 -20 -18 -21 1 -40 26
-27 162 -60 244 -60 37 0 89 7 116 15 27 8 74 15 104 15 60 0 54 14 -11 25
-22 4 -48 18 -65 37 -16 17 -55 50 -88 74 -61 46 -92 53 -151 32z"/>
<path d="M8045 5640 c-13 -5 -14 -9 -5 -9 8 0 24 4 35 9 13 5 14 9 5 9 -8 0
-24 -4 -35 -9z"/>
<path d="M1984 5620 c-27 -11 -90 -84 -115 -133 -11 -21 -19 -53 -17 -70 4
-46 35 -58 139 -55 77 3 90 6 123 32 21 16 47 48 57 72 27 60 14 84 -71 128
-71 38 -82 40 -116 26z"/>
<path d="M7998 5623 c7 -3 16 -2 19 1 4 3 -2 6 -13 5 -11 0 -14 -3 -6 -6z"/>
<path d="M7935 5610 c-13 -5 -14 -9 -5 -9 8 0 24 4 35 9 13 5 14 9 5 9 -8 0
-24 -4 -35 -9z"/>
<path d="M7689 5585 c14 -30 42 -64 35 -43 -4 11 1 18 13 21 15 3 15 4 -2 3
-11 -1 -28 8 -38 19 l-18 20 10 -20z"/>
<path d="M7878 5593 c7 -3 16 -2 19 1 4 3 -2 6 -13 5 -11 0 -14 -3 -6 -6z"/>
<path d="M7838 5583 c7 -3 16 -2 19 1 4 3 -2 6 -13 5 -11 0 -14 -3 -6 -6z"/>
<path d="M7788 5573 c7 -3 16 -2 19 1 4 3 -2 6 -13 5 -11 0 -14 -3 -6 -6z"/>
<path d="M14000 5449 c-9 -17 -5 -33 25 -92 20 -40 50 -85 67 -101 31 -28 33
-28 122 -24 51 3 103 11 116 18 13 7 51 12 87 11 65 -2 85 13 33 24 -16 4 -51
24 -77 46 -99 83 -227 139 -314 139 -39 0 -51 -4 -59 -21z"/>
<path d="M8440 5405 c30 -30 57 -55 59 -55 3 0 -19 25 -49 55 -30 30 -57 55
-59 55 -3 0 19 -25 49 -55z"/>
<path d="M6726 5375 c-3 -8 -1 -15 4 -15 6 0 10 7 10 15 0 8 -2 15 -4 15 -2 0
-6 -7 -10 -15z"/>
<path d="M7172 5335 c0 -16 2 -22 5 -12 2 9 2 23 0 30 -3 6 -5 -1 -5 -18z"/>
<path d="M13801 5340 c-76 -28 -121 -64 -121 -99 0 -60 144 -148 226 -138 52
5 112 43 120 74 7 25 -25 102 -62 150 -21 28 -31 33 -67 33 -23 -1 -66 -9 -96
-20z"/>
<path d="M3432 5329 c-41 -12 -113 -82 -131 -127 -10 -24 -11 -39 -3 -56 14
-32 91 -67 160 -73 52 -5 61 -3 88 21 42 34 76 115 72 169 -2 34 -8 44 -30 55
-38 18 -116 23 -156 11z"/>
<path d="M8535 5320 c10 -11 20 -20 23 -20 3 0 -3 9 -13 20 -10 11 -20 20 -23
20 -3 0 3 -9 13 -20z"/>
<path d="M9108 5333 c7 -3 16 -2 19 1 4 3 -2 6 -13 5 -11 0 -14 -3 -6 -6z"/>
<path d="M10281 5290 c0 -25 45 -154 51 -144 3 5 -7 43 -23 84 -15 41 -28 68
-28 60z"/>
<path d="M10758 5283 c6 -2 18 -2 25 0 6 3 1 5 -13 5 -14 0 -19 -2 -12 -5z"/>
<path d="M9260 5266 c0 -2 8 -10 18 -17 15 -13 16 -12 3 4 -13 16 -21 21 -21
13z"/>
<path d="M10680 5245 c13 -14 26 -25 28 -25 3 0 -5 11 -18 25 -13 14 -26 25
-28 25 -3 0 5 -11 18 -25z"/>
<path d="M4030 5243 c-29 -13 -45 -13 -96 -4 -34 6 -89 11 -122 11 -50 0 -66
-4 -91 -26 -38 -31 -91 -139 -94 -191 -2 -33 1 -38 22 -41 37 -6 157 37 224
80 33 22 84 63 113 91 28 29 65 62 80 74 34 26 16 29 -36 6z"/>
<path d="M17348 5226 c-63 -23 -88 -44 -88 -75 0 -62 104 -171 163 -171 61 0
157 63 178 118 7 19 4 31 -21 62 -56 71 -147 96 -232 66z"/>
<path d="M8783 5203 c9 -2 23 -2 30 0 6 3 -1 5 -18 5 -16 0 -22 -2 -12 -5z"/>
<path d="M16961 5140 c-65 -89 -121 -336 -101 -442 14 -70 29 -83 93 -82 65 2
142 32 228 90 89 59 129 105 129 148 0 74 -115 238 -209 298 -66 41 -104 38
-140 -12z"/>
<path d="M10780 5136 c0 -2 8 -10 18 -17 15 -13 16 -12 3 4 -13 16 -21 21 -21
13z"/>
<path d="M11848 5123 c7 -3 16 -2 19 1 4 3 -2 6 -13 5 -11 0 -14 -3 -6 -6z"/>
<path d="M11798 5113 c7 -3 16 -2 19 1 4 3 -2 6 -13 5 -11 0 -14 -3 -6 -6z"/>
<path d="M11708 5103 c6 -2 18 -2 25 0 6 3 1 5 -13 5 -14 0 -19 -2 -12 -5z"/>
<path d="M10830 5065 c0 -5 5 -17 10 -25 5 -8 10 -10 10 -5 0 6 -5 17 -10 25
-5 8 -10 11 -10 5z"/>
<path d="M3117 5050 c-49 -15 -57 -28 -57 -95 0 -167 139 -455 220 -455 95 0
240 227 240 376 0 35 -5 47 -32 70 -45 38 -148 83 -227 100 -74 15 -103 16
-144 4z"/>
<path d="M10400 5020 c6 -11 13 -20 16 -20 2 0 0 9 -6 20 -6 11 -13 20 -16 20
-2 0 0 -9 6 -20z"/>
<path d="M3877 4990 c-120 -21 -207 -65 -207 -104 0 -34 147 -116 209 -116 31
0 52 9 98 45 33 24 72 62 88 85 15 22 35 40 44 40 10 0 30 14 47 31 l29 31
-35 -8 c-41 -9 -52 -9 -150 -2 -41 4 -97 3 -123 -2z"/>
<path d="M17584 4965 c-27 -13 -69 -43 -94 -65 l-45 -40 23 -20 c53 -45 245
-73 332 -50 25 7 77 15 115 19 73 6 76 14 11 25 -27 5 -54 22 -90 56 -113 106
-161 120 -252 75z"/>
<path d="M10478 4905 c11 -16 40 -48 63 -70 37 -34 35 -31 -11 20 -72 80 -77
85 -52 50z"/>
<path d="M10363 4875 c0 -27 2 -38 4 -22 2 15 2 37 0 50 -2 12 -4 0 -4 -28z"/>
<path d="M10825 4864 c-9 -15 -12 -23 -6 -20 11 7 35 46 28 46 -3 0 -12 -12
-22 -26z"/>
<path d="M10789 4813 c-13 -16 -12 -17 4 -4 16 13 21 21 13 21 -2 0 -10 -8
-17 -17z"/>
<path d="M8130 4816 c0 -12 29 -76 34 -76 3 0 -2 17 -11 38 -16 38 -23 50 -23
38z"/>
<path d="M10130 4816 c0 -11 30 -66 36 -66 2 0 -3 15 -12 33 -19 36 -24 44
-24 33z"/>
<path d="M10617 4779 c7 -7 15 -10 18 -7 3 3 -2 9 -12 12 -14 6 -15 5 -6 -5z"/>
<path d="M3602 4722 c-56 -58 -97 -139 -88 -175 7 -31 49 -47 124 -47 79 0
128 18 167 61 70 78 61 123 -34 173 -93 48 -112 47 -169 -12z"/>
<path d="M10678 4763 c6 -2 18 -2 25 0 6 3 1 5 -13 5 -14 0 -19 -2 -12 -5z"/>
<path d="M17454 4750 c-37 -15 -36 -38 8 -122 52 -100 78 -118 168 -118 36 1
88 9 118 19 34 12 69 16 101 13 55 -5 79 13 31 23 -17 4 -53 26 -81 50 -67 57
-171 111 -250 130 -73 17 -67 16 -95 5z"/>
<path d="M9461 4734 c0 -11 3 -14 6 -6 3 7 2 16 -1 19 -3 4 -6 -2 -5 -13z"/>
<path d="M10185 4720 c10 -11 20 -20 23 -20 3 0 -3 9 -13 20 -10 11 -20 20
-23 20 -3 0 3 -9 13 -20z"/>
<path d="M10319 4713 c-13 -16 -12 -17 4 -4 16 13 21 21 13 21 -2 0 -10 -8
-17 -17z"/>
<path d="M17216 4615 c-112 -46 -133 -92 -68 -152 71 -66 153 -94 217 -73 46
15 95 57 95 81 0 23 -53 130 -75 153 -24 24 -100 20 -169 -9z"/>
<path d="M9461 4604 c0 -11 3 -14 6 -6 3 7 2 16 -1 19 -3 4 -6 -2 -5 -13z"/>
<path d="M9446 4565 c-9 -26 -7 -32 5 -12 6 10 9 21 6 23 -2 3 -7 -2 -11 -11z"/>
<path d="M8286 4505 c15 -27 40 -69 56 -93 17 -24 27 -50 24 -58 -3 -8 -2 -13
3 -10 5 3 14 -1 21 -9 10 -12 8 -13 -9 -10 -12 2 -21 -1 -21 -8 0 -7 -16 -27
-35 -46 -19 -19 -35 -38 -35 -43 0 -5 11 -20 24 -33 13 -13 22 -26 20 -29 -2
-4 2 -2 8 4 7 5 20 10 30 10 10 0 21 6 24 14 3 8 15 14 27 14 12 0 38 4 57 9
30 8 42 4 89 -24 30 -18 59 -33 65 -33 6 0 -18 17 -53 38 -85 49 -186 149
-247 244 -69 107 -79 120 -48 63z m209 -265 c3 -6 -1 -7 -9 -4 -18 7 -21 14
-7 14 6 0 13 -4 16 -10z"/>
<path d="M1853 4486 c-46 -21 -68 -69 -54 -116 6 -20 19 -44 28 -52 16 -14
418 -187 470 -202 43 -13 145 -87 226 -164 92 -89 112 -102 157 -102 41 0 47
20 21 80 -49 114 -16 119 145 23 63 -38 79 -43 132 -43 34 0 63 4 67 9 10 17
-56 81 -110 106 -69 33 -137 83 -129 96 6 10 47 7 160 -12 61 -11 174 2 174
20 0 4 -23 24 -50 44 -42 31 -66 41 -133 52 -93 17 -133 31 -141 50 -7 19 33
51 87 69 81 27 129 55 125 74 -9 48 -125 56 -225 16 l-65 -26 -61 17 c-39 11
-123 21 -222 26 -88 4 -194 15 -235 23 -111 24 -326 31 -367 12z"/>
<path d="M9363 4450 c-23 -22 -37 -40 -30 -39 7 0 27 18 46 40 42 50 37 49
-16 -1z"/>
<path d="M12473 4430 c-17 -4 -52 -19 -78 -35 -71 -41 -101 -47 -182 -34 -92
15 -119 8 -140 -36 -15 -31 -15 -36 1 -60 21 -32 44 -41 175 -66 138 -26 204
-46 233 -68 13 -10 39 -21 59 -24 36 -5 37 -5 30 21 -6 23 -15 31 -61 52 -8 4
-13 11 -10 16 8 14 58 8 101 -11 24 -11 48 -15 65 -11 l27 7 -23 25 c-19 19
-33 24 -72 24 -35 0 -50 4 -55 16 -11 29 11 35 65 18 43 -14 57 -15 80 -5 l27
13 -24 19 c-17 14 -39 19 -82 19 -67 0 -86 15 -31 25 34 6 82 39 82 56 0 21
-45 18 -99 -6 -71 -32 -100 -25 -47 12 54 36 36 52 -41 33z"/>
<path d="M9285 4400 c-3 -6 1 -7 9 -4 18 7 21 14 7 14 -6 0 -13 -4 -16 -10z"/>
<path d="M10899 4338 c-18 -24 -39 -48 -47 -55 -21 -17 -36 -4 -19 15 24 28
31 62 13 62 -21 0 -106 -85 -128 -127 -20 -39 -62 -66 -146 -94 -88 -29 -115
-78 -73 -130 26 -32 66 -29 221 16 86 25 145 37 190 37 36 0 79 5 97 11 l31
10 -23 19 c-13 10 -39 18 -59 18 -20 0 -36 4 -36 10 0 15 31 27 90 34 30 4 63
15 73 24 17 15 16 16 -10 27 -23 10 -34 9 -65 -6 -49 -25 -78 -25 -78 0 0 21
19 31 59 31 28 0 81 33 81 51 0 16 -65 10 -105 -11 -57 -29 -77 -25 -39 8 55
47 69 92 30 92 -17 0 -34 -13 -57 -42z"/>
<path d="M13615 4265 c-50 -49 -25 -89 114 -180 121 -78 171 -119 195 -156 10
-16 31 -36 47 -45 29 -15 29 -15 29 17 0 22 -9 40 -27 58 l-28 26 23 3 c17 3
37 -10 72 -42 34 -32 58 -46 77 -46 21 0 24 3 15 12 -7 7 -12 19 -12 28 0 10
-20 24 -50 37 -31 13 -50 28 -50 37 0 29 30 30 58 3 33 -31 71 -46 95 -38 17
6 17 8 -2 32 -11 14 -37 31 -59 37 -22 7 -46 19 -53 28 -12 15 -9 16 29 9 28
-4 54 -2 73 5 28 12 29 14 13 31 -13 15 -31 19 -84 19 -80 0 -97 11 -38 25 24
6 42 15 41 20 0 6 -21 16 -45 23 -34 10 -57 11 -114 1 -69 -11 -74 -10 -125
15 -30 14 -70 35 -89 46 -46 27 -76 25 -105 -5z"/>
<path d="M11775 3963 c-11 -3 -31 -15 -45 -28 -35 -32 -70 -48 -203 -94 -178
-61 -205 -81 -191 -136 13 -53 67 -67 145 -39 66 23 136 22 186 -4 52 -27 119
-37 153 -24 25 10 24 11 -17 29 -24 10 -41 23 -39 28 4 13 19 11 81 -7 35 -11
58 -13 75 -6 l25 9 -28 25 c-20 17 -40 24 -70 24 -39 1 -41 2 -23 15 11 8 37
15 57 15 26 0 47 8 66 24 l28 24 -28 11 c-23 9 -35 7 -67 -9 -45 -23 -80 -26
-80 -7 0 22 23 37 57 37 24 0 41 8 59 27 25 27 25 27 4 35 -15 5 -37 -1 -77
-22 -31 -17 -64 -30 -74 -30 -29 0 -22 26 10 40 21 8 30 20 33 41 5 29 1 31
-37 22z"/>
<path d="M4721 3714 c-68 -35 -75 -130 -13 -172 26 -18 127 -62 383 -167 144
-59 194 -91 299 -190 97 -92 117 -105 162 -105 45 0 48 14 18 85 -11 26 -20
56 -20 67 0 18 5 20 35 15 19 -3 73 -29 119 -56 76 -46 89 -51 144 -51 34 0
63 4 67 9 10 17 -56 81 -110 106 -80 38 -141 85 -124 96 14 9 47 6 155 -12 61
-11 174 2 174 20 0 4 -22 24 -49 45 -42 31 -63 40 -133 51 -99 16 -138 32
-138 56 0 24 28 41 117 74 39 15 79 35 87 44 15 16 14 19 -4 36 -36 33 -133
32 -213 0 l-68 -27 -62 17 c-35 10 -131 20 -222 25 -88 5 -196 16 -240 24 -44
9 -136 19 -205 22 -106 4 -130 3 -159 -12z"/>
<path d="M12691 3654 c-48 -61 -6 -113 104 -129 70 -10 113 -35 162 -93 42
-50 125 -101 131 -82 2 6 -8 26 -23 45 -23 31 -24 35 -8 35 11 0 39 -20 63
-45 27 -27 53 -45 67 -45 41 0 23 46 -35 85 l-37 25 32 0 c17 0 43 -6 58 -14
15 -8 34 -13 41 -10 50 15 48 13 29 34 -12 13 -31 20 -54 20 -51 0 -81 10 -81
26 0 22 28 28 70 14 31 -10 44 -10 68 1 27 12 28 14 14 26 -10 7 -45 13 -79
13 -71 0 -93 6 -93 26 0 9 11 14 33 14 23 0 41 8 56 24 l23 24 -45 7 c-25 4
-51 4 -57 0 -19 -12 -151 -6 -241 10 -130 23 -173 20 -198 -11z"/>
<path d="M13917 3403 c-20 -23 -22 -71 -2 -97 20 -26 116 -70 108 -49 -5 12
-1 14 17 8 15 -5 20 -4 16 4 -5 8 19 11 80 11 59 0 85 3 78 10 -5 5 -52 35
-104 66 -108 64 -164 78 -193 47z m93 -133 c0 -5 -2 -10 -4 -10 -3 0 -8 5 -11
10 -3 6 -1 10 4 10 6 0 11 -4 11 -10z"/>
<path d="M14055 3247 c-11 -12 -16 -19 -10 -14 16 13 28 8 16 -7 -8 -9 -8 -16
-2 -20 5 -4 12 -3 14 1 4 7 7 64 3 62 0 0 -10 -10 -21 -22z"/>
<path d="M14250 3260 c8 -5 20 -10 25 -10 6 0 3 5 -5 10 -8 5 -19 10 -25 10
-5 0 -3 -5 5 -10z"/>
<path d="M14266 3231 c-4 -5 3 -7 14 -4 23 6 26 13 6 13 -8 0 -17 -4 -20 -9z"/>
<path d="M14330 3231 c8 -6 18 -8 22 -5 4 3 18 -1 30 -7 21 -11 22 -11 9 4 -7
10 -28 17 -45 17 -23 0 -27 -3 -16 -9z"/>
<path d="M14245 3200 c2 -8 4 -22 4 -30 1 -13 2 -13 11 0 6 9 5 17 -3 22 -8 5
-6 8 6 8 15 0 17 -5 12 -29 -3 -17 -2 -32 5 -36 5 -3 8 -12 4 -18 -3 -7 1 -4
10 7 8 10 19 15 25 12 5 -4 13 -1 17 5 4 7 3 9 -3 6 -13 -8 -47 28 -39 42 3 5
0 12 -6 14 -29 12 19 5 54 -7 20 -7 42 -10 48 -6 20 12 -20 23 -86 24 -50 1
-61 -2 -59 -14z m55 -50 c0 -5 -4 -10 -10 -10 -5 0 -10 5 -10 10 0 6 5 10 10
10 6 0 10 -4 10 -10z"/>
<path d="M14083 3192 c-8 -5 -8 -12 3 -27 13 -18 14 -18 12 8 -1 15 -3 27 -3
27 0 0 -5 -4 -12 -8z"/>
<path d="M14117 3183 c-16 -60 -16 -71 3 -93 11 -13 18 -31 15 -40 -6 -18 40
-68 52 -57 3 4 2 7 -4 7 -6 0 -9 9 -6 19 3 11 0 28 -7 38 -10 17 -11 16 -5 -3
4 -14 1 -21 -10 -21 -10 0 -14 6 -10 15 3 8 -2 26 -11 40 -12 18 -14 36 -9 68
6 43 1 61 -8 27z"/>
<path d="M14141 3164 c0 -11 3 -14 6 -6 3 7 2 16 -1 19 -3 4 -6 -2 -5 -13z"/>
<path d="M14130 3125 c0 -8 4 -15 10 -15 5 0 7 7 4 15 -4 8 -8 15 -10 15 -2 0
-4 -7 -4 -15z"/>
<path d="M14255 3120 c-4 -6 -14 -8 -23 -6 -10 3 -24 1 -32 -5 -12 -8 -11 -9
5 -5 16 5 20 1 21 -19 2 -23 1 -23 -22 -8 -14 9 -27 13 -30 10 -3 -3 4 -8 15
-12 11 -3 23 -15 26 -25 3 -10 15 -22 26 -25 10 -4 17 -11 13 -16 -3 -5 -10
-7 -15 -4 -5 3 -6 -1 -3 -10 5 -12 9 -13 20 -4 16 13 19 -2 4 -17 -13 -13 14
-39 30 -29 13 8 13 25 -1 25 -5 0 -7 -4 -4 -10 3 -5 2 -10 -4 -10 -15 0 -23
18 -11 25 15 9 6 42 -17 63 -14 11 -19 23 -14 31 9 15 42 -2 96 -48 16 -14 23
-18 16 -8 -9 11 -10 17 -2 17 6 0 16 -9 23 -20 7 -11 20 -20 28 -19 10 0 11 2
2 6 -6 2 -9 10 -5 16 3 7 3 9 -1 5 -9 -8 -36 14 -30 24 2 3 -10 11 -28 17 -37
13 -80 50 -72 62 3 5 3 9 0 9 -3 0 -8 -5 -11 -10z m26 -37 l24 -27 -28 17
c-15 10 -32 15 -37 12 -6 -3 -10 -2 -10 4 0 5 6 12 13 14 6 3 12 6 13 6 0 1
11 -11 25 -26z m69 -37 c0 -3 -4 -8 -10 -11 -5 -3 -10 -1 -10 4 0 6 5 11 10
11 6 0 10 -2 10 -4z"/>
<path d="M14345 3120 c3 -5 12 -7 19 -4 9 3 13 -1 13 -12 -1 -11 8 -20 25 -24
22 -7 26 -5 20 9 -5 14 -4 15 14 1 18 -14 18 -14 5 3 -10 12 -17 15 -25 7 -5
-5 -17 -10 -25 -10 -12 1 -11 3 4 12 19 11 19 11 0 19 -29 11 -57 11 -50 -1z"/>
<path d="M7555 3095 c-52 -19 -75 -48 -75 -96 0 -53 37 -89 130 -127 438 -179
467 -195 619 -337 78 -72 110 -91 148 -83 23 5 22 46 -3 110 -34 88 8 86 156
-7 58 -36 72 -40 127 -40 34 0 65 4 69 7 12 13 -43 74 -83 93 -65 30 -153 89
-153 104 0 11 14 12 78 5 106 -12 229 -11 242 2 8 8 -2 22 -39 51 -43 35 -62
42 -126 52 -99 14 -145 34 -145 61 0 21 26 36 143 81 97 37 96 70 -4 91 -49
10 -60 8 -129 -17 -89 -33 -97 -33 -175 -11 -38 11 -107 18 -190 20 -71 2
-186 13 -255 24 -181 30 -286 35 -335 17z"/>
<path d="M2985 2809 c-176 -55 -210 -56 -570 -24 -93 9 -189 16 -211 17 -51 1
-99 -26 -115 -64 -37 -90 61 -164 346 -258 72 -24 175 -67 230 -96 64 -32 131
-59 180 -70 76 -17 82 -20 118 -66 51 -65 106 -100 167 -106 45 -4 50 -2 50
15 0 22 -22 55 -87 125 -27 30 -43 57 -43 73 0 22 4 25 38 25 21 0 72 -11 113
-26 73 -25 108 -26 187 -7 l23 6 -31 32 c-32 33 -42 38 -179 91 -119 46 -104
63 54 64 68 0 101 5 135 21 l44 20 -49 32 c-49 32 -50 32 -175 32 -170 0 -186
13 -100 85 56 46 60 62 28 84 -29 21 -78 19 -153 -5z"/>
<path d="M16610 2643 c0 -5 5 -15 10 -23 8 -12 10 -11 10 8 0 12 -4 22 -10 22
-5 0 -10 -3 -10 -7z"/>
<path d="M16561 2611 c-11 -11 -22 -17 -24 -15 -3 3 -8 1 -11 -4 -7 -12 20
-36 33 -28 5 3 7 14 4 24 -3 12 3 22 19 29 13 7 17 12 11 12 -7 1 -22 -8 -32
-18z m-6 -39 c-3 -3 -11 0 -18 7 -9 10 -8 11 6 5 10 -3 15 -9 12 -12z"/>
<path d="M16580 2600 c-13 -8 -12 -10 3 -10 9 0 17 5 17 10 0 12 -1 12 -20 0z"/>
<path d="M16753 2591 c-23 -11 -59 -31 -80 -45 -52 -36 -63 -34 -57 12 5 32 4
35 -8 21 -18 -22 -78 -35 -88 -20 -12 20 -79 -48 -111 -112 -21 -42 -48 -73
-99 -114 -39 -32 -73 -66 -76 -76 -7 -23 39 -115 81 -162 38 -41 54 -42 128
-15 81 31 183 50 267 50 65 1 84 6 140 35 71 36 69 40 -24 49 -33 4 -62 9 -64
11 -14 14 17 37 88 66 82 34 130 75 114 100 -8 14 -72 6 -138 -16 -27 -9 -50
-14 -54 -11 -8 8 25 42 81 83 35 26 47 41 45 57 -5 35 -42 31 -114 -13 -74
-45 -84 -48 -84 -26 0 8 20 28 45 45 46 32 75 65 75 87 0 18 -18 16 -67 -6z"/>
<path d="M14935 2301 c-74 -27 -124 -55 -178 -100 -35 -29 -72 -47 -133 -66
-107 -33 -112 -41 -90 -156 9 -48 23 -90 33 -101 14 -13 45 -20 128 -27 76 -7
139 -19 202 -40 64 -22 110 -31 154 -31 94 0 100 11 24 49 -102 50 -85 71 58
71 79 0 127 17 127 45 0 17 -51 33 -120 38 -30 2 -57 8 -60 13 -2 5 34 23 80
39 92 33 111 54 63 73 -19 8 -41 9 -68 2 -22 -5 -57 -10 -78 -10 -58 0 -41 22
31 41 67 17 92 33 92 57 0 13 -12 14 -82 9 -46 -4 -93 -9 -105 -13 -33 -9 -29
10 12 67 19 27 35 51 35 54 0 11 -78 2 -125 -14z"/>
<path d="M5765 2130 c-33 -11 -96 -27 -140 -36 -87 -18 -111 -17 -465 15 -170
15 -200 16 -232 4 -71 -28 -84 -116 -25 -171 37 -34 156 -88 311 -141 80 -28
184 -71 231 -96 50 -28 119 -55 174 -69 86 -22 91 -24 130 -74 47 -59 121
-102 176 -102 59 0 47 34 -47 138 -29 33 -48 63 -48 78 0 21 4 24 40 24 22 0
73 -11 113 -25 72 -26 132 -27 192 -5 18 7 17 10 -15 39 -38 35 -47 39 -169
85 -130 48 -118 65 44 66 69 0 101 5 135 21 43 20 44 21 25 35 -64 49 -96 57
-195 50 -103 -7 -153 2 -158 26 -2 9 19 34 48 58 56 47 63 71 25 88 -36 17
-80 14 -150 -8z"/>
<path d="M12775 2129 c-50 -16 -76 -19 -155 -13 -87 5 -97 4 -113 -14 -22 -24
-47 -112 -47 -168 0 -48 14 -64 82 -93 72 -30 155 -87 219 -148 44 -42 72 -59
119 -74 34 -10 66 -19 72 -19 6 0 -10 24 -36 54 -73 86 -61 100 51 56 78 -32
152 -38 160 -13 6 17 -36 51 -99 81 -32 15 -58 31 -58 36 0 5 41 6 95 2 81 -5
96 -4 101 9 10 26 -25 53 -85 66 -63 13 -91 25 -91 40 0 7 27 8 78 4 61 -5 81
-3 97 9 19 14 18 15 -25 34 -25 11 -71 25 -102 32 -32 6 -60 15 -63 20 -3 5
22 25 55 46 33 20 57 40 55 44 -9 15 -104 30 -178 29 -43 0 -96 -8 -132 -20z"/>
<path d="M11500 1933 c-37 -10 -103 -16 -203 -17 -174 -1 -169 1 -206 -116
-32 -101 -27 -111 72 -158 61 -29 97 -53 136 -95 57 -60 177 -130 245 -143
l39 -7 -36 66 c-39 69 -37 84 10 66 63 -24 156 -40 167 -29 16 16 -30 55 -88
77 -53 19 -72 43 -35 43 12 0 49 -7 80 -16 66 -19 112 -13 107 14 -2 10 -34
33 -76 53 -109 54 -109 58 -3 57 109 -1 128 9 90 48 -20 20 -41 27 -100 35
-41 5 -84 14 -96 19 -25 10 -32 40 -10 40 8 0 40 11 72 24 l59 24 -39 11 c-67
19 -127 21 -185 4z"/>
<path d="M16228 1621 c-42 -27 -69 -55 -106 -111 -49 -76 -111 -145 -189 -211
-33 -28 -43 -43 -43 -67 0 -39 58 -150 91 -175 l27 -19 84 31 c69 25 99 31
169 31 93 0 169 17 238 52 45 24 65 48 39 48 -32 0 -119 32 -116 42 2 6 34 28
71 48 77 42 102 63 93 79 -11 17 -56 13 -105 -9 -47 -22 -85 -26 -79 -9 2 6
35 27 73 48 71 39 98 72 77 93 -9 9 -32 5 -97 -17 -46 -16 -86 -27 -89 -24 -4
3 24 36 61 73 62 61 66 69 50 80 -26 20 -66 7 -129 -40 -63 -49 -104 -68 -113
-54 -3 5 8 37 25 70 17 34 30 65 28 70 -2 4 -29 -9 -60 -29z"/>
<path d="M14032 1599 c-24 -4 -60 -21 -80 -37 -74 -57 -157 -102 -236 -128
-124 -40 -140 -68 -117 -208 12 -72 34 -86 133 -86 66 0 91 -5 147 -30 80 -35
195 -55 260 -45 25 4 49 9 53 11 4 3 -16 24 -44 47 -28 23 -51 46 -50 52 1 5
39 15 84 21 46 7 91 15 101 19 48 20 -9 49 -90 47 -37 -2 -64 2 -68 9 -11 17
12 27 88 34 50 5 75 13 90 28 19 19 19 20 2 34 -11 7 -45 13 -79 13 -65 0
-106 8 -106 19 0 4 24 15 53 24 66 21 120 54 114 70 -9 29 -56 32 -145 9 -77
-20 -122 -22 -122 -4 0 3 26 29 58 58 56 53 57 53 27 52 -16 0 -49 -4 -73 -9z"/>
<path d="M8408 1450 c-117 -35 -228 -49 -311 -39 -34 4 -156 15 -271 25 -199
16 -211 16 -241 0 -34 -18 -55 -52 -55 -87 0 -78 104 -141 384 -233 60 -20
145 -56 190 -80 81 -44 198 -86 241 -86 16 0 35 -16 61 -50 21 -28 55 -61 76
-75 58 -39 148 -53 148 -23 0 19 -30 64 -65 98 -119 114 -83 161 77 104 65
-24 80 -26 137 -18 35 5 66 14 68 21 7 20 -77 73 -157 99 -99 34 -135 53 -122
66 6 6 64 14 129 18 122 7 178 21 171 42 -3 7 -28 25 -57 40 -49 26 -57 27
-150 21 -165 -10 -190 12 -101 87 28 23 50 48 50 56 0 17 -51 44 -82 43 -13 0
-66 -13 -120 -29z"/>
</g>
</svg>
