<svg width="497.81" height="82.813" viewBox="0 0 497.81 82.813" xmlns="http://www.w3.org/2000/svg"><g id="svgGroup" stroke-linecap="round" fill-rule="evenodd" font-size="9pt" stroke="#000" stroke-width="0.25mm" fill="#000" style="stroke:#000;stroke-width:0.25mm;fill:#000"><path d="M 290.437 79.492 L 288.337 4.346 Q 288.298 3.336 288.445 2.635 A 3.634 3.634 0 0 1 288.532 2.295 A 2 2 0 0 1 289.322 1.235 A 2.709 2.709 0 0 1 289.582 1.074 Q 290.388 0.635 291.926 0.464 Q 293.394 0.301 295.818 0.293 A 76.176 76.176 0 0 1 296.052 0.293 A 62.576 62.576 0 0 1 297.401 0.307 Q 298.063 0.321 298.639 0.35 A 30.21 30.21 0 0 1 299.299 0.391 A 14.335 14.335 0 0 1 300.162 0.478 Q 300.568 0.532 300.913 0.608 A 5.951 5.951 0 0 1 301.472 0.757 A 4.568 4.568 0 0 1 302.043 0.982 Q 302.476 1.19 302.766 1.465 Q 303.23 1.904 303.376 2.637 L 321.589 52.197 L 321.98 52.197 L 319.685 4.346 A 10.1 10.1 0 0 1 319.678 4.059 Q 319.667 2.986 319.904 2.295 A 2.02 2.02 0 0 1 320.637 1.315 A 2.819 2.819 0 0 1 321.028 1.074 Q 321.846 0.653 323.335 0.479 A 14.346 14.346 0 0 1 323.469 0.464 A 24.162 24.162 0 0 1 324.558 0.374 Q 325.822 0.296 327.53 0.293 A 77.272 77.272 0 0 1 327.644 0.293 A 80.367 80.367 0 0 1 329.335 0.31 Q 331.074 0.346 332.282 0.464 Q 333.898 0.621 334.792 1.005 A 3.548 3.548 0 0 1 334.944 1.074 A 2.849 2.849 0 0 1 335.535 1.452 A 2.015 2.015 0 0 1 336.14 2.295 A 3.524 3.524 0 0 1 336.302 2.898 Q 336.413 3.501 336.386 4.301 A 9.914 9.914 0 0 1 336.384 4.346 L 334.236 78.027 A 13.846 13.846 0 0 1 334.158 79.027 Q 334.103 79.495 334.017 79.911 A 8.464 8.464 0 0 1 333.991 80.029 A 3.217 3.217 0 0 1 333.21 81.543 A 2.792 2.792 0 0 1 332.544 82.065 Q 332.091 82.325 331.477 82.495 A 7.335 7.335 0 0 1 330.598 82.676 Q 330.137 82.744 329.593 82.778 A 18.673 18.673 0 0 1 328.425 82.813 A 23.176 23.176 0 0 1 327.23 82.784 Q 326.665 82.754 326.183 82.695 A 9.548 9.548 0 0 1 325.398 82.568 A 2.735 2.735 0 0 1 324.529 82.236 A 2.33 2.33 0 0 1 323.689 81.348 L 323.591 81.445 L 303.816 30.908 L 303.278 30.908 L 302.888 79.492 A 12.465 12.465 0 0 1 302.843 80.149 Q 302.778 80.821 302.644 81.274 Q 302.448 81.934 301.862 82.275 Q 301.305 82.6 300.241 82.705 A 8.805 8.805 0 0 1 300.129 82.715 Q 299.034 82.808 297.25 82.812 A 72.245 72.245 0 0 1 297.077 82.813 A 84.346 84.346 0 0 1 296.035 82.806 Q 294.557 82.788 293.586 82.715 A 9.392 9.392 0 0 1 292.854 82.633 Q 292.084 82.513 291.609 82.275 A 1.942 1.942 0 0 1 291.103 81.919 A 1.616 1.616 0 0 1 290.705 81.274 A 4.136 4.136 0 0 1 290.574 80.766 Q 290.469 80.23 290.437 79.495 A 9.551 9.551 0 0 1 290.437 79.492 Z M 156.355 79.492 L 154.255 4.346 Q 154.206 3.076 154.499 2.295 Q 154.785 1.532 155.7 1.095 A 3.695 3.695 0 0 1 155.744 1.074 Q 156.654 0.654 158.299 0.48 A 17.548 17.548 0 0 1 158.454 0.464 Q 160.212 0.293 163.142 0.293 A 80.367 80.367 0 0 1 164.833 0.31 Q 166.572 0.346 167.78 0.464 Q 169.538 0.635 170.49 1.074 A 3.086 3.086 0 0 1 171.093 1.434 Q 171.542 1.783 171.747 2.264 A 1.98 1.98 0 0 1 171.76 2.295 A 3.346 3.346 0 0 1 171.938 2.906 Q 172.057 3.507 172.03 4.304 A 9.219 9.219 0 0 1 172.028 4.346 L 171.003 39.893 L 185.359 39.893 L 184.382 4.346 Q 184.333 3.076 184.626 2.295 Q 184.912 1.532 185.827 1.095 A 3.695 3.695 0 0 1 185.871 1.074 Q 186.781 0.654 188.426 0.48 A 17.548 17.548 0 0 1 188.581 0.464 Q 190.339 0.293 193.269 0.293 A 80.367 80.367 0 0 1 194.96 0.31 Q 196.699 0.346 197.907 0.464 Q 199.665 0.635 200.617 1.074 A 3.086 3.086 0 0 1 201.22 1.434 Q 201.669 1.783 201.874 2.264 A 1.98 1.98 0 0 1 201.887 2.295 A 3.346 3.346 0 0 1 202.065 2.906 Q 202.184 3.507 202.157 4.304 A 9.219 9.219 0 0 1 202.155 4.346 L 200.007 79.492 A 10.882 10.882 0 0 1 199.96 80.149 Q 199.89 80.821 199.738 81.274 A 1.658 1.658 0 0 1 198.999 82.185 A 2.228 2.228 0 0 1 198.835 82.275 A 3.126 3.126 0 0 1 198.318 82.473 Q 197.803 82.625 197.077 82.694 A 11.261 11.261 0 0 1 196.833 82.715 Q 195.515 82.813 193.269 82.813 A 88.45 88.45 0 0 1 192.202 82.806 Q 190.687 82.788 189.68 82.715 A 10 10 0 0 1 188.941 82.635 Q 188.134 82.516 187.653 82.275 A 1.942 1.942 0 0 1 187.148 81.919 A 1.616 1.616 0 0 1 186.75 81.274 A 4.136 4.136 0 0 1 186.619 80.766 Q 186.514 80.23 186.482 79.495 A 9.551 9.551 0 0 1 186.482 79.492 L 185.652 49.17 L 170.759 49.17 L 169.88 79.492 A 9.405 9.405 0 0 1 169.859 80.149 Q 169.811 80.821 169.66 81.274 A 1.622 1.622 0 0 1 168.971 82.142 A 2.247 2.247 0 0 1 168.733 82.275 Q 168.056 82.602 166.821 82.706 A 11.758 11.758 0 0 1 166.706 82.715 Q 165.388 82.813 163.142 82.813 A 88.45 88.45 0 0 1 162.075 82.806 Q 160.56 82.788 159.553 82.715 A 10 10 0 0 1 158.814 82.635 Q 158.007 82.516 157.527 82.275 A 1.942 1.942 0 0 1 157.021 81.919 A 1.616 1.616 0 0 1 156.623 81.274 A 4.136 4.136 0 0 1 156.492 80.766 Q 156.387 80.23 156.355 79.495 A 9.551 9.551 0 0 1 156.355 79.492 Z M 454.353 79.492 L 452.253 4.346 Q 452.204 3.076 452.497 2.295 Q 452.783 1.532 453.698 1.095 A 3.695 3.695 0 0 1 453.742 1.074 Q 454.652 0.654 456.297 0.48 A 17.548 17.548 0 0 1 456.452 0.464 Q 458.21 0.293 461.14 0.293 L 462.361 0.293 L 473.493 0.293 A 49.286 49.286 0 0 1 479.432 0.637 A 40.565 40.565 0 0 1 482.844 1.196 A 27.083 27.083 0 0 1 486.878 2.356 A 20.808 20.808 0 0 1 490.339 4.028 A 14.575 14.575 0 0 1 494.3 7.504 A 13.751 13.751 0 0 1 495.295 8.96 Q 496.942 11.735 496.942 15.573 A 18.517 18.517 0 0 1 496.931 16.211 L 496.296 39.404 A 15.957 15.957 0 0 1 495.797 42.926 A 17.73 17.73 0 0 1 495.735 43.164 Q 495.222 45.068 494.148 46.802 A 14.402 14.402 0 0 1 492.217 49.254 A 17.059 17.059 0 0 1 491.389 50.049 A 14.687 14.687 0 0 1 489.155 51.689 A 19.107 19.107 0 0 1 487.263 52.686 L 496.394 75.879 A 107.727 107.727 0 0 1 496.716 76.717 Q 497.169 77.911 497.444 78.735 A 8.979 8.979 0 0 1 497.652 79.453 Q 497.81 80.103 497.81 80.615 Q 497.81 81.136 497.656 81.522 A 1.734 1.734 0 0 1 497.614 81.616 A 1.029 1.029 0 0 1 497.367 81.94 Q 497.243 82.052 497.073 82.149 A 2.647 2.647 0 0 1 496.76 82.3 Q 496.164 82.542 495.111 82.665 A 13.989 13.989 0 0 1 494.88 82.69 Q 493.713 82.807 491.833 82.812 A 63.997 63.997 0 0 1 491.657 82.813 A 36.991 36.991 0 0 1 490.511 82.796 Q 489.368 82.76 488.561 82.649 A 10.776 10.776 0 0 1 488.508 82.642 Q 487.54 82.503 486.843 82.189 A 3.962 3.962 0 0 1 486.53 82.031 A 3.79 3.79 0 0 1 485.237 80.835 A 12.199 12.199 0 0 1 484.842 80.209 Q 484.673 79.924 484.497 79.598 A 24.645 24.645 0 0 1 484.138 78.906 L 473.933 54.98 L 468.562 54.98 L 467.878 79.492 A 9.405 9.405 0 0 1 467.857 80.149 Q 467.809 80.821 467.658 81.274 A 1.622 1.622 0 0 1 466.969 82.142 A 2.247 2.247 0 0 1 466.731 82.275 Q 466.054 82.602 464.819 82.706 A 11.758 11.758 0 0 1 464.704 82.715 Q 463.386 82.813 461.14 82.813 A 88.45 88.45 0 0 1 460.073 82.806 Q 458.558 82.788 457.551 82.715 A 10 10 0 0 1 456.812 82.635 Q 456.005 82.516 455.525 82.275 A 1.942 1.942 0 0 1 455.019 81.919 A 1.616 1.616 0 0 1 454.621 81.274 A 4.136 4.136 0 0 1 454.49 80.766 Q 454.385 80.23 454.353 79.495 A 9.551 9.551 0 0 1 454.353 79.492 Z M 410.359 79.492 L 408.259 4.346 Q 408.21 3.076 408.503 2.295 Q 408.789 1.532 409.704 1.095 A 3.695 3.695 0 0 1 409.748 1.074 Q 410.658 0.654 412.303 0.48 A 17.548 17.548 0 0 1 412.458 0.464 Q 414.216 0.293 417.146 0.293 L 418.733 0.293 A 21.113 21.113 0 0 1 419.783 0.318 A 18.18 18.18 0 0 1 420.173 0.342 L 439.753 0.342 A 13.348 13.348 0 0 1 440.483 0.36 Q 441.241 0.402 441.731 0.537 A 2.021 2.021 0 0 1 442.22 0.739 A 1.485 1.485 0 0 1 442.756 1.27 A 2.363 2.363 0 0 1 442.967 1.749 Q 443.102 2.169 443.147 2.734 A 19.852 19.852 0 0 1 443.188 3.436 Q 443.204 3.801 443.212 4.223 A 48.6 48.6 0 0 1 443.22 5.127 Q 443.22 6.519 443.154 7.448 A 16.89 16.89 0 0 1 443.147 7.544 Q 443.073 8.496 442.756 9.009 A 1.498 1.498 0 0 1 442.158 9.552 A 2.18 2.18 0 0 1 441.731 9.717 A 4.322 4.322 0 0 1 441.233 9.82 Q 440.626 9.912 439.753 9.912 L 425.886 9.912 L 425.007 39.893 L 436.775 39.893 A 13.348 13.348 0 0 1 437.505 39.911 Q 438.263 39.953 438.752 40.088 A 2.134 2.134 0 0 1 439.226 40.278 A 1.484 1.484 0 0 1 439.778 40.796 Q 440.095 41.309 440.168 42.212 Q 440.217 42.819 440.234 43.657 A 45.525 45.525 0 0 1 440.241 44.531 A 47.627 47.627 0 0 1 440.237 45.207 Q 440.223 46.173 440.168 46.851 Q 440.095 47.754 439.778 48.267 A 1.498 1.498 0 0 1 439.179 48.81 A 2.18 2.18 0 0 1 438.752 48.975 A 4.322 4.322 0 0 1 438.255 49.078 Q 437.647 49.17 436.775 49.17 L 424.763 49.17 L 424.03 73.73 L 437.946 73.73 Q 439.123 73.73 439.818 73.919 A 3.13 3.13 0 0 1 439.924 73.95 A 2.261 2.261 0 0 1 440.4 74.156 A 1.561 1.561 0 0 1 440.949 74.683 A 2.231 2.231 0 0 1 441.167 75.16 Q 441.297 75.552 441.34 76.074 Q 441.39 76.675 441.406 77.481 A 40.317 40.317 0 0 1 441.413 78.271 A 41.757 41.757 0 0 1 441.409 78.903 Q 441.395 79.78 441.344 80.426 A 14.458 14.458 0 0 1 441.34 80.469 Q 441.267 81.348 440.949 81.86 Q 440.632 82.373 439.924 82.593 Q 439.284 82.791 438.187 82.81 A 13.748 13.748 0 0 1 437.946 82.813 L 418.415 82.813 L 417.146 82.813 A 88.45 88.45 0 0 1 416.079 82.806 Q 414.564 82.788 413.557 82.715 A 10 10 0 0 1 412.818 82.635 Q 412.011 82.516 411.53 82.275 A 1.942 1.942 0 0 1 411.025 81.919 A 1.616 1.616 0 0 1 410.627 81.274 A 4.136 4.136 0 0 1 410.496 80.766 Q 410.391 80.23 410.359 79.495 A 9.551 9.551 0 0 1 410.359 79.492 Z M 50.007 79.004 L 62.946 4.443 A 9.477 9.477 0 0 1 63.131 3.487 Q 63.316 2.747 63.606 2.197 Q 64.013 1.425 65.025 0.954 A 5.095 5.095 0 0 1 65.315 0.83 A 6.994 6.994 0 0 1 66.2 0.556 Q 67.292 0.288 68.903 0.171 Q 71.021 0.017 74.492 0.002 A 176.558 176.558 0 0 1 75.251 0 A 156.392 156.392 0 0 1 77.128 0.011 Q 79.792 0.043 81.55 0.171 Q 83.894 0.342 85.139 0.83 A 4.364 4.364 0 0 1 85.869 1.193 Q 86.266 1.442 86.53 1.755 A 2.223 2.223 0 0 1 86.823 2.197 A 6.108 6.108 0 0 1 87.148 2.992 Q 87.282 3.392 87.389 3.859 A 12.442 12.442 0 0 1 87.507 4.443 L 100.446 79.004 A 9.355 9.355 0 0 1 100.509 79.523 Q 100.59 80.411 100.445 80.993 A 2.341 2.341 0 0 1 100.422 81.079 A 1.809 1.809 0 0 1 99.56 82.163 A 2.434 2.434 0 0 1 99.445 82.227 A 3.574 3.574 0 0 1 98.814 82.474 Q 98.205 82.653 97.37 82.715 A 31.434 31.434 0 0 1 96.299 82.774 Q 95.338 82.813 94.148 82.813 A 96.152 96.152 0 0 1 93.035 82.806 Q 91.456 82.788 90.412 82.715 Q 89.021 82.617 88.239 82.227 Q 87.458 81.836 87.092 81.079 A 4.607 4.607 0 0 1 86.86 80.492 Q 86.659 79.869 86.53 79.004 L 84.528 67.334 L 65.925 67.334 L 63.923 79.004 A 14.952 14.952 0 0 1 63.761 79.773 Q 63.572 80.559 63.337 81.079 A 2.329 2.329 0 0 1 62.226 82.22 A 2.9 2.9 0 0 1 62.214 82.227 A 3.661 3.661 0 0 1 61.605 82.461 Q 60.965 82.648 60.07 82.713 A 11.54 11.54 0 0 1 60.041 82.715 A 32.003 32.003 0 0 1 59.078 82.766 Q 57.994 82.809 56.518 82.812 A 109.369 109.369 0 0 1 56.306 82.813 A 65.67 65.67 0 0 1 55.392 82.806 Q 54.078 82.788 53.108 82.715 A 8.352 8.352 0 0 1 52.279 82.613 Q 51.545 82.483 51.032 82.227 A 2.192 2.192 0 0 1 50.46 81.823 A 1.824 1.824 0 0 1 50.007 81.079 A 2.401 2.401 0 0 1 49.915 80.666 Q 49.832 80.056 49.975 79.187 A 9.044 9.044 0 0 1 50.007 79.004 Z M 216.462 79.492 L 214.362 4.346 Q 214.314 3.076 214.607 2.295 Q 214.893 1.532 215.807 1.095 A 3.695 3.695 0 0 1 215.852 1.074 Q 216.761 0.654 218.406 0.48 A 17.548 17.548 0 0 1 218.562 0.464 Q 220.32 0.293 223.249 0.293 L 224.836 0.293 A 21.113 21.113 0 0 1 225.886 0.318 A 18.18 18.18 0 0 1 226.277 0.342 L 245.857 0.342 A 13.348 13.348 0 0 1 246.587 0.36 Q 247.345 0.402 247.834 0.537 A 2.021 2.021 0 0 1 248.323 0.739 A 1.485 1.485 0 0 1 248.86 1.27 A 2.363 2.363 0 0 1 249.07 1.749 Q 249.206 2.169 249.25 2.734 A 19.852 19.852 0 0 1 249.292 3.436 Q 249.308 3.801 249.316 4.223 A 48.6 48.6 0 0 1 249.323 5.127 Q 249.323 6.519 249.257 7.448 A 16.89 16.89 0 0 1 249.25 7.544 Q 249.177 8.496 248.86 9.009 A 1.498 1.498 0 0 1 248.261 9.552 A 2.18 2.18 0 0 1 247.834 9.717 A 4.322 4.322 0 0 1 247.337 9.82 Q 246.729 9.912 245.857 9.912 L 231.989 9.912 L 231.111 39.893 L 242.878 39.893 A 13.348 13.348 0 0 1 243.608 39.911 Q 244.366 39.953 244.856 40.088 A 2.134 2.134 0 0 1 245.33 40.278 A 1.484 1.484 0 0 1 245.881 40.796 Q 246.198 41.309 246.272 42.212 Q 246.321 42.819 246.337 43.657 A 45.525 45.525 0 0 1 246.345 44.531 A 47.627 47.627 0 0 1 246.34 45.207 Q 246.327 46.173 246.272 46.851 Q 246.198 47.754 245.881 48.267 A 1.498 1.498 0 0 1 245.283 48.81 A 2.18 2.18 0 0 1 244.856 48.975 A 4.322 4.322 0 0 1 244.358 49.078 Q 243.751 49.17 242.878 49.17 L 230.866 49.17 L 229.987 79.736 A 7.093 7.093 0 0 1 229.964 80.335 Q 229.94 80.62 229.891 80.861 A 2.888 2.888 0 0 1 229.768 81.299 Q 229.548 81.885 228.84 82.227 A 3.541 3.541 0 0 1 228.31 82.427 Q 227.741 82.596 226.934 82.679 A 12.359 12.359 0 0 1 226.814 82.69 Q 225.495 82.813 223.249 82.813 A 88.45 88.45 0 0 1 222.183 82.806 Q 220.667 82.788 219.66 82.715 A 10 10 0 0 1 218.921 82.635 Q 218.115 82.516 217.634 82.275 A 1.942 1.942 0 0 1 217.128 81.919 A 1.616 1.616 0 0 1 216.731 81.274 A 4.136 4.136 0 0 1 216.6 80.766 Q 216.494 80.23 216.462 79.495 A 9.551 9.551 0 0 1 216.462 79.492 Z M 118.122 79.492 L 116.12 9.863 L 106.989 9.863 A 13.348 13.348 0 0 1 106.259 9.845 Q 105.501 9.803 105.012 9.668 A 2.134 2.134 0 0 1 104.538 9.478 A 1.484 1.484 0 0 1 103.987 8.96 Q 103.669 8.447 103.596 7.495 Q 103.547 6.855 103.531 5.984 A 49.03 49.03 0 0 1 103.523 5.078 A 50.876 50.876 0 0 1 103.527 4.379 Q 103.541 3.381 103.596 2.686 Q 103.646 2.047 103.813 1.593 A 2.256 2.256 0 0 1 103.987 1.221 A 1.516 1.516 0 0 1 104.663 0.616 A 2.148 2.148 0 0 1 105.012 0.488 A 4.322 4.322 0 0 1 105.509 0.385 Q 106.117 0.293 106.989 0.293 L 123.737 0.293 L 124.861 0.293 L 142.732 0.293 A 13.348 13.348 0 0 1 143.462 0.312 Q 144.22 0.353 144.709 0.488 A 2.073 2.073 0 0 1 145.224 0.703 A 1.592 1.592 0 0 1 145.759 1.221 A 2.271 2.271 0 0 1 145.992 1.722 Q 146.074 1.967 146.123 2.261 A 5.023 5.023 0 0 1 146.174 2.686 A 19.852 19.852 0 0 1 146.216 3.387 Q 146.231 3.752 146.239 4.175 A 48.6 48.6 0 0 1 146.247 5.078 Q 146.247 6.47 146.181 7.399 A 16.89 16.89 0 0 1 146.174 7.495 Q 146.126 8.115 145.965 8.548 A 1.993 1.993 0 0 1 145.759 8.96 Q 145.417 9.473 144.709 9.668 A 4.322 4.322 0 0 1 144.212 9.771 Q 143.604 9.863 142.732 9.863 L 133.601 9.863 L 131.648 79.736 A 8.331 8.331 0 0 1 131.6 80.309 Q 131.565 80.602 131.51 80.85 A 3.384 3.384 0 0 1 131.379 81.299 Q 131.159 81.885 130.476 82.227 Q 129.792 82.568 128.449 82.69 A 23.957 23.957 0 0 1 127.522 82.755 Q 126.405 82.813 124.861 82.813 A 88.068 88.068 0 0 1 123.795 82.806 Q 122.285 82.788 121.296 82.715 A 9.786 9.786 0 0 1 120.541 82.631 Q 119.759 82.512 119.27 82.275 Q 118.562 81.934 118.366 81.274 Q 118.18 80.645 118.127 79.594 A 14.765 14.765 0 0 1 118.122 79.492 Z M 350.691 79.492 L 348.591 4.346 Q 348.542 3.076 348.835 2.295 Q 349.121 1.532 350.036 1.095 A 3.695 3.695 0 0 1 350.08 1.074 Q 350.99 0.654 352.635 0.48 A 17.548 17.548 0 0 1 352.79 0.464 Q 354.548 0.293 357.478 0.293 L 358.552 0.293 L 371.736 0.293 Q 378.278 0.293 382.966 1.416 Q 387.001 2.383 389.752 4.146 A 14.943 14.943 0 0 1 390.608 4.736 A 12.796 12.796 0 0 1 394.904 10.181 Q 396.115 13.108 396.115 16.85 A 23.969 23.969 0 0 1 396.101 17.676 L 394.685 66.992 A 17.672 17.672 0 0 1 394.165 70.88 A 14.743 14.743 0 0 1 393.195 73.584 A 13.046 13.046 0 0 1 389.363 78.305 A 15.345 15.345 0 0 1 389.021 78.564 A 17.009 17.009 0 0 1 385.871 80.377 Q 384.113 81.165 381.989 81.714 A 31.844 31.844 0 0 1 377.964 82.465 Q 375.874 82.726 373.498 82.791 A 58.957 58.957 0 0 1 371.882 82.813 L 356.208 82.813 A 36.59 36.59 0 0 1 355.151 82.798 Q 354.066 82.767 353.327 82.666 Q 352.634 82.571 352.144 82.396 A 2.873 2.873 0 0 1 351.667 82.178 A 1.57 1.57 0 0 1 350.916 81.197 A 1.915 1.915 0 0 1 350.91 81.177 Q 350.739 80.518 350.691 79.492 Z M 2.107 79.492 L 0.007 4.346 Q -0.042 3.076 0.251 2.295 Q 0.537 1.532 1.452 1.095 A 3.695 3.695 0 0 1 1.496 1.074 Q 2.406 0.654 4.051 0.48 A 17.548 17.548 0 0 1 4.206 0.464 Q 5.964 0.293 8.894 0.293 L 10.114 0.293 L 21.247 0.293 A 49.286 49.286 0 0 1 27.186 0.637 A 40.565 40.565 0 0 1 30.598 1.196 A 27.083 27.083 0 0 1 34.632 2.356 A 20.808 20.808 0 0 1 38.093 4.028 A 14.575 14.575 0 0 1 42.054 7.504 A 13.751 13.751 0 0 1 43.049 8.96 Q 44.696 11.735 44.696 15.573 A 18.517 18.517 0 0 1 44.685 16.211 L 44.05 39.404 A 16.464 16.464 0 0 1 43.082 44.362 A 18.856 18.856 0 0 1 42.854 44.971 A 12.494 12.494 0 0 1 40.409 48.83 A 15.404 15.404 0 0 1 39.24 49.976 Q 36.969 51.982 33.383 53.312 A 27.938 27.938 0 0 1 32.6 53.589 Q 28.474 54.98 22.37 54.98 L 16.316 54.98 L 15.632 79.492 A 9.405 9.405 0 0 1 15.611 80.149 Q 15.563 80.821 15.412 81.274 A 1.622 1.622 0 0 1 14.723 82.142 A 2.247 2.247 0 0 1 14.485 82.275 Q 13.808 82.602 12.573 82.706 A 11.758 11.758 0 0 1 12.458 82.715 Q 11.14 82.813 8.894 82.813 A 88.45 88.45 0 0 1 7.827 82.806 Q 6.312 82.788 5.305 82.715 A 10 10 0 0 1 4.566 82.635 Q 3.759 82.516 3.278 82.275 A 1.942 1.942 0 0 1 2.773 81.919 A 1.616 1.616 0 0 1 2.375 81.274 A 4.136 4.136 0 0 1 2.244 80.766 Q 2.139 80.23 2.107 79.495 A 9.551 9.551 0 0 1 2.107 79.492 Z M 260.456 79.492 L 258.357 4.346 Q 258.308 3.076 258.601 2.295 Q 258.887 1.532 259.802 1.095 A 3.695 3.695 0 0 1 259.846 1.074 Q 260.756 0.654 262.401 0.48 A 17.548 17.548 0 0 1 262.556 0.464 Q 264.314 0.293 267.243 0.293 A 80.367 80.367 0 0 1 268.934 0.31 Q 270.674 0.346 271.882 0.464 Q 273.64 0.635 274.592 1.074 A 3.086 3.086 0 0 1 275.194 1.434 Q 275.644 1.783 275.849 2.264 A 1.98 1.98 0 0 1 275.862 2.295 A 3.346 3.346 0 0 1 276.04 2.906 Q 276.159 3.507 276.132 4.304 A 9.219 9.219 0 0 1 276.13 4.346 L 273.982 79.492 A 9.405 9.405 0 0 1 273.96 80.149 Q 273.913 80.821 273.762 81.274 A 1.622 1.622 0 0 1 273.073 82.142 A 2.247 2.247 0 0 1 272.834 82.275 Q 272.157 82.602 270.923 82.706 A 11.758 11.758 0 0 1 270.808 82.715 Q 269.489 82.813 267.243 82.813 A 88.45 88.45 0 0 1 266.177 82.806 Q 264.662 82.788 263.654 82.715 A 10 10 0 0 1 262.915 82.635 Q 262.109 82.516 261.628 82.275 A 1.942 1.942 0 0 1 261.123 81.919 A 1.616 1.616 0 0 1 260.725 81.274 A 4.136 4.136 0 0 1 260.594 80.766 Q 260.488 80.23 260.456 79.495 A 9.551 9.551 0 0 1 260.456 79.492 Z M 364.314 74.854 L 372.37 74.854 A 23.922 23.922 0 0 0 373.988 74.802 Q 375.251 74.716 376.228 74.487 Q 377.645 74.155 378.56 73.441 A 4.33 4.33 0 0 0 378.742 73.291 A 4.092 4.092 0 0 0 379.841 71.73 A 5.294 5.294 0 0 0 380.061 71.069 A 8.946 8.946 0 0 0 380.276 69.942 Q 380.384 69.107 380.384 68.1 A 19.894 19.894 0 0 0 380.378 67.627 L 378.962 15.332 A 18.889 18.889 0 0 0 378.885 13.981 Q 378.771 12.779 378.498 11.914 Q 378.16 10.841 377.58 10.189 A 3.136 3.136 0 0 0 377.302 9.912 A 3.926 3.926 0 0 0 376.043 9.18 A 5.041 5.041 0 0 0 375.349 8.984 Q 374.177 8.74 372.614 8.74 L 366.218 8.74 L 364.314 74.854 Z M 67.536 58.057 L 82.917 58.057 L 75.446 14.746 L 75.007 14.746 L 67.536 58.057 Z M 16.56 47.021 L 20.222 47.021 Q 22.566 47.021 24.128 46.655 A 7.112 7.112 0 0 0 25.207 46.315 Q 25.798 46.073 26.256 45.736 A 3.986 3.986 0 0 0 26.594 45.459 A 4.138 4.138 0 0 0 27.574 44.071 A 5.497 5.497 0 0 0 27.863 43.237 A 8.946 8.946 0 0 0 28.079 42.11 Q 28.187 41.275 28.187 40.268 A 19.894 19.894 0 0 0 28.181 39.795 L 27.497 14.648 A 19.22 19.22 0 0 0 27.438 13.532 Q 27.391 12.968 27.31 12.49 A 7.588 7.588 0 0 0 27.107 11.597 Q 26.765 10.449 25.886 9.814 A 4.048 4.048 0 0 0 25 9.338 Q 24.567 9.167 24.047 9.055 A 8.206 8.206 0 0 0 23.518 8.96 A 17.298 17.298 0 0 0 22.393 8.835 Q 21.808 8.788 21.131 8.764 A 41.532 41.532 0 0 0 19.685 8.74 L 17.634 8.74 L 16.56 47.021 Z M 468.806 47.021 L 472.468 47.021 Q 474.812 47.021 476.374 46.655 A 7.112 7.112 0 0 0 477.453 46.315 Q 478.044 46.073 478.502 45.736 A 3.986 3.986 0 0 0 478.84 45.459 A 4.138 4.138 0 0 0 479.82 44.071 A 5.497 5.497 0 0 0 480.11 43.237 A 8.946 8.946 0 0 0 480.325 42.11 Q 480.433 41.275 480.433 40.268 A 19.894 19.894 0 0 0 480.427 39.795 L 479.743 14.648 A 19.22 19.22 0 0 0 479.684 13.532 Q 479.637 12.968 479.556 12.49 A 7.588 7.588 0 0 0 479.353 11.597 Q 479.011 10.449 478.132 9.814 A 4.048 4.048 0 0 0 477.246 9.338 Q 476.813 9.167 476.293 9.055 A 8.206 8.206 0 0 0 475.764 8.96 A 17.298 17.298 0 0 0 474.639 8.835 Q 474.054 8.788 473.377 8.764 A 41.532 41.532 0 0 0 471.931 8.74 L 469.88 8.74 L 468.806 47.021 Z" vector-effect="non-scaling-stroke"/></g></svg>