<?xml version="1.0" standalone="no"?>
<!DOCTYPE svg PUBLIC "-//W3C//DTD SVG 20010904//EN"
 "http://www.w3.org/TR/2001/REC-SVG-20010904/DTD/svg10.dtd">
<svg version="1.0" xmlns="http://www.w3.org/2000/svg"
 width="2560.000000pt" height="2560.000000pt" viewBox="0 0 2560.000000 2560.000000"
 preserveAspectRatio="xMidYMid meet">
<metadata>
Created by potrace 1.14, written by Peter Selinger 2001-2017
</metadata>
<g transform="translate(0.000000,2560.000000) scale(0.100000,-0.100000)"
fill="#000000" stroke="none">
<path d="M1831 23339 c-85 -16 -251 -82 -359 -143 -116 -65 -170 -109 -197
-157 -28 -52 -61 -180 -72 -284 -10 -86 -9 -501 0 -690 4 -77 10 -180 12 -230
3 -49 7 -137 10 -195 6 -111 11 -231 20 -445 3 -71 8 -175 10 -230 4 -98 10
-234 20 -510 3 -77 8 -189 10 -250 2 -60 7 -182 10 -270 3 -88 8 -194 10 -235
2 -41 7 -151 10 -245 3 -93 8 -197 10 -230 2 -33 7 -112 10 -175 3 -63 7 -151
10 -195 2 -44 7 -125 10 -180 3 -55 8 -129 10 -165 2 -36 7 -103 9 -150 10
-150 18 -274 21 -320 2 -25 7 -90 10 -145 3 -55 8 -118 10 -140 2 -22 7 -73
10 -114 4 -41 9 -84 11 -95 2 -11 6 -38 10 -61 14 -94 73 -219 118 -248 71
-47 157 -19 207 67 32 56 65 155 74 226 6 47 6 314 0 410 -1 30 -6 114 -10
185 -3 72 -8 159 -10 195 -11 169 -15 241 -20 315 -2 44 -7 116 -10 160 -2 44
-7 130 -10 190 -3 61 -8 135 -10 165 -2 30 -7 113 -10 185 -4 71 -8 133 -11
136 -7 11 7 17 56 24 176 25 302 95 460 255 189 191 353 493 444 820 14 52 31
109 36 125 13 44 47 215 65 335 18 118 22 245 20 565 -2 319 -7 413 -31 545
-2 14 -9 54 -15 90 -42 247 -145 512 -274 706 -64 96 -222 262 -298 313 -118
80 -260 113 -386 90z m214 -1005 c177 -87 322 -313 341 -535 9 -105 9 -356 0
-469 -12 -144 -76 -362 -149 -500 -108 -207 -305 -369 -456 -374 l-59 -3 -1
91 c-1 50 -4 129 -6 176 -2 47 -6 159 -10 250 -10 288 -32 761 -40 870 -2 25
-7 138 -11 252 l-7 207 29 12 c161 66 267 73 369 23z"/>
<path d="M22884 23336 c-100 -43 -187 -244 -208 -481 -3 -33 -8 -94 -11 -135
-3 -41 -8 -95 -10 -120 -2 -25 -7 -83 -10 -130 -3 -47 -8 -101 -10 -120 -2
-19 -7 -80 -10 -135 -4 -55 -8 -116 -10 -135 -2 -19 -6 -78 -10 -130 -3 -52
-8 -117 -10 -145 -2 -27 -6 -88 -10 -135 -3 -47 -8 -110 -10 -140 -3 -30 -7
-84 -9 -120 -6 -91 -18 -258 -21 -300 -2 -19 -6 -87 -10 -150 -4 -63 -8 -126
-10 -140 -2 -14 -7 -74 -10 -135 -3 -60 -8 -126 -10 -145 -2 -19 -7 -80 -10
-135 -3 -55 -8 -116 -10 -135 -2 -19 -7 -87 -11 -150 -4 -63 -8 -131 -9 -150
-12 -172 -17 -240 -20 -270 -3 -19 -7 -80 -10 -135 -3 -55 -8 -120 -10 -145
-2 -25 -7 -83 -10 -130 -3 -47 -8 -114 -11 -150 -2 -36 -6 -94 -9 -130 -12
-174 -16 -229 -20 -280 -3 -30 -7 -104 -10 -165 -4 -60 -8 -130 -10 -155 -4
-37 -5 -144 -4 -295 1 -36 20 -129 40 -192 36 -109 139 -200 214 -186 78 15
173 171 189 313 9 83 23 271 32 430 3 58 7 134 9 170 2 36 6 115 10 175 13
228 26 433 30 453 2 9 4 19 4 21 3 15 208 -221 299 -344 28 -38 55 -74 59 -80
5 -5 40 -59 80 -120 148 -230 313 -549 448 -870 156 -371 178 -420 206 -462
53 -77 123 -94 191 -47 55 39 114 142 134 235 19 94 22 128 19 244 -2 72 -6
144 -10 160 -44 213 -178 552 -361 918 -57 114 -90 175 -174 322 -40 69 -60
113 -60 132 0 11 17 27 46 43 54 28 170 118 234 181 200 196 321 461 375 819
25 162 30 240 29 440 0 307 -31 559 -103 840 -121 472 -421 1040 -672 1275
-87 81 -152 123 -327 209 -297 148 -350 166 -408 142z m257 -1081 c165 -59
271 -136 384 -280 165 -211 316 -528 361 -760 40 -204 49 -362 28 -455 -38
-162 -181 -347 -328 -423 -61 -31 -61 -32 -216 -32 -180 0 -216 5 -326 40
l-80 25 2 43 c1 23 5 110 9 192 3 83 8 166 10 185 2 19 6 82 9 140 4 58 9 134
11 170 6 79 14 199 20 300 3 41 7 108 10 148 3 39 7 105 10 145 9 131 16 231
20 277 2 25 7 88 10 140 6 91 14 160 20 160 1 0 22 -7 46 -15z"/>
<path d="M20653 23055 c-63 -27 -121 -143 -138 -276 -13 -99 -14 -132 -20
-379 -6 -325 -13 -436 -40 -702 -6 -54 -13 -127 -21 -208 -3 -30 -7 -66 -9
-80 -2 -14 -7 -56 -11 -95 -3 -38 -8 -83 -10 -100 -2 -16 -6 -55 -9 -85 -3
-30 -8 -71 -10 -90 -2 -19 -7 -60 -10 -90 -3 -30 -8 -71 -10 -90 -5 -43 -14
-119 -20 -180 -4 -45 -12 -112 -20 -180 -2 -19 -7 -66 -10 -105 -4 -38 -8 -81
-10 -95 -2 -14 -7 -61 -11 -105 -3 -44 -8 -87 -9 -95 -2 -8 -6 -53 -10 -100
-4 -46 -9 -96 -10 -110 -28 -223 -25 -794 5 -985 73 -459 294 -619 1032 -745
207 -35 266 -42 380 -45 73 -2 96 1 136 20 106 49 162 178 163 371 0 130 -30
228 -92 298 -54 62 -105 82 -238 91 -90 7 -139 13 -211 25 -30 5 -136 23 -235
40 -99 16 -189 31 -200 33 -11 3 -38 7 -60 11 -22 4 -74 16 -116 27 -114 30
-114 31 -114 304 0 190 5 317 20 465 2 19 6 73 10 120 4 47 8 101 10 120 2 19
7 73 11 120 3 47 7 96 9 110 2 14 4 28 4 32 1 4 31 6 69 3 37 -2 126 -6 197
-10 72 -3 157 -8 190 -10 33 -3 128 -7 210 -10 83 -3 170 -8 195 -11 25 -3
111 -7 191 -9 131 -4 150 -2 187 16 52 26 85 70 113 150 19 54 23 85 23 204 0
88 -4 155 -13 180 -47 147 -115 205 -256 219 -72 8 -281 20 -515 31 -342 15
-480 24 -490 30 -8 5 -6 49 4 150 3 28 8 86 11 130 4 44 8 91 10 105 2 14 7
63 10 110 4 47 8 101 10 120 2 19 6 78 10 130 4 52 9 102 10 110 2 9 6 60 10
115 4 55 9 109 11 119 6 35 -2 32 189 56 97 12 322 4 408 -15 142 -30 242 -72
461 -193 171 -95 214 -92 304 20 52 66 75 159 76 313 1 128 0 132 -32 197
-127 259 -597 459 -1075 459 -82 -1 -152 -3 -155 -5 -4 -2 -32 -6 -62 -10 -49
-5 -90 -11 -155 -20 -11 -2 -38 11 -60 29 -22 18 -50 38 -63 44 -34 18 -113
21 -149 6z"/>
<path d="M4499 22929 c-11 -11 -34 -51 -50 -87 -32 -71 -151 -417 -194 -567
-172 -591 -292 -1034 -441 -1625 -31 -124 -57 -229 -58 -235 -26 -122 -133
-543 -147 -580 -11 -27 -37 -70 -59 -95 -78 -90 -104 -181 -88 -307 14 -103
12 -173 -7 -257 -3 -12 -7 -34 -10 -51 -3 -16 -9 -55 -15 -85 -6 -30 -13 -68
-15 -85 -3 -16 -10 -52 -15 -80 -5 -27 -11 -61 -14 -75 -2 -14 -9 -54 -16 -90
-7 -36 -13 -74 -15 -85 -1 -11 -5 -33 -8 -50 -3 -16 -9 -48 -12 -70 -2 -22 -8
-57 -11 -78 -14 -90 -27 -227 -27 -282 1 -207 91 -383 207 -402 48 -8 80 2
120 38 61 53 98 140 130 299 3 14 14 68 26 120 12 52 24 106 26 120 3 14 16
81 30 150 27 133 29 145 44 230 6 30 12 66 15 80 3 14 7 39 10 55 3 17 8 41
10 55 11 54 16 78 30 162 9 49 18 95 21 103 10 25 77 53 514 210 102 37 209
76 239 87 29 10 55 17 58 14 4 -4 53 -231 79 -366 12 -62 99 -407 130 -515
102 -353 199 -545 278 -545 35 0 74 21 108 57 31 33 87 148 95 194 2 18 9 42
13 55 10 24 6 252 -4 299 -4 17 -16 72 -27 124 -11 52 -28 126 -39 165 -10 39
-21 82 -24 96 -3 14 -19 81 -36 150 -30 124 -93 428 -104 505 -4 22 -14 81
-22 130 -9 50 -17 101 -20 115 -2 14 -22 133 -44 265 -23 132 -43 256 -45 275
-3 19 -7 46 -10 60 -3 14 -8 42 -11 64 -3 21 -8 48 -10 60 -3 11 -11 62 -19
111 -7 50 -16 104 -19 120 -3 17 -7 44 -10 60 -3 17 -14 84 -25 150 -11 66
-22 137 -25 158 -3 20 -9 54 -12 75 -3 20 -12 78 -20 127 -8 50 -17 101 -19
115 -3 23 -10 68 -21 145 -2 17 -9 53 -14 80 -5 28 -12 72 -15 99 -3 27 -8 52
-9 55 -2 3 -7 31 -10 61 -4 30 -8 66 -11 80 -2 14 -18 108 -35 210 -71 423
-93 499 -165 579 -63 69 -119 87 -156 50z m-5 -1699 c3 -19 8 -44 10 -56 2
-12 7 -45 11 -74 4 -29 8 -60 10 -69 5 -28 16 -104 30 -196 3 -23 7 -50 9 -60
2 -11 7 -42 10 -70 10 -73 25 -176 30 -205 3 -14 10 -61 16 -105 23 -171 23
-162 -4 -180 -14 -9 -31 -18 -38 -19 -7 -2 -24 -8 -38 -13 -14 -6 -60 -22
-103 -37 -44 -14 -119 -42 -168 -62 -50 -20 -92 -34 -95 -32 -2 3 0 18 5 34 5
16 26 101 46 189 21 88 59 250 86 360 26 110 50 211 53 225 6 31 6 30 55 225
55 218 53 210 61 194 5 -8 11 -30 14 -49z"/>
<path d="M18222 22929 c-84 -42 -168 -167 -197 -291 -16 -74 -25 -185 -50
-698 -3 -52 -7 -138 -10 -190 -3 -52 -7 -138 -10 -190 -15 -289 -31 -554 -41
-695 -2 -33 -6 -98 -9 -145 -3 -47 -7 -105 -9 -130 -3 -25 -7 -81 -11 -125 -3
-44 -8 -96 -10 -115 -2 -19 -7 -75 -10 -125 -4 -49 -8 -103 -10 -120 -2 -16
-7 -66 -10 -110 -4 -44 -8 -96 -10 -115 -2 -19 -6 -73 -10 -120 -3 -47 -8
-101 -10 -120 -6 -48 -17 -209 -20 -303 -3 -123 28 -232 87 -299 13 -14 51
-42 83 -62 33 -20 87 -59 120 -87 147 -122 357 -216 533 -236 76 -9 293 -9
362 0 331 44 609 285 810 701 58 121 146 365 164 456 3 14 14 71 25 128 12 56
24 137 28 180 13 151 6 513 -13 632 -60 385 -225 773 -478 1130 -140 197 -336
393 -572 572 -76 58 -204 162 -284 230 -306 262 -354 289 -438 247z m301 -949
c12 -10 74 -60 138 -112 160 -129 238 -197 349 -309 123 -124 158 -164 240
-279 189 -266 286 -554 294 -876 13 -504 -255 -1010 -562 -1064 -95 -16 -312
-15 -398 3 -87 19 -201 75 -259 128 -39 36 -42 43 -40 82 2 23 6 92 9 152 4
61 8 139 11 175 2 36 7 106 10 155 3 50 7 122 10 160 2 39 7 111 10 160 3 50
7 124 10 165 3 41 7 116 10 165 3 50 7 119 10 155 2 36 7 110 10 165 3 55 7
129 10 165 3 36 7 110 10 165 3 55 8 129 10 165 2 36 7 108 10 160 3 52 8 118
10 145 2 28 7 86 10 130 4 43 9 83 12 88 5 8 37 -10 76 -43z"/>
<path d="M6988 22765 c-3 -2 -50 -8 -168 -20 -14 -1 -50 -5 -80 -8 -30 -4 -86
-9 -125 -13 -38 -3 -72 -8 -76 -10 -8 -4 -272 -18 -359 -18 -41 0 -129 4 -195
8 -229 15 -222 16 -275 -11 -91 -45 -149 -163 -155 -312 -6 -159 45 -285 135
-331 93 -48 158 -55 483 -55 l277 0 1 -40 c0 -22 2 -48 4 -57 2 -10 6 -64 10
-120 3 -57 8 -114 10 -128 2 -14 6 -59 10 -100 3 -41 8 -91 10 -110 2 -19 7
-71 10 -115 4 -44 8 -91 10 -105 2 -14 6 -59 10 -100 3 -41 8 -91 10 -110 3
-31 8 -79 20 -220 2 -19 6 -66 9 -105 4 -38 8 -92 11 -120 2 -27 7 -93 10
-145 3 -52 8 -129 10 -170 3 -41 7 -106 10 -145 3 -38 7 -108 10 -155 4 -77 8
-126 21 -285 2 -27 6 -140 9 -250 8 -318 12 -353 40 -410 105 -212 318 -195
389 32 56 178 64 344 31 683 -3 25 -7 81 -10 125 -3 44 -7 103 -10 130 -3 28
-7 91 -10 140 -3 50 -7 115 -10 145 -3 30 -7 89 -10 130 -3 41 -7 100 -10 130
-2 30 -7 93 -10 140 -3 47 -8 101 -10 120 -2 19 -7 73 -10 120 -4 47 -8 99
-10 115 -2 17 -6 75 -10 130 -4 55 -8 107 -10 115 -2 8 -6 53 -9 100 -4 47 -9
105 -11 130 -3 25 -7 73 -10 108 -3 34 -7 88 -10 120 -6 63 -15 211 -18 285
-2 36 1 47 13 48 72 6 129 8 370 14 462 10 509 16 558 66 122 125 137 386 32
552 -53 83 -46 82 -507 84 -221 1 -403 0 -405 -2z"/>
<path d="M10242 22620 c-22 -16 -56 -55 -75 -88 -38 -66 -102 -237 -113 -303
-3 -24 -9 -55 -11 -69 -2 -14 -6 -209 -8 -433 -1 -225 -4 -410 -6 -412 -2 -1
-24 -6 -49 -9 -25 -3 -56 -8 -70 -11 -14 -3 -54 -10 -90 -15 -114 -18 -389
-79 -567 -125 -35 -9 -72 -18 -82 -20 -11 -2 -64 -15 -118 -30 -326 -88 -308
-85 -317 -49 -4 15 -9 264 -11 553 -6 682 -10 771 -33 824 -51 112 -172 165
-280 121 -48 -19 -118 -92 -132 -138 -5 -19 -7 -263 -3 -621 7 -815 7 -1346
-2 -1775 -4 -201 -5 -391 -1 -422 23 -183 237 -267 368 -146 70 65 71 76 83
528 10 412 14 503 22 511 8 8 685 186 778 205 11 2 92 19 180 38 156 33 213
43 305 52 l45 4 1 -147 c0 -128 6 -264 19 -468 2 -27 6 -93 9 -145 18 -275 22
-313 42 -408 17 -81 124 -151 224 -146 91 3 151 47 196 141 30 63 33 90 20
233 -4 47 -9 110 -11 140 -7 93 -16 213 -20 250 -17 165 -20 308 -20 965 0
413 4 813 9 890 12 208 14 366 5 401 -11 39 -76 107 -128 134 -58 29 -109 26
-159 -10z"/>
<path d="M15187 22636 c-76 -27 -166 -122 -188 -198 -10 -35 -10 -68 -10 -568
0 -406 -2 -514 -14 -805 -14 -363 -25 -577 -40 -775 -3 -30 -7 -91 -10 -135
-4 -44 -8 -91 -10 -105 -9 -59 -19 -242 -18 -320 1 -106 14 -155 54 -203 44
-53 97 -77 184 -84 l73 -5 41 37 c53 48 96 138 120 250 22 98 30 220 46 700
17 484 31 781 51 1025 3 47 7 91 7 98 0 6 3 12 6 12 5 -1 111 -171 181 -289 9
-14 23 -37 32 -51 9 -14 64 -101 123 -195 115 -181 334 -512 409 -617 25 -35
64 -90 87 -123 48 -67 324 -439 350 -470 305 -372 365 -421 507 -418 82 2 146
46 179 123 19 46 50 171 58 240 4 30 8 66 10 80 2 14 6 68 10 120 3 52 8 124
10 160 5 64 9 140 20 335 11 198 14 242 20 380 4 77 8 165 10 194 19 290 26
929 12 1056 -21 196 -60 308 -130 375 -41 40 -77 52 -141 45 -64 -7 -104 -25
-136 -61 -63 -72 -60 -38 -65 -839 -2 -401 -6 -766 -9 -810 -2 -44 -8 -152
-11 -240 -4 -88 -9 -178 -10 -200 -2 -22 -4 -53 -4 -70 -1 -16 -6 -37 -11 -45
-13 -19 -44 14 -186 196 -263 339 -606 842 -804 1179 -10 17 -43 72 -75 124
-53 89 -168 288 -328 571 -85 150 -119 201 -171 258 -71 77 -143 98 -229 68z"/>
<path d="M11659 22565 c-3 -2 -31 -6 -64 -9 -62 -5 -125 -14 -160 -21 -11 -2
-42 -7 -70 -10 -27 -4 -66 -10 -85 -14 -19 -4 -64 -5 -100 -3 -153 11 -213 -7
-276 -83 -38 -47 -50 -97 -48 -195 1 -30 5 -235 9 -455 4 -220 8 -458 10 -530
2 -71 6 -240 9 -375 21 -847 26 -930 56 -990 38 -74 90 -102 192 -102 108 -1
199 55 224 139 13 43 13 367 0 966 -2 89 1 143 8 153 10 14 158 58 231 69 17
3 57 9 90 14 33 5 195 7 360 6 334 -3 365 1 422 57 112 108 92 285 -39 354
-51 27 -208 39 -493 39 -240 0 -300 -5 -448 -35 -26 -6 -70 -13 -98 -16 -43
-5 -49 -4 -50 12 -1 11 -3 133 -4 271 -1 223 0 253 14 257 22 6 69 15 116 22
22 3 67 9 100 14 248 38 565 31 795 -17 119 -25 192 -21 247 13 52 33 98 105
108 169 12 77 -56 138 -216 195 -86 30 -259 74 -339 86 -25 3 -56 8 -70 11
-33 6 -426 14 -431 8z"/>
<path d="M13084 22549 c-70 -22 -115 -59 -147 -123 -63 -125 -7 -282 120 -338
43 -19 59 -20 235 -14 104 3 192 7 196 7 30 5 34 -2 28 -48 -7 -48 -9 -91 -22
-338 -3 -71 -7 -415 -9 -763 -1 -348 -5 -636 -9 -639 -8 -9 -27 -12 -101 -17
-165 -12 -212 -17 -235 -21 -14 -3 -34 -7 -45 -9 -69 -14 -126 -59 -161 -126
-27 -50 -25 -162 3 -215 30 -58 79 -103 123 -115 64 -17 268 -15 369 5 11 2
51 7 88 10 37 4 82 9 98 11 51 6 241 14 450 19 414 9 432 12 512 72 99 76 99
279 0 371 -50 47 -105 54 -436 55 l-183 1 6 706 c6 641 11 900 21 955 2 11 4
28 4 38 1 17 8 18 74 13 39 -2 113 -10 162 -16 226 -27 306 -16 364 48 45 50
61 90 62 159 2 81 -7 122 -39 168 -42 62 -91 81 -272 109 -268 42 -354 47
-811 50 -352 3 -392 1 -445 -15z"/>
<path d="M11748 19014 c-7 -11 -22 -129 -32 -254 -3 -30 -8 -86 -11 -125 -3
-38 -8 -90 -10 -115 -3 -25 -7 -79 -11 -120 -3 -41 -7 -91 -9 -110 -2 -19 -6
-69 -9 -110 -4 -41 -9 -95 -11 -120 -3 -25 -8 -70 -10 -100 -10 -103 -24 -237
-30 -290 -3 -19 -7 -60 -10 -90 -3 -30 -7 -66 -10 -80 -2 -14 -7 -50 -10 -80
-4 -30 -9 -64 -11 -75 -2 -10 -6 -37 -10 -60 -3 -22 -14 -79 -25 -127 -38
-176 -89 -268 -141 -255 -37 10 -123 90 -171 161 -45 66 -52 80 -229 424 -185
362 -203 386 -193 270 5 -65 24 -225 30 -267 12 -70 19 -204 20 -338 0 -143
-1 -154 -22 -174 l-21 -22 -36 22 c-67 42 -161 168 -342 462 -59 96 -112 183
-118 194 -17 30 -112 178 -185 285 -73 109 -148 200 -163 200 -32 0 38 -228
197 -635 25 -66 64 -165 85 -220 21 -55 61 -158 89 -230 161 -417 245 -660
255 -738 l7 -49 -53 7 c-71 9 -150 38 -217 77 -73 44 -222 193 -296 298 -34
47 -87 122 -120 168 -53 74 -81 103 -70 70 2 -7 6 -26 9 -43 2 -16 18 -86 35
-155 72 -288 98 -420 106 -535 7 -85 -3 -123 -37 -148 l-26 -20 -47 27 c-66
39 -159 121 -330 293 -184 184 -278 283 -375 393 -41 47 -77 87 -80 90 -27 27
-173 210 -262 328 -91 120 -368 525 -368 537 0 6 -80 125 -84 125 -2 0 87
-181 198 -402 111 -222 225 -452 253 -513 119 -256 137 -297 194 -434 235
-564 304 -880 210 -965 -22 -20 -75 -26 -121 -14 -45 13 -150 66 -227 116 -34
21 -76 45 -93 52 -30 12 -34 12 -47 -6 -19 -25 -12 -102 22 -249 41 -175 55
-253 55 -306 0 -53 -20 -103 -44 -112 -40 -15 -148 24 -402 148 -343 165 -654
369 -939 614 -60 52 -112 97 -115 100 -17 20 -170 151 -192 165 -16 10 -29 13
-32 7 -6 -9 73 -171 98 -201 7 -8 16 -22 19 -30 5 -15 131 -216 316 -507 381
-598 542 -874 610 -1046 35 -88 40 -134 14 -144 -56 -22 -250 52 -388 148 -75
52 -278 217 -411 335 -150 133 -427 372 -562 486 -155 129 -307 237 -318 225
-11 -10 28 -69 133 -199 59 -73 113 -139 120 -146 6 -7 29 -34 50 -60 21 -26
40 -49 43 -52 3 -3 57 -67 120 -144 63 -76 125 -150 138 -165 135 -154 404
-503 489 -636 87 -134 126 -254 91 -276 -47 -30 -201 27 -483 181 -81 44 -97
48 -88 23 7 -21 97 -150 213 -308 104 -140 180 -256 209 -320 22 -47 30 -100
16 -113 -12 -12 -170 -9 -230 5 -258 57 -451 175 -782 474 -207 189 -239 209
-197 127 19 -38 206 -351 214 -358 3 -3 11 -16 19 -30 8 -14 66 -109 128 -212
157 -260 214 -361 293 -523 63 -127 108 -256 104 -295 -1 -8 -2 -21 -3 -27 0
-7 -10 -22 -20 -32 -15 -15 -29 -18 -67 -14 -204 18 -502 133 -1114 431 -596
289 -706 340 -716 330 -25 -25 148 -201 721 -733 12 -11 49 -45 82 -75 427
-395 805 -763 949 -928 78 -89 123 -167 107 -183 -17 -17 -65 -17 -118 -2
-113 33 -179 77 -595 394 -69 52 -161 120 -205 151 -88 61 -215 132 -223 123
-14 -13 84 -120 417 -454 378 -380 489 -499 515 -550 18 -33 16 -35 -33 -46
-54 -12 -263 -6 -361 10 -14 2 -55 9 -91 14 -98 16 -270 72 -441 145 -21 9
-41 17 -45 18 -5 1 -89 43 -188 93 -181 92 -364 198 -550 319 -296 192 -287
182 80 -94 149 -112 339 -258 424 -324 84 -67 165 -130 180 -141 14 -11 103
-82 196 -159 416 -342 658 -571 824 -782 45 -57 92 -155 93 -193 3 -100 -167
-163 -442 -165 -166 0 -323 20 -575 77 -157 35 -185 39 -185 28 0 -11 158
-110 208 -130 18 -8 35 -18 38 -23 3 -4 -12 -30 -34 -56 -63 -76 -74 -98 -67
-130 14 -66 110 -115 227 -116 l78 -1 44 48 c24 26 51 68 61 92 16 43 18 45
48 39 18 -3 37 -7 44 -8 25 -4 24 -16 -11 -88 -43 -90 -63 -165 -48 -180 33
-33 185 11 329 97 52 32 102 58 111 59 35 6 173 -36 302 -91 284 -121 263
-219 -95 -454 -82 -54 -163 -108 -180 -119 l-30 -20 65 0 c96 1 298 56 580
158 203 74 289 93 401 88 123 -6 186 -27 201 -67 21 -57 -130 -211 -376 -384
-31 -22 -82 -58 -114 -81 -31 -22 -180 -123 -330 -224 -151 -102 -270 -186
-264 -188 5 -1 65 20 133 47 192 76 282 104 444 137 17 3 82 8 145 10 180 5
304 -32 389 -117 50 -50 72 -94 79 -159 2 -25 6 -46 7 -48 5 -5 29 52 55 128
79 231 147 338 248 393 102 55 163 32 157 -60 -2 -27 -6 -61 -10 -78 -8 -31
-122 -312 -134 -330 -12 -18 -54 -146 -49 -151 3 -2 41 26 84 64 148 127 264
202 314 202 26 0 36 22 65 153 19 86 26 203 28 435 0 100 3 182 5 182 3 0 57
-51 121 -113 235 -228 429 -360 693 -471 210 -88 469 -159 657 -181 53 -6 61
-12 101 -76 38 -58 51 -66 18 -10 -170 288 -241 447 -264 590 -2 14 -6 36 -9
48 -26 114 -26 389 0 593 10 79 56 252 91 347 92 246 270 469 442 555 78 39
88 42 170 42 74 0 95 -4 142 -27 108 -52 198 -169 259 -335 32 -87 35 -96 52
-205 27 -168 -31 -370 -179 -624 -150 -259 -179 -361 -148 -514 18 -84 88
-253 156 -374 28 -49 52 -99 54 -109 3 -22 26 -35 26 -16 0 7 -10 30 -22 51
-12 21 -20 41 -17 43 2 2 25 6 50 9 l46 6 -3 -91 -3 -91 69 -87 c38 -48 77
-93 87 -101 17 -13 17 -13 3 6 -8 11 -19 24 -25 28 -6 5 -3 7 7 3 200 -63 359
-20 450 123 25 40 28 42 29 20 1 -13 2 -35 4 -49 2 -14 5 -52 9 -85 8 -87 14
-114 40 -170 33 -72 86 -119 156 -142 55 -17 57 -19 43 -35 -25 -28 -7 -21 40
15 42 32 94 60 132 72 15 5 16 8 6 15 -10 6 -2 15 30 35 89 55 108 70 113 90
7 30 19 135 20 173 0 17 1 32 2 32 2 0 19 -33 39 -73 42 -82 65 -112 65 -84 0
9 -4 17 -9 17 -5 0 -12 7 -15 16 -5 13 -1 14 24 9 19 -4 30 -3 30 4 0 6 -3 10
-7 10 -46 -7 -75 20 -98 96 -14 44 -16 58 -6 64 9 6 8 10 -5 15 -28 11 -35 -6
-36 -95 -1 -46 -6 -96 -12 -111 l-12 -27 -44 30 c-110 73 -232 66 -345 -19
-64 -47 -106 -75 -110 -70 -2 2 -6 19 -10 38 -17 86 -22 140 -21 200 l1 65 90
-4 c137 -7 353 -6 420 2 75 8 159 31 188 50 109 73 216 266 247 445 6 40 15
72 19 72 5 0 23 -29 41 -64 18 -36 39 -67 46 -70 8 -3 14 -17 14 -31 0 -14 4
-25 8 -25 22 0 74 -156 88 -262 8 -61 25 -74 19 -14 -7 74 -48 214 -82 279
-42 82 51 164 241 212 97 25 114 28 246 45 137 17 165 22 168 24 1 2 5 52 8
112 4 60 11 114 16 121 5 6 21 9 36 7 15 -3 74 -13 132 -22 l105 -18 18 -70
c9 -38 20 -96 23 -129 7 -71 5 -74 -117 -148 -42 -26 -92 -66 -112 -89 -19
-24 -56 -65 -81 -91 -47 -48 -51 -67 -15 -67 11 0 22 -8 25 -17 3 -10 13 -35
24 -55 13 -27 18 -55 16 -95 -2 -49 -9 -67 -43 -118 -41 -61 -150 -166 -278
-266 -78 -62 -253 -186 -294 -209 -14 -8 -79 -54 -144 -103 -126 -94 -274
-197 -282 -197 -3 0 -5 14 -5 32 0 46 -17 23 -23 -32 -9 -76 -17 -102 -49
-163 -31 -57 -81 -107 -108 -107 -7 0 -11 -3 -7 -6 3 -3 29 -1 57 6 117 28
176 18 255 -43 23 -19 34 -23 25 -12 -24 32 -33 39 -73 60 -21 11 -41 23 -43
27 -2 3 31 35 73 69 43 35 96 79 119 98 105 93 178 156 284 247 63 54 122 105
130 114 33 36 187 156 268 210 48 31 101 70 117 86 42 39 105 71 158 79 51 8
62 -1 47 -40 -6 -17 -7 -24 0 -20 5 3 20 8 32 10 28 6 125 72 233 159 79 63
80 63 94 42 29 -41 84 -96 98 -96 7 0 13 -5 13 -11 0 -5 -6 -7 -12 -3 -7 4 -4
-4 8 -17 120 -141 162 -188 249 -277 59 -61 129 -121 170 -147 129 -81 356
-176 453 -191 20 -3 48 -7 62 -10 14 -3 130 -7 258 -11 l234 -5 -11 21 c-7 11
-18 21 -26 21 -8 0 -15 5 -15 11 0 8 -12 10 -35 6 -22 -4 -35 -2 -35 5 0 6 -8
17 -17 24 -17 12 -16 13 7 14 14 1 32 3 40 5 8 1 47 6 85 10 39 3 106 13 150
21 44 8 94 17 110 20 35 6 216 51 260 64 17 5 77 23 135 41 125 37 277 94 380
141 42 20 87 39 100 43 25 7 387 189 490 246 345 190 583 340 935 588 83 58
157 111 165 118 8 6 69 53 135 105 124 95 157 123 209 172 l31 29 -40 -29
c-22 -15 -111 -83 -198 -151 -87 -68 -170 -129 -185 -137 -15 -8 -38 -26 -51
-40 -14 -14 -28 -26 -32 -26 -9 0 -371 -240 -379 -250 -3 -4 -23 -17 -45 -28
-22 -11 -77 -44 -121 -74 -270 -177 -620 -360 -1079 -563 -86 -38 -213 -88
-233 -91 -13 -3 -42 -11 -65 -19 -55 -18 -337 -93 -396 -105 -25 -5 -57 -12
-71 -15 -237 -51 -494 -53 -682 -6 -163 41 -360 161 -463 281 -38 43 -55 60
-132 121 -34 27 -87 83 -118 125 -67 88 -145 231 -152 277 -2 17 -7 43 -9 57
-10 49 -13 286 -4 335 18 106 21 122 35 175 88 340 366 822 652 1130 23 25 51
56 63 70 12 14 45 50 74 80 51 54 72 80 63 80 -12 0 -215 -210 -337 -349 -36
-41 -72 -82 -80 -90 -8 -9 -40 -48 -70 -86 -30 -39 -57 -72 -60 -75 -12 -11
-133 -186 -185 -268 -72 -112 -185 -342 -225 -457 -58 -168 -81 -296 -85 -478
-1 -59 -4 -110 -7 -112 -2 -2 -12 21 -22 53 -9 31 -24 77 -32 102 -27 78 -91
312 -109 395 -9 44 -22 96 -28 115 -6 19 -12 49 -13 65 -10 104 -15 225 -19
400 -2 110 -4 207 -4 216 -1 9 -10 19 -20 22 -16 4 -19 12 -16 36 8 61 63 242
100 326 7 17 23 53 35 80 81 187 250 465 394 650 17 22 36 47 43 55 6 8 44 56
85 105 137 168 141 174 93 170 -11 -1 -67 -5 -125 -9 -58 -4 -118 -8 -135 -10
-16 -2 -57 -7 -90 -11 -109 -12 -128 -15 -187 -31 -95 -24 -193 -62 -327 -126
-266 -127 -573 -236 -741 -263 -19 -3 -42 -8 -50 -10 -97 -28 -323 -36 -415
-15 -85 19 -218 100 -320 195 -233 217 -765 764 -802 824 -19 32 -182 114
-268 135 -89 23 -90 28 -61 171 8 37 9 72 4 91 -9 35 -62 94 -147 164 -167
138 -415 387 -456 459 -6 11 0 12 33 6 22 -3 42 -3 45 2 6 9 -18 63 -48 108
-21 31 -136 188 -158 215 -7 8 -37 47 -67 85 -30 39 -70 90 -90 114 -19 25
-28 41 -20 36 16 -9 92 -66 100 -75 12 -13 152 -112 230 -163 168 -108 304
-173 330 -157 17 11 -37 95 -161 251 -46 58 -95 121 -109 139 -14 18 -30 38
-35 44 -9 9 -203 257 -238 304 -6 7 -8 15 -5 17 2 3 71 -22 152 -55 82 -33
160 -60 175 -60 26 1 25 1 -15 38 -66 61 -171 153 -299 262 -66 57 -129 112
-140 122 -20 20 -20 20 3 13 13 -4 105 -46 205 -94 295 -142 477 -216 477
-193 0 4 -21 30 -46 57 -78 85 -117 150 -118 198 -1 40 1 42 39 55 50 16 64
34 58 75 -11 79 -149 314 -380 647 l-17 25 24 -20 c13 -11 40 -34 60 -52 225
-201 383 -305 469 -306 76 -1 184 81 197 149 8 41 0 64 -34 101 -32 36 -44 42
-147 78 -411 142 -542 198 -682 291 -285 189 -357 416 -221 688 116 233 289
404 489 485 78 31 105 35 254 35 208 0 310 -35 385 -129 36 -45 110 -195 163
-330 254 -648 273 -684 370 -705 66 -14 196 -36 267 -45 30 -4 62 -9 70 -10
35 -6 180 -18 235 -19 60 -1 60 -1 71 34 12 35 11 317 0 530 -7 117 -12 238
-21 440 -8 181 1 163 105 -221 100 -368 213 -769 233 -824 35 -96 38 -100 47
-85 6 8 10 33 10 55 0 33 37 261 54 330 2 11 12 53 21 93 9 41 21 70 25 65 5
-4 11 -37 15 -73 3 -36 8 -81 10 -100 2 -19 7 -71 10 -115 14 -193 21 -255 31
-264 9 -10 21 16 33 74 7 33 26 105 43 160 16 55 34 116 40 135 50 177 171
499 154 410 -7 -36 -20 -402 -19 -565 0 -96 4 -148 13 -165 l13 -24 33 39 c48
57 222 406 393 787 26 59 116 285 126 316 15 51 16 9 1 -85 -8 -54 -18 -127
-21 -163 -4 -36 -8 -72 -10 -80 -1 -8 -6 -44 -10 -80 -4 -36 -9 -72 -10 -80
-2 -8 -6 -44 -10 -80 -3 -36 -8 -76 -10 -90 -2 -14 -6 -54 -10 -90 -3 -36 -8
-81 -10 -100 -3 -19 -7 -64 -10 -100 -8 -93 -37 -286 -55 -370 -5 -25 -12 -56
-14 -70 -2 -14 -7 -36 -10 -50 -11 -46 -17 -85 -23 -142 -12 -114 26 -78 234
222 141 204 215 294 236 287 13 -4 16 -22 18 -125 1 -45 5 -84 9 -87 4 -2 38
4 76 15 98 28 120 27 132 -10 10 -26 4 -42 -47 -144 -63 -128 -64 -147 -9
-171 57 -23 267 -36 313 -19 63 23 223 172 301 279 10 15 24 32 29 39 6 6 25
30 44 54 18 24 35 41 37 40 1 -2 -13 -51 -32 -108 -19 -58 -37 -115 -40 -127
-2 -12 -9 -34 -14 -48 -25 -65 -2 -134 52 -156 112 -46 393 45 638 206 25 17
50 33 55 37 6 5 33 25 61 45 71 52 162 135 344 314 266 261 401 371 508 415
102 42 155 27 196 -58 32 -66 52 -171 55 -297 1 -20 10 -12 53 45 73 98 156
192 282 322 147 150 145 146 55 137 -90 -8 -105 -10 -200 -24 -41 -5 -96 -13
-124 -16 -48 -6 -73 -9 -147 -20 -131 -18 -443 -25 -548 -12 -97 12 -159 37
-205 83 -90 89 -48 222 124 395 109 109 222 195 536 407 294 199 289 195 225
187 -25 -3 -85 -14 -135 -25 -49 -10 -101 -21 -115 -24 -14 -2 -56 -11 -95
-19 -38 -9 -83 -17 -100 -20 -48 -8 -98 -16 -130 -23 -16 -4 -113 -8 -215 -9
-292 -5 -383 27 -449 157 -27 55 -34 80 -37 146 -7 167 73 342 289 624 80 105
61 82 246 306 162 196 180 221 159 223 -39 4 -112 -30 -328 -151 -399 -225
-499 -279 -645 -350 -223 -108 -304 -138 -393 -145 -79 -6 -114 16 -130 84 -8
34 -8 135 1 186 56 337 157 661 504 1625 41 114 83 239 83 249 0 2 -10 -4 -21
-15 -50 -44 -203 -248 -629 -834 -478 -658 -579 -788 -714 -925 l-89 -90 -13
30 c-10 22 -12 75 -9 205 3 96 7 191 9 210 2 19 7 67 10 105 4 39 9 84 11 100
3 17 7 50 10 75 5 51 17 141 41 295 2 17 11 66 19 110 8 44 17 96 20 115 3 19
15 73 25 120 17 75 19 102 6 89 -5 -5 -147 -290 -171 -344 -62 -136 -334 -681
-394 -789 -117 -209 -190 -306 -232 -306 -19 0 -67 57 -87 103 -18 42 -24 122
-27 342 -3 262 -3 261 -14 250 -5 -6 -58 -107 -119 -226 -60 -119 -129 -246
-151 -282 -48 -76 -102 -127 -128 -122 -10 2 -21 4 -25 4 -16 2 -49 63 -64
117 -8 33 -18 102 -21 154 -8 115 -8 484 -1 748 3 111 2 192 -4 192 -7 0 -33
-51 -93 -185 -8 -16 -26 -59 -40 -95 -31 -75 -45 -107 -74 -172 -12 -27 -37
-87 -57 -135 -128 -311 -274 -543 -342 -543 -25 0 -66 46 -90 102 -19 44 -60
194 -67 242 -1 12 -8 53 -15 91 -6 39 -13 86 -16 105 -2 19 -6 46 -9 60 -2 14
-7 53 -10 88 -4 35 -8 71 -10 80 -1 9 -6 46 -10 82 -3 36 -8 79 -10 95 -2 17
-6 62 -10 100 -3 39 -8 86 -10 105 -3 19 -7 64 -10 100 -3 36 -7 79 -9 95 -2
17 -7 68 -11 115 -4 47 -8 96 -10 110 -2 14 -6 57 -10 95 -3 39 -8 85 -10 102
-2 17 -7 61 -10 99 -7 73 -18 113 -27 98z m-263 -8217 c12 -12 54 -62 95 -112
41 -49 77 -92 80 -95 4 -3 33 -39 65 -80 33 -41 62 -77 65 -80 3 -3 32 -39 65
-80 82 -104 215 -232 294 -284 94 -63 152 -79 326 -93 170 -14 616 -6 644 11
3 2 23 7 43 10 20 3 61 15 90 27 29 12 73 29 98 38 25 9 64 29 88 44 55 36
146 77 169 77 15 0 15 2 3 10 -11 7 -4 13 30 28 25 11 81 36 125 55 44 19 89
37 99 39 11 1 30 13 43 25 25 22 103 53 135 53 10 0 18 7 18 15 0 8 9 15 20
15 11 0 20 5 20 10 0 6 7 10 16 10 9 0 37 7 63 15 114 36 158 48 191 51 19 1
60 5 90 9 31 3 67 2 80 -4 14 -5 19 -10 13 -10 -8 -1 -13 -14 -13 -31 0 -16
-4 -30 -9 -30 -5 0 -7 -8 -4 -19 2 -10 -2 -25 -10 -33 -8 -8 -18 -29 -22 -46
-3 -18 -11 -32 -17 -32 -6 0 -8 -6 -5 -13 7 -20 -27 -93 -47 -100 -10 -4 -15
-10 -12 -15 6 -10 -38 -118 -57 -140 -8 -10 -17 -29 -21 -44 -3 -16 -13 -28
-21 -28 -8 0 -15 -7 -15 -15 0 -21 -84 -178 -133 -249 -15 -21 -27 -43 -27
-48 0 -6 -7 -8 -15 -4 -11 4 -15 -2 -15 -20 0 -16 -12 -37 -30 -54 -16 -15
-30 -34 -30 -42 0 -7 -9 -28 -20 -46 -18 -29 -22 -31 -43 -21 -19 11 -20 10
-10 -2 9 -12 9 -20 -2 -39 -8 -14 -20 -37 -27 -52 -7 -15 -25 -32 -40 -37 -15
-6 -28 -12 -28 -15 0 -3 8 -2 18 1 15 6 15 5 3 -10 -7 -9 -20 -17 -27 -17 -8
0 -14 -7 -14 -16 0 -21 -35 -71 -82 -115 -21 -20 -38 -40 -38 -45 0 -14 -99
-114 -112 -114 -6 0 -5 -6 2 -15 8 -10 9 -15 2 -15 -12 0 -38 -24 -87 -81 -17
-19 -45 -45 -63 -57 -18 -13 -30 -27 -27 -32 7 -11 -74 -80 -95 -80 -8 0 -23
-15 -33 -32 -10 -18 -33 -44 -52 -57 -19 -13 -33 -27 -30 -31 5 -9 -19 -32
-27 -25 -2 3 -20 -11 -38 -30 -19 -19 -39 -35 -46 -35 -7 0 -15 -9 -19 -19 -3
-11 -16 -23 -27 -27 -12 -4 -30 -16 -40 -28 -10 -12 -17 -16 -18 -8 0 9 -11 7
-39 -7 -33 -17 -218 -71 -291 -85 -14 -3 -46 -9 -71 -14 -25 -5 -72 -8 -105
-7 -53 1 -67 5 -110 37 -55 40 -295 288 -401 414 -152 182 -223 282 -318 454
-32 58 -83 150 -113 205 -89 161 -346 680 -396 800 -7 17 -23 53 -35 80 -28
65 -38 131 -36 241 3 118 13 172 36 206 17 23 24 26 39 18 42 -23 130 -158
130 -201 0 -22 24 -41 42 -34 27 10 66 97 81 180 9 44 13 83 11 87 -11 17 12
6 31 -15z m-1559 -480 c77 -82 114 -140 171 -263 49 -106 118 -302 109 -311
-3 -3 -27 -8 -53 -11 -67 -6 -67 -12 0 -12 55 0 55 0 68 -37 13 -43 82 -184
104 -216 8 -12 15 -29 15 -39 0 -18 -68 -152 -101 -200 -11 -14 -19 -38 -19
-52 0 -28 -39 -76 -62 -76 -50 0 -163 -169 -254 -381 -50 -117 -152 -418 -169
-498 -15 -75 -28 -200 -27 -278 0 -35 -4 -53 -12 -53 -26 0 -119 54 -124 72
-3 15 -11 18 -31 13 -15 -3 -38 0 -52 7 -41 23 -83 51 -102 70 -10 10 -25 18
-35 18 -9 0 -28 9 -42 20 -24 18 -24 20 -7 32 15 11 16 19 8 39 -5 14 -16 32
-23 40 -8 8 -19 21 -24 31 -5 9 -56 67 -114 128 -58 62 -126 136 -153 164 -87
94 -184 256 -153 256 12 0 75 -43 85 -58 23 -36 175 -101 251 -108 30 -3 68
-10 84 -15 55 -17 58 -30 -81 306 -81 193 -138 381 -123 404 4 7 27 -4 61 -30
84 -64 165 -101 222 -102 42 -1 52 2 73 26 21 25 64 140 64 173 0 11 19 14 85
14 126 0 140 11 178 135 48 159 57 206 62 330 22 518 22 515 54 515 10 0 40
-24 67 -53z m4511 -2019 c-3 -8 -6 -5 -6 6 -1 11 2 17 5 13 3 -3 4 -12 1 -19z
m-10 -253 c2 -201 6 -242 24 -214 10 16 3 -71 -9 -116 -8 -30 -9 -29 -21 20
-6 28 -14 61 -18 75 -10 44 -12 323 -2 370 10 49 17 70 21 70 2 0 4 -92 5
-205z m-3156 -10 c57 -98 106 -210 109 -246 3 -39 1 -48 -18 -58 -27 -15 -149
-24 -156 -13 -3 6 -2 13 3 16 17 11 -8 157 -39 231 -32 75 -43 201 -18 216 14
9 70 -60 119 -146z m159 -388 c86 -30 272 -75 385 -92 68 -10 78 -15 64 -31
-6 -7 -15 -12 -19 -9 -5 3 -6 -3 -3 -13 4 -18 -31 -72 -48 -72 -6 0 -7 5 -3
12 4 6 3 8 -4 4 -6 -3 -9 -16 -7 -27 3 -13 0 -19 -8 -16 -6 2 -18 -4 -27 -14
-58 -66 -292 -53 -373 21 -50 44 -94 130 -92 175 1 11 2 32 3 47 2 33 29 62
46 50 6 -5 45 -21 86 -35z m2570 -201 c0 -2 -7 -6 -15 -10 -8 -3 -15 -1 -15 4
0 6 7 10 15 10 8 0 15 -2 15 -4z m-10 -60 c0 -3 -4 -8 -10 -11 -5 -3 -10 -1
-10 4 0 6 5 11 10 11 6 0 10 -2 10 -4z"/>
<path d="M14477 10453 c-4 -3 -7 -11 -7 -17 0 -6 5 -5 12 2 6 6 9 14 7 17 -3
3 -9 2 -12 -2z"/>
<path d="M13890 10280 c0 -5 7 -7 15 -4 8 4 15 8 15 10 0 2 -7 4 -15 4 -8 0
-15 -4 -15 -10z"/>
<path d="M11948 10123 c6 -2 18 -2 25 0 6 3 1 5 -13 5 -14 0 -19 -2 -12 -5z"/>
<path d="M13540 8941 c0 -5 5 -13 10 -16 6 -3 10 -2 10 4 0 5 -4 13 -10 16 -5
3 -10 2 -10 -4z"/>
<path d="M9415 8099 c-11 -17 1 -21 15 -4 8 9 8 15 2 15 -6 0 -14 -5 -17 -11z"/>
<path d="M11330 7552 c6 -13 14 -21 18 -18 3 4 -2 14 -12 24 -18 16 -18 16 -6
-6z"/>
<path d="M11380 7435 c0 -8 8 -15 18 -14 10 0 12 3 4 6 -6 2 -10 9 -6 14 3 5
0 9 -5 9 -6 0 -11 -7 -11 -15z"/>
<path d="M11710 7436 c0 -2 7 -9 15 -16 9 -7 15 -8 15 -2 0 5 -7 12 -15 16 -8
3 -15 4 -15 2z"/>
<path d="M12438 13845 c-2 -2 -25 -6 -52 -9 -99 -14 -239 -77 -306 -139 -43
-40 -100 -107 -100 -118 0 -6 23 6 51 26 120 86 211 117 344 118 99 0 168 -16
300 -69 44 -18 81 -31 83 -29 7 7 -73 119 -112 157 -22 22 -56 43 -80 49 -38
10 -122 19 -128 14z"/>
<path d="M16539 13408 c-68 -83 -189 -199 -251 -242 -99 -67 -130 -73 -387
-75 -263 -2 -279 -3 -308 -36 -20 -22 -22 -35 -22 -157 0 -73 -5 -156 -9 -185
-5 -29 -10 -86 -11 -127 -2 -70 -1 -76 23 -91 14 -10 32 -15 39 -12 8 3 19 2
25 -2 7 -4 -24 -42 -83 -100 -87 -85 -118 -131 -101 -148 15 -16 148 43 319
142 52 30 67 30 39 -1 -75 -82 -153 -178 -167 -204 -14 -27 -15 -34 -3 -41 16
-11 72 -3 153 22 33 10 79 21 103 25 82 13 55 -31 -144 -237 -127 -130 -182
-190 -247 -270 -87 -107 -129 -189 -96 -189 27 0 157 97 466 348 154 125 158
109 14 -63 -72 -87 -498 -519 -591 -600 -83 -72 -224 -181 -277 -213 -62 -37
-89 -49 -247 -108 -139 -52 -222 -89 -230 -103 -27 -43 78 -89 307 -136 12 -2
50 27 114 88 215 206 328 305 537 474 160 129 459 336 666 461 74 45 141 86
149 91 11 7 10 17 -9 55 l-22 47 31 62 c38 78 116 165 239 268 87 72 155 120
360 253 34 23 62 44 62 48 0 11 -49 35 -154 72 -143 52 -206 86 -262 142 -84
82 -81 136 8 188 41 23 102 39 198 51 25 3 56 8 70 10 28 5 81 12 152 20 58 6
160 21 213 31 17 3 52 12 78 21 40 12 48 19 45 36 -2 15 -19 28 -63 45 -82 33
-92 37 -160 62 -33 12 -73 28 -90 35 -16 6 -60 24 -96 39 -80 33 -173 102
-257 190 -35 36 -67 66 -72 66 -4 0 -28 -24 -51 -52z"/>
<path d="M14764 13300 c-28 -11 -78 -76 -69 -90 3 -6 34 -24 68 -42 34 -17 81
-44 104 -60 45 -30 193 -176 193 -189 0 -4 6 -14 13 -21 18 -19 58 -82 111
-173 l47 -80 -6 50 c-19 159 -135 387 -259 511 -84 83 -151 115 -202 94z"/>
<path d="M11800 13202 c0 -13 43 -75 82 -118 28 -31 114 -93 183 -132 37 -21
-7 -13 -104 19 -160 52 -241 95 -316 166 -17 15 -41 37 -54 48 l-24 20 17 -33
c19 -37 152 -175 208 -216 20 -15 83 -50 140 -78 121 -60 116 -66 -47 -63 -86
1 -108 5 -159 28 -32 15 -61 26 -63 23 -7 -7 59 -57 108 -82 27 -13 79 -31
116 -40 37 -8 70 -17 74 -20 4 -2 0 -34 -8 -71 -44 -203 62 -393 262 -468 39
-15 51 -17 125 -17 138 0 261 65 330 177 48 78 74 219 56 305 -11 50 -61 137
-108 186 -63 67 -138 100 -280 125 -248 43 -385 99 -484 197 -30 29 -54 49
-54 44z m424 -481 c8 -13 19 -81 19 -120 1 -95 -151 -105 -166 -11 -7 40 19
77 67 98 24 11 47 25 50 31 9 13 23 14 30 2z m-19 -241 c-3 -5 -10 -10 -16
-10 -5 0 -9 5 -9 10 0 6 7 10 16 10 8 0 12 -4 9 -10z"/>
<path d="M14050 12451 c-111 -37 -217 -127 -264 -222 -49 -102 -42 -261 17
-362 116 -198 382 -258 571 -128 62 43 94 84 138 179 27 56 44 82 56 82 9 0
46 -7 82 -16 88 -22 183 -26 206 -10 16 12 16 13 -7 12 -55 -4 -210 66 -279
125 l-35 30 70 -7 c204 -19 305 -6 493 63 63 23 44 27 -47 8 -83 -17 -177 -18
-265 -3 -67 11 -229 50 -238 57 -4 3 34 7 85 8 140 3 182 10 242 39 63 29 67
43 8 23 -68 -22 -211 -16 -338 14 -58 14 -91 25 -240 81 -75 28 -209 43 -255
27z m300 -326 c0 -7 14 -29 30 -50 40 -50 39 -80 -6 -121 -29 -28 -41 -33 -66
-29 -34 6 -54 23 -66 57 -12 31 4 85 28 98 11 6 20 16 20 22 0 6 7 19 16 29
17 19 44 15 44 -6z m-110 -206 c0 -5 -7 -9 -15 -9 -9 0 -12 6 -9 15 6 15 24
11 24 -6z"/>
<path d="M13140 11942 c-25 -9 -59 -25 -77 -34 -50 -28 -153 -117 -153 -134 0
-16 5 -16 115 11 100 24 171 29 208 14 28 -11 133 -82 147 -99 3 -3 22 -19 43
-34 31 -24 37 -26 37 -11 0 35 -77 162 -131 216 -53 53 -109 90 -133 88 -6 0
-31 -8 -56 -17z"/>
<path d="M12814 11545 c-56 -16 -100 -44 -112 -69 -18 -41 7 -108 61 -156 38
-34 159 -96 237 -121 48 -15 55 -20 53 -42 -2 -36 -76 -148 -126 -192 -90 -80
-233 -114 -358 -85 -197 46 -306 195 -325 446 -7 93 -11 125 -19 132 -5 5 -6
-9 -9 -138 -4 -123 49 -273 125 -355 50 -54 106 -89 178 -111 33 -9 57 -24 68
-40 14 -22 43 -125 59 -209 21 -114 103 -200 209 -221 129 -25 200 19 283 175
24 44 54 89 68 100 25 20 34 20 124 0 118 -27 277 -16 360 24 88 42 182 149
233 263 41 92 32 106 -12 20 -115 -223 -227 -297 -441 -290 -168 5 -259 41
-321 127 -53 73 -62 103 -67 238 l-4 126 133 0 c148 -1 202 10 249 49 90 77
-33 221 -250 293 -143 47 -310 62 -396 36z m236 -512 c2 -78 27 -173 64 -232
l37 -61 -29 -43 c-17 -23 -46 -68 -65 -99 -59 -93 -96 -128 -162 -149 -15 -5
-16 -7 -4 -8 56 -3 116 49 201 174 56 81 96 115 110 92 3 -6 -8 -32 -26 -57
-18 -25 -47 -70 -64 -101 -33 -59 -75 -108 -116 -134 -31 -20 -141 -13 -200
14 -83 37 -108 78 -146 238 -12 48 -28 105 -35 125 -10 26 -11 39 -4 44 23 14
52 -37 86 -152 37 -128 64 -179 112 -214 40 -28 40 -16 0 18 -39 32 -64 88
-99 220 -19 72 -24 105 -16 111 6 5 38 16 71 26 105 29 210 105 251 180 22 42
34 45 34 8z"/>
<path d="M18918 11515 c-2 -1 -37 -6 -77 -9 -41 -4 -95 -11 -120 -16 -26 -5
-66 -11 -91 -15 -63 -9 -281 -59 -367 -84 -40 -12 -103 -30 -140 -41 -121 -34
-346 -119 -548 -205 -136 -57 -598 -285 -592 -292 3 -2 78 29 168 70 174 78
359 152 604 241 223 80 288 106 305 120 8 7 33 18 55 24 22 6 110 31 195 57
173 51 180 53 230 61 19 3 41 7 48 10 8 2 37 7 65 10 29 4 75 10 102 14 64 11
300 9 343 -2 18 -5 30 -13 27 -18 -3 -4 9 -12 27 -16 18 -3 56 -17 83 -29 28
-13 92 -40 143 -60 50 -21 92 -42 92 -47 0 -5 -10 -6 -22 -3 l-23 7 23 -17
c13 -9 30 -14 38 -11 8 3 17 -1 20 -9 4 -8 15 -15 26 -15 12 0 23 -11 29 -30
10 -28 29 -42 29 -20 0 15 82 -26 101 -51 10 -14 28 -23 48 -24 20 -1 37 -9
47 -23 18 -26 52 -29 69 -6 11 16 14 15 41 -4 16 -12 48 -23 71 -26 31 -3 49
-12 72 -38 17 -18 31 -36 31 -40 0 -4 13 -29 29 -55 36 -60 66 -144 91 -259
15 -70 18 -117 15 -224 -2 -74 -6 -148 -9 -165 -9 -40 -15 -75 -21 -104 -2
-13 -14 -60 -26 -105 -22 -84 -34 -246 -19 -246 5 0 -2 -16 -15 -36 -14 -20
-25 -48 -25 -63 l0 -25 17 24 c38 53 102 211 146 355 52 172 67 452 32 600
-20 85 -29 117 -55 184 -128 331 -414 558 -790 626 -14 3 -36 7 -50 9 -76 15
-121 18 -287 21 -100 1 -184 1 -185 0z m912 -405 c0 -5 -9 -10 -20 -10 -11 0
-20 5 -20 10 0 6 9 10 20 10 11 0 20 -4 20 -10z"/>
<path d="M14615 10900 c3 -5 8 -10 11 -10 2 0 4 5 4 10 0 6 -5 10 -11 10 -5 0
-7 -4 -4 -10z"/>
<path d="M21594 9795 c-74 -25 -105 -51 -110 -91 -8 -75 135 -234 211 -234 37
0 112 29 157 61 38 27 88 96 88 121 0 29 -77 105 -134 132 -72 35 -132 38
-212 11z"/>
<path d="M19661 9724 c-11 -15 -21 -33 -21 -41 0 -8 -4 -12 -9 -8 -5 3 -12 1
-15 -4 -9 -14 11 -23 34 -16 16 5 18 10 10 26 -9 15 -7 19 6 19 10 0 14 3 11
7 -4 3 -2 12 5 20 6 7 8 16 6 19 -3 3 -15 -7 -27 -22z"/>
<path d="M21144 9740 c-63 -25 -158 -219 -179 -366 -2 -16 -7 -49 -11 -74 -20
-127 -1 -280 39 -301 25 -14 115 -13 170 1 131 35 338 182 373 265 18 43 1
110 -47 191 -48 81 -202 236 -266 268 -29 14 -54 26 -55 25 -2 0 -13 -4 -24
-9z"/>
<path d="M19650 9633 c-8 -13 -13 -14 -16 -5 -10 23 -30 12 -43 -23 -7 -19
-16 -35 -20 -35 -4 0 -13 -12 -20 -27 -13 -29 -91 -154 -101 -163 -4 -3 -26
-32 -51 -65 -24 -33 -56 -73 -70 -90 -200 -231 -398 -420 -664 -635 -147 -119
-218 -180 -210 -180 4 0 20 10 35 23 15 12 40 31 54 41 15 11 37 28 48 38 12
10 25 18 30 18 4 0 16 7 26 16 9 8 90 70 180 137 90 67 181 135 203 151 21 17
39 36 39 43 0 7 4 13 9 13 5 0 23 12 40 26 17 14 31 23 31 20 0 -11 58 50 70
74 8 15 15 20 18 12 5 -16 304 284 322 325 8 17 22 34 31 36 8 2 32 34 53 71
20 36 42 66 48 66 6 0 7 7 2 18 -4 9 -8 37 -8 61 -1 48 -17 63 -36 34z m-920
-1017 c0 -3 -4 -8 -10 -11 -5 -3 -10 -1 -10 4 0 6 5 11 10 11 6 0 10 -2 10 -4z"/>
<path d="M21947 9465 c-76 -28 -207 -130 -207 -162 0 -26 85 -63 185 -81 51
-9 247 -9 305 0 25 4 77 10 115 14 39 3 76 9 84 14 15 8 19 7 -70 30 -34 9
-71 33 -141 95 -124 107 -176 124 -271 90z"/>
<path d="M21743 9167 c-35 -15 -48 -51 -33 -89 30 -76 105 -190 140 -211 50
-31 155 -31 275 1 22 6 65 12 95 13 78 2 130 10 130 20 0 5 -8 9 -17 9 -24 1
-97 44 -175 104 -64 49 -148 96 -222 123 -65 24 -170 41 -193 30z"/>
<path d="M21535 9019 c-108 -19 -238 -94 -251 -144 -4 -16 0 -35 10 -50 28
-43 126 -112 183 -130 125 -39 268 18 265 106 -1 36 -47 130 -88 178 -37 43
-60 50 -119 40z"/>
<path d="M5678 8945 c-2 -2 -25 -5 -53 -8 -69 -9 -91 -35 -94 -115 -5 -156
110 -461 216 -569 41 -41 55 -48 97 -43 81 8 205 174 267 353 34 99 41 155 25
186 -40 75 -233 168 -393 189 -35 5 -64 8 -65 7z"/>
<path d="M6965 8863 c-34 -9 -72 -11 -120 -6 -149 15 -303 -6 -411 -57 -70
-34 -94 -66 -76 -105 16 -36 221 -135 264 -128 65 10 124 48 209 134 47 48 99
94 115 102 30 15 81 64 73 70 -2 2 -26 -3 -54 -10z"/>
<path d="M6295 8533 c-52 -39 -122 -129 -145 -190 -23 -62 -23 -58 -6 -92 11
-21 26 -31 53 -36 175 -34 305 12 364 127 41 80 18 122 -93 177 -94 46 -125
49 -173 14z"/>
<path d="M18940 8515 c-7 -8 -8 -15 -2 -15 5 0 15 7 22 15 7 8 8 15 2 15 -5 0
-15 -7 -22 -15z"/>
<path d="M2590 8222 c-73 -47 -142 -147 -135 -195 13 -77 218 -148 302 -104
71 38 127 147 122 241 -3 42 -7 49 -33 64 -20 10 -64 17 -121 20 -86 3 -92 2
-135 -26z"/>
<path d="M18189 8233 c-13 -16 -12 -17 4 -4 9 7 17 15 17 17 0 8 -8 3 -21 -13z"/>
<path d="M18131 8187 c-13 -21 -12 -21 5 -5 10 10 16 20 13 22 -3 3 -11 -5
-18 -17z"/>
<path d="M3452 8141 c-55 -18 -77 -18 -197 -5 -127 13 -171 9 -216 -20 -62
-42 -125 -155 -143 -257 -10 -58 27 -69 126 -39 110 33 234 107 324 192 27 26
77 69 110 94 32 25 61 48 63 50 7 7 -12 3 -67 -15z"/>
<path d="M17870 8025 c-7 -9 -8 -15 -2 -15 5 0 12 7 16 15 3 8 4 15 2 15 -2 0
-9 -7 -16 -15z"/>
<path d="M18905 7939 c-82 -11 -171 -51 -181 -81 -29 -92 131 -267 234 -255
70 8 178 79 206 136 16 32 9 58 -24 97 -67 79 -150 115 -235 103z"/>
<path d="M2192 7865 c-42 -18 -53 -50 -48 -138 12 -203 153 -519 257 -573 34
-17 34 -17 79 6 113 58 255 303 274 470 8 76 -61 139 -212 196 -131 50 -287
67 -350 39z"/>
<path d="M18370 7863 c-18 -4 -73 -82 -96 -138 -18 -44 -69 -218 -79 -268 -3
-18 -8 -81 -10 -140 -4 -92 -2 -114 14 -145 43 -84 131 -83 305 3 184 90 279
178 279 258 0 101 -157 321 -281 394 -44 26 -103 42 -132 36z"/>
<path d="M3588 7805 c-2 -3 -90 -7 -194 -10 -104 -3 -207 -8 -229 -11 -91 -14
-205 -78 -205 -116 0 -48 160 -147 252 -156 80 -7 131 26 272 177 21 22 43 41
48 41 14 0 87 53 92 68 5 11 -25 18 -36 7z"/>
<path d="M19165 7581 c-93 -44 -187 -117 -183 -143 7 -48 182 -101 333 -102
60 0 152 11 166 20 4 2 34 7 66 10 135 13 146 17 82 34 -24 6 -51 13 -59 15
-8 3 -33 21 -55 40 -180 161 -236 181 -350 126z"/>
<path d="M11005 7520 l-20 -9 20 0 c11 0 29 4 40 9 l20 9 -20 0 c-11 0 -29 -4
-40 -9z"/>
<path d="M2934 7495 c-60 -25 -167 -163 -180 -231 -17 -93 23 -118 180 -112
95 4 116 8 146 27 52 35 99 103 106 153 7 53 -8 71 -100 123 -86 48 -116 56
-152 40z"/>
<path d="M10860 7480 c-12 -8 -12 -10 5 -10 11 0 27 5 35 10 12 8 12 10 -5 10
-11 0 -27 -5 -35 -10z"/>
<path d="M10786 7462 c-3 -5 1 -9 9 -9 8 0 12 4 9 9 -3 4 -7 8 -9 8 -2 0 -6
-4 -9 -8z"/>
<path d="M10545 7423 c28 -38 30 -40 36 -20 4 16 0 24 -15 30 -11 4 -27 13
-35 20 -8 7 -2 -7 14 -30z"/>
<path d="M10668 7433 c7 -3 16 -2 19 1 4 3 -2 6 -13 5 -11 0 -14 -3 -6 -6z"/>
<path d="M18990 7290 c-54 -8 -60 -41 -21 -121 59 -121 97 -170 146 -189 38
-14 200 -2 271 21 17 5 62 11 100 13 38 3 75 5 82 5 23 2 12 17 -23 29 -19 7
-62 33 -96 59 -185 136 -346 200 -459 183z"/>
<path d="M11496 7248 c39 -43 45 -48 85 -83 18 -16 3 3 -36 43 -69 71 -106
101 -49 40z"/>
<path d="M9250 7165 c0 -8 5 -15 10 -15 6 0 10 7 10 15 0 8 -4 15 -10 15 -5 0
-10 -7 -10 -15z"/>
<path d="M18735 7135 c-105 -25 -215 -96 -215 -140 0 -78 163 -188 280 -188
92 0 180 57 180 117 0 36 -62 165 -95 196 -28 26 -81 32 -150 15z"/>
<path d="M9841 7114 c0 -11 3 -14 6 -6 3 7 2 16 -1 19 -3 4 -6 -2 -5 -13z"/>
<path d="M4873 7109 c-40 -8 -65 -25 -120 -78 -45 -44 -83 -107 -83 -139 0
-61 108 -119 235 -127 l69 -4 46 47 c65 68 97 167 77 244 -5 19 -18 30 -49 42
-50 18 -129 25 -175 15z"/>
<path d="M11660 7095 c13 -14 26 -25 28 -25 3 0 -5 11 -18 25 -13 14 -26 25
-28 25 -3 0 5 -11 18 -25z"/>
<path d="M12428 7113 c7 -3 16 -2 19 1 4 3 -2 6 -13 5 -11 0 -14 -3 -6 -6z"/>
<path d="M13991 7040 c-1 -21 52 -170 61 -170 3 0 2 17 -4 38 -9 34 -15 49
-46 122 -6 14 -11 18 -11 10z"/>
<path d="M12637 7009 c7 -7 15 -10 18 -7 3 3 -2 9 -12 12 -14 6 -15 5 -6 -5z"/>
<path d="M14500 7017 c0 -2 15 -16 33 -33 l32 -29 -29 33 c-28 30 -36 37 -36
29z"/>
<path d="M5660 6993 c-26 -11 -53 -14 -105 -9 -191 18 -240 18 -277 3 -41 -17
-87 -75 -122 -152 -21 -46 -29 -70 -41 -132 -12 -65 65 -62 230 9 99 43 155
83 288 208 32 30 65 58 73 63 17 10 19 27 2 26 -7 0 -29 -8 -48 -16z"/>
<path d="M12095 6974 l-30 -25 33 17 c17 10 32 22 32 26 0 12 -2 11 -35 -18z"/>
<path d="M23447 6978 c-57 -12 -132 -54 -144 -80 -5 -12 -8 -34 -6 -48 10 -68
113 -179 185 -202 62 -19 167 26 235 102 47 51 42 90 -18 151 -66 68 -161 97
-252 77z"/>
<path d="M11996 6942 c-3 -5 1 -9 9 -9 8 0 12 4 9 9 -3 4 -7 8 -9 8 -2 0 -6
-4 -9 -8z"/>
<path d="M22938 6892 c-96 -49 -216 -477 -176 -632 17 -67 30 -89 56 -98 56
-19 174 4 267 51 124 64 257 177 271 232 25 99 -156 363 -298 436 -56 29 -79
31 -120 11z"/>
<path d="M14660 6841 c0 -5 7 -12 16 -15 14 -5 15 -4 4 9 -14 17 -20 19 -20 6z"/>
<path d="M16078 6833 c7 -3 16 -2 19 1 4 3 -2 6 -13 5 -11 0 -14 -3 -6 -6z"/>
<path d="M12690 6820 c0 -5 5 -10 10 -10 6 0 10 5 10 10 0 6 -4 10 -10 10 -5
0 -10 -4 -10 -10z"/>
<path d="M16015 6820 c3 -5 8 -10 11 -10 2 0 4 5 4 10 0 6 -5 10 -11 10 -5 0
-7 -4 -4 -10z"/>
<path d="M15898 6803 c7 -3 16 -2 19 1 4 3 -2 6 -13 5 -11 0 -14 -3 -6 -6z"/>
<path d="M4431 6730 c-63 -21 -73 -44 -67 -150 10 -171 111 -424 213 -529 48
-50 54 -53 88 -48 131 21 305 306 305 498 0 53 -3 59 -35 88 -67 58 -209 120
-328 142 -91 16 -125 16 -176 -1z"/>
<path d="M14720 6741 c0 -5 6 -14 14 -20 12 -10 13 -8 9 8 -5 21 -23 30 -23
12z"/>
<path d="M14140 6714 c0 -6 7 -19 16 -30 14 -18 14 -18 3 6 -14 31 -19 36 -19
24z"/>
<path d="M5815 6659 c-16 -5 -102 -7 -190 -5 -171 4 -255 -8 -356 -53 -46 -21
-99 -65 -99 -84 0 -21 75 -78 148 -114 105 -52 166 -52 237 -3 47 32 132 113
165 156 8 11 29 26 46 33 31 12 92 67 83 74 -2 2 -17 0 -34 -4z"/>
<path d="M23735 6624 c-59 -31 -130 -81 -167 -121 l-28 -29 41 -26 c53 -34
202 -69 298 -70 42 -1 121 7 176 16 55 9 111 18 125 20 14 3 34 5 45 5 29 1 6
18 -33 24 -35 6 -88 37 -132 79 -46 43 -115 95 -147 112 -48 24 -119 20 -178
-10z"/>
<path d="M14280 6505 c19 -21 41 -45 48 -53 6 -7 12 -10 12 -5 -1 10 -48 62
-75 83 -11 8 -4 -3 15 -25z"/>
<path d="M14712 6484 c-7 -14 -8 -23 -2 -19 15 9 32 45 22 45 -5 0 -14 -12
-20 -26z"/>
<path d="M14670 6425 c-7 -9 -8 -15 -2 -15 5 0 12 7 16 15 3 8 4 15 2 15 -2 0
-9 -7 -16 -15z"/>
<path d="M11120 6417 c0 -16 33 -87 40 -87 5 0 -1 19 -12 43 -21 44 -28 55
-28 44z"/>
<path d="M13790 6409 c0 -8 12 -27 26 -44 l26 -30 -23 40 c-28 51 -29 51 -29
34z"/>
<path d="M14435 6370 c3 -5 11 -10 16 -10 6 0 7 5 4 10 -3 6 -11 10 -16 10 -6
0 -7 -4 -4 -10z"/>
<path d="M5128 6335 c-84 -57 -177 -214 -161 -274 3 -12 20 -29 37 -38 43 -23
193 -26 252 -6 58 20 118 76 144 136 l22 49 -25 37 c-17 25 -48 50 -97 75 -89
47 -127 52 -172 21z"/>
<path d="M23565 6337 c-57 -19 -59 -51 -9 -150 68 -136 107 -169 206 -172 61
-2 112 5 188 26 25 6 74 13 110 14 92 4 90 4 90 14 0 5 -15 15 -34 21 -19 6
-72 39 -118 73 -123 92 -224 142 -346 170 -40 9 -67 10 -87 4z"/>
<path d="M12890 6320 c0 -5 5 -10 11 -10 5 0 7 5 4 10 -3 6 -8 10 -11 10 -2 0
-4 -4 -4 -10z"/>
<path d="M13860 6295 c13 -14 26 -25 28 -25 3 0 -5 11 -18 25 -13 14 -26 25
-28 25 -3 0 5 -11 18 -25z"/>
<path d="M14044 6288 l-19 -23 23 19 c21 18 27 26 19 26 -2 0 -12 -10 -23 -22z"/>
<path d="M23305 6175 c-64 -15 -157 -60 -183 -88 -37 -40 -33 -78 16 -126 53
-53 93 -79 154 -100 92 -30 177 -11 241 56 24 26 26 34 20 64 -10 42 -76 171
-96 187 -21 18 -94 21 -152 7z"/>
<path d="M12890 6139 c0 -5 5 -7 10 -4 6 3 10 8 10 11 0 2 -4 4 -10 4 -5 0
-10 -5 -10 -11z"/>
<path d="M12876 6085 c-9 -26 -7 -32 5 -12 6 10 9 21 6 23 -2 3 -7 -2 -11 -11z"/>
<path d="M11361 5953 c59 -105 79 -145 74 -153 -3 -4 4 -10 15 -13 11 -3 20
-10 20 -15 0 -6 -9 -8 -20 -5 -11 3 -20 1 -20 -4 0 -6 -23 -36 -50 -67 l-50
-58 31 -39 c26 -33 35 -38 57 -33 15 3 38 14 52 23 14 10 43 21 65 24 22 4 52
9 67 12 18 4 49 -7 102 -35 41 -22 78 -40 82 -40 4 0 -29 23 -72 51 -127 83
-276 238 -347 362 -15 26 -30 47 -33 47 -3 0 10 -26 27 -57z m244 -293 c3 -5
2 -10 -4 -10 -5 0 -13 5 -16 10 -3 6 -2 10 4 10 5 0 13 -4 16 -10z"/>
<path d="M2810 5993 c-52 -7 -70 -14 -95 -37 -30 -28 -47 -79 -38 -115 15 -63
33 -82 118 -121 106 -50 341 -150 470 -202 55 -22 119 -50 142 -64 55 -32 183
-133 254 -201 109 -104 173 -137 222 -111 23 12 22 35 -7 112 -14 35 -22 74
-19 86 5 19 10 21 41 15 20 -4 89 -36 154 -72 104 -58 124 -65 179 -67 77 -3
109 3 109 20 0 24 -92 102 -170 144 -83 45 -150 95 -150 112 0 12 143 4 195
-10 45 -13 198 -6 230 11 l28 14 -54 40 c-69 52 -108 71 -156 79 -87 13 -199
46 -217 64 -19 18 -18 19 10 47 17 17 69 45 125 66 53 21 106 48 119 61 l22
25 -25 25 c-15 14 -32 27 -39 27 -96 9 -172 -3 -270 -40 -54 -21 -60 -21 -115
-7 -72 18 -188 33 -318 41 -147 8 -231 17 -335 35 -109 19 -340 31 -410 23z"/>
<path d="M12767 5934 c-51 -50 -57 -60 -28 -45 18 10 88 91 78 91 -2 0 -25
-21 -50 -46z"/>
<path d="M16900 5901 c-30 -10 -80 -32 -111 -50 -32 -17 -68 -34 -80 -37 -33
-7 -123 -6 -165 2 -98 18 -138 6 -168 -54 -23 -45 -3 -87 54 -117 23 -12 130
-38 215 -52 67 -11 218 -53 248 -69 18 -9 43 -22 57 -30 29 -15 80 -25 91 -18
19 11 -15 66 -53 85 -83 42 -15 56 93 19 30 -10 64 -17 75 -15 10 2 25 4 32 4
10 1 10 6 2 22 -15 28 -69 49 -124 49 -35 0 -48 5 -56 20 -6 11 -8 24 -5 29 6
11 81 4 106 -10 25 -13 70 -11 98 5 l23 13 -30 22 c-22 15 -51 23 -104 27 -87
7 -105 19 -51 33 50 14 107 51 111 74 3 14 -4 17 -35 17 -21 -1 -56 -8 -78
-16 -122 -47 -141 -43 -76 12 23 20 39 39 36 42 -12 13 -52 10 -105 -7z"/>
<path d="M12665 5870 c-3 -5 -2 -10 4 -10 5 0 13 5 16 10 3 6 2 10 -4 10 -5 0
-13 -4 -16 -10z"/>
<path d="M14801 5769 c-42 -44 -73 -69 -80 -65 -8 5 -6 15 8 34 26 37 30 65
10 70 -22 4 -99 -68 -162 -152 -55 -73 -85 -94 -204 -140 -72 -27 -123 -70
-123 -102 0 -46 69 -110 104 -98 6 1 27 5 47 8 20 3 94 21 165 40 155 42 167
45 269 51 85 6 155 21 155 33 0 18 -79 47 -137 51 -22 2 -14 21 12 31 26 10
50 15 115 26 38 6 90 33 90 46 0 5 -12 13 -27 19 -21 8 -38 6 -73 -6 -90 -33
-129 -30 -114 9 6 16 19 21 74 30 52 9 110 45 110 69 0 14 -99 3 -140 -15 -19
-9 -45 -19 -58 -23 -22 -6 -22 -5 -10 14 7 12 16 21 20 21 13 0 66 82 64 98
-2 9 -13 18 -25 20 -17 3 -39 -14 -90 -69z"/>
<path d="M18465 5706 c-37 -16 -66 -56 -60 -84 10 -53 43 -83 230 -209 114
-77 149 -107 239 -202 21 -23 46 -41 56 -41 30 0 17 67 -22 107 -17 18 -30 33
-27 34 2 0 13 2 23 4 21 4 54 -15 106 -62 41 -39 83 -58 106 -49 15 6 15 8 -1
26 -10 11 -15 20 -10 20 18 0 -22 32 -69 56 -55 28 -67 40 -59 61 8 21 33 15
89 -23 52 -36 113 -50 121 -27 4 12 -53 73 -69 73 -16 0 -98 42 -98 51 0 5 26
7 58 6 61 -4 112 10 112 29 0 24 -33 36 -120 43 -114 10 -126 18 -50 35 14 3
32 10 40 16 13 9 13 11 0 20 -34 23 -97 32 -170 25 -129 -13 -138 -12 -258 48
-62 32 -118 57 -125 57 -7 -1 -26 -7 -42 -14z"/>
<path d="M15949 5265 c-78 -56 -126 -79 -276 -134 -264 -97 -292 -116 -279
-186 8 -41 51 -75 95 -75 17 0 68 10 113 21 96 25 168 22 241 -11 75 -34 152
-45 195 -29 l27 10 -40 25 c-22 13 -44 26 -50 28 -7 2 -7 7 0 14 7 8 27 7 71
-3 94 -22 107 -23 133 -14 23 9 23 10 5 30 -27 30 -48 39 -102 46 -26 3 -49 7
-51 9 -7 6 52 25 94 30 39 6 115 48 115 65 0 21 -74 21 -124 0 -55 -23 -91
-27 -101 -11 -8 12 30 50 53 51 44 2 69 12 97 40 25 25 28 31 15 39 -19 13
-44 7 -123 -30 -36 -17 -75 -30 -86 -30 -31 0 -26 27 9 45 32 17 50 43 50 74
0 29 -38 27 -81 -4z"/>
<path d="M6581 4953 c-19 -10 -44 -31 -55 -46 -27 -36 -28 -112 -3 -150 20
-31 124 -83 352 -177 305 -126 348 -146 430 -202 39 -26 108 -82 154 -125 125
-116 166 -143 218 -143 58 0 62 15 29 114 -14 44 -26 87 -26 94 0 24 59 12
136 -29 201 -104 190 -100 266 -100 39 0 75 4 81 10 21 21 -70 103 -182 162
-70 38 -140 93 -129 104 11 12 168 2 190 -11 4 -3 43 -5 87 -5 81 0 161 15
161 30 0 12 -53 56 -103 85 -25 15 -87 34 -152 46 -150 30 -187 52 -157 96 10
14 75 48 147 75 66 25 125 63 125 82 0 25 -63 51 -127 53 -64 3 -121 -9 -211
-44 -41 -16 -60 -18 -85 -11 -18 5 -45 12 -62 15 -16 2 -37 7 -45 9 -15 4
-129 14 -226 20 -72 5 -182 15 -229 20 -74 10 -190 26 -220 31 -16 2 -97 7
-180 10 -132 5 -154 3 -184 -13z"/>
<path d="M17255 4902 c-52 -12 -84 -56 -76 -107 7 -44 63 -77 162 -95 86 -16
143 -49 219 -126 64 -65 106 -96 148 -109 30 -9 28 7 -8 61 -28 39 -29 44 -12
44 10 0 45 -22 76 -50 82 -72 118 -85 124 -45 3 24 -29 62 -83 98 l-40 27 38
0 c21 0 54 -7 74 -15 42 -18 62 -19 99 -5 26 10 26 11 9 30 -17 19 -40 26
-115 34 -49 6 -70 16 -70 32 0 23 41 33 85 20 44 -13 47 -13 93 -2 37 9 43 33
10 41 -35 8 -88 14 -139 14 -53 1 -93 24 -69 41 8 5 26 10 39 10 27 0 87 34
94 53 7 19 -36 23 -188 15 -86 -4 -193 5 -305 27 -40 8 -143 13 -165 7z"/>
<path d="M18849 4547 c-43 -33 -44 -105 -2 -149 35 -36 122 -72 129 -53 3 7
12 11 21 8 8 -3 18 -1 22 5 4 7 47 13 104 15 53 2 99 6 103 9 8 8 -219 150
-246 154 -3 0 -23 6 -45 12 -50 15 -66 15 -86 -1z m111 -187 c0 -5 -2 -10 -4
-10 -3 0 -8 5 -11 10 -3 6 -1 10 4 10 6 0 11 -4 11 -10z"/>
<path d="M19026 4336 c-10 -16 -12 -25 -5 -21 9 6 11 2 7 -13 -7 -25 9 -41 18
-19 3 8 4 30 2 48 l-3 33 -19 -28z"/>
<path d="M19274 4351 c3 -5 16 -11 28 -14 22 -6 22 -5 4 8 -22 17 -40 20 -32
6z"/>
<path d="M19305 4310 c-3 -5 1 -10 9 -10 8 0 18 5 21 10 3 6 -1 10 -9 10 -8 0
-18 -4 -21 -10z"/>
<path d="M19384 4312 c4 -7 18 -12 32 -12 14 0 35 -5 47 -11 20 -10 21 -10 6
5 -18 20 -96 36 -85 18z"/>
<path d="M19291 4278 c-15 -5 -21 -13 -17 -24 3 -9 6 -20 6 -25 0 -6 5 -7 10
-4 6 4 8 15 5 26 -4 10 -2 19 3 19 14 0 21 -23 15 -53 -5 -28 20 -66 32 -47 3
5 16 10 28 10 20 0 20 1 4 17 -13 13 -19 15 -29 5 -15 -15 -28 -16 -28 -2 0 6
7 10 15 10 12 0 14 7 9 27 -10 40 -25 52 -53 41z"/>
<path d="M19350 4281 c0 -11 109 -36 117 -27 11 11 -18 26 -52 27 -16 0 -38 2
-47 4 -10 2 -18 0 -18 -4z"/>
<path d="M19056 4255 c-3 -9 1 -26 9 -38 l15 -21 0 24 c0 35 -15 57 -24 35z"/>
<path d="M19106 4251 c-4 -5 -9 -30 -12 -54 -5 -37 -2 -53 16 -82 12 -20 20
-39 17 -42 -4 -3 0 -18 9 -34 14 -29 51 -55 62 -45 3 3 0 6 -6 6 -6 0 -10 13
-10 28 1 16 -4 37 -11 48 -11 18 -12 18 -6 -2 4 -14 0 -24 -10 -28 -11 -4 -15
1 -15 20 0 14 -7 39 -16 55 -10 21 -14 48 -11 85 4 54 3 62 -7 45z"/>
<path d="M19130 4219 c0 -5 5 -7 10 -4 6 3 10 8 10 11 0 2 -4 4 -10 4 -5 0
-10 -5 -10 -11z"/>
<path d="M19120 4165 c0 -8 5 -15 10 -15 6 0 10 7 10 15 0 8 -4 15 -10 15 -5
0 -10 -7 -10 -15z"/>
<path d="M19286 4161 c-4 -6 -24 -12 -44 -12 -20 -1 -29 -3 -20 -6 17 -4 34
-40 24 -50 -3 -3 -11 -1 -18 4 -45 35 -41 14 7 -32 51 -50 57 -60 32 -56 -5 1
-7 -4 -5 -11 3 -7 15 -12 27 -10 20 3 21 2 9 -18 -11 -18 -10 -23 6 -35 21
-16 51 -2 39 18 -5 8 -8 7 -11 -1 -2 -7 -11 -12 -19 -12 -11 0 -13 5 -8 18 14
31 5 65 -22 94 -59 61 24 52 96 -11 15 -13 27 -17 31 -11 4 6 16 0 30 -15 13
-14 31 -25 39 -24 11 0 12 2 3 6 -6 2 -10 8 -7 13 3 5 -4 11 -14 15 -11 3 -23
15 -26 26 -7 20 -25 27 -25 9 0 -5 -4 -10 -10 -10 -5 0 -7 6 -5 13 3 7 -11 21
-31 32 -21 11 -45 33 -55 48 -10 17 -19 24 -23 18z m32 -46 c29 -33 28 -39 -2
-19 -21 13 -32 17 -66 23 -8 2 24 21 36 21 6 0 20 -11 32 -25z"/>
<path d="M19410 4160 c0 -7 7 -10 15 -6 11 4 19 -3 25 -19 5 -14 14 -25 19
-25 5 0 16 -3 25 -6 11 -4 16 -1 16 11 0 9 5 13 10 10 6 -3 10 -1 10 5 0 8 -7
9 -17 5 -10 -4 -27 -9 -38 -12 -20 -4 -20 -4 -1 11 24 19 19 25 -28 33 -25 4
-36 2 -36 -7z"/>
<path d="M10351 4126 c-42 -15 -90 -62 -93 -90 -1 -12 -2 -30 -3 -41 -3 -38
36 -91 88 -123 29 -16 120 -58 202 -92 449 -185 517 -223 713 -405 85 -79 131
-106 172 -103 30 3 35 7 38 31 2 16 -6 60 -18 99 -39 129 -16 131 188 14 99
-56 107 -59 178 -61 45 -1 81 3 91 10 14 11 12 17 -25 57 -22 24 -54 50 -69
58 -50 26 -167 99 -192 121 -21 17 -22 22 -10 30 7 5 28 7 44 5 17 -3 83 -8
148 -12 128 -7 227 1 227 18 0 16 -68 76 -111 98 -20 10 -77 26 -127 35 -198
34 -231 82 -97 140 33 15 69 30 80 35 139 58 156 84 77 117 -70 29 -123 28
-224 -6 -112 -38 -131 -41 -183 -29 -22 6 -51 12 -64 14 -14 3 -28 7 -31 9 -7
4 -81 10 -255 20 -104 6 -185 13 -235 21 -19 3 -48 7 -65 9 -16 3 -46 7 -65
10 -19 3 -51 8 -70 11 -79 12 -276 12 -309 0z"/>
<path d="M4300 3756 c-72 -21 -213 -58 -240 -63 -55 -11 -266 -6 -467 12 -29
3 -74 7 -100 9 -27 2 -79 7 -118 11 -189 16 -231 11 -281 -36 -55 -52 -48
-125 17 -188 44 -42 223 -129 369 -179 144 -50 205 -74 300 -119 140 -66 215
-96 297 -119 103 -28 99 -26 172 -106 69 -75 138 -114 214 -122 89 -8 76 37
-51 179 -42 47 -62 82 -62 110 0 23 3 25 48 25 26 0 83 -11 127 -26 44 -14
100 -27 125 -29 45 -4 158 9 168 20 3 3 -10 21 -29 41 -32 34 -96 69 -199 109
-189 73 -187 93 11 101 79 3 150 12 174 21 22 8 48 17 58 20 27 8 17 21 -46
61 -56 34 -61 36 -165 38 -230 4 -262 9 -262 37 0 7 29 41 65 75 36 35 65 69
65 77 0 7 -12 23 -26 34 -31 24 -94 27 -164 7z"/>
<path d="M22430 3518 c0 -7 5 -20 10 -28 8 -12 10 -9 10 13 0 15 -4 27 -10 27
-5 0 -10 -6 -10 -12z"/>
<path d="M22360 3480 c-12 -11 -26 -17 -30 -15 -15 9 -19 -24 -5 -35 19 -16
49 -4 41 15 -3 9 3 24 14 35 26 26 10 26 -20 0z m-15 -48 c-3 -3 -11 0 -18 7
-9 10 -8 11 6 5 10 -3 15 -9 12 -12z"/>
<path d="M22390 3465 c-8 -9 -8 -15 -2 -15 12 0 26 19 19 26 -2 2 -10 -2 -17
-11z"/>
<path d="M22625 3458 c-27 -12 -77 -39 -109 -60 -33 -21 -65 -37 -70 -35 -6 2
-11 22 -10 45 l1 41 -26 -18 c-36 -25 -69 -31 -99 -20 -23 9 -30 4 -76 -43
-28 -29 -62 -75 -76 -102 -26 -51 -75 -106 -174 -192 -44 -40 -58 -58 -58 -79
0 -39 59 -149 109 -203 42 -44 43 -45 94 -39 28 4 56 10 63 15 10 8 142 46
200 58 11 2 57 7 101 9 44 3 102 8 129 10 50 6 177 62 183 82 3 7 -15 14 -44
18 -26 3 -70 11 -96 17 -47 10 -48 11 -30 30 9 10 58 39 108 62 108 51 157 90
153 120 -4 29 -50 29 -158 0 -46 -13 -88 -20 -93 -15 -5 5 18 30 49 57 93 78
114 101 114 123 0 47 -67 35 -180 -34 -32 -19 -63 -35 -70 -35 -26 0 -2 37 55
82 62 51 101 101 90 118 -9 14 -23 12 -80 -12z"/>
<path d="M20245 3083 c-59 -13 -186 -69 -220 -96 -88 -70 -144 -102 -244 -138
-100 -37 -115 -46 -126 -73 -7 -16 -11 -39 -10 -51 2 -11 6 -38 10 -60 3 -22
13 -66 22 -98 22 -79 23 -80 228 -103 71 -7 187 -32 237 -50 103 -37 274 -52
299 -27 11 11 -6 23 -98 73 -87 48 -63 65 105 74 136 7 192 29 172 66 -10 18
-65 34 -154 45 -27 3 -56 10 -64 14 -18 10 -12 14 105 60 102 41 117 56 83 83
-21 17 -34 19 -75 14 -128 -16 -163 -18 -169 -8 -8 13 20 29 87 49 90 26 134
62 103 84 -14 11 -157 0 -238 -17 -19 -4 -28 -1 -28 7 0 10 32 67 78 137 14
22 14 22 -34 21 -27 -1 -58 -3 -69 -6z"/>
<path d="M8045 2860 c-16 -4 -84 -21 -150 -38 -66 -17 -133 -34 -150 -37 -34
-6 -215 -7 -260 -1 -16 2 -73 7 -125 11 -52 4 -108 9 -125 10 -16 2 -73 7
-125 11 -153 13 -241 10 -277 -9 -59 -31 -81 -114 -48 -178 16 -31 99 -89 163
-116 21 -8 51 -21 67 -29 17 -7 113 -45 215 -83 102 -38 235 -92 295 -121 121
-57 173 -77 284 -110 68 -20 80 -27 146 -96 82 -83 155 -124 223 -124 75 0 65
35 -46 165 -64 74 -89 122 -72 139 18 18 88 11 187 -18 51 -15 116 -28 145
-28 59 -1 138 18 138 32 0 21 -103 89 -181 120 -46 18 -90 38 -96 43 -7 5 -13
7 -13 3 0 -9 -77 31 -85 44 -11 18 46 28 181 31 98 2 214 31 214 55 0 16 -46
49 -97 71 -29 12 -72 15 -189 15 -119 -1 -156 3 -173 14 -11 8 -21 19 -21 24
0 5 29 39 65 75 36 35 65 67 65 70 0 43 -83 72 -155 55z"/>
<path d="M17425 2862 c-16 -2 -65 -12 -108 -23 -61 -15 -105 -19 -206 -17 -97
2 -132 -1 -145 -11 -46 -38 -87 -213 -65 -278 9 -27 25 -39 112 -83 115 -59
196 -114 277 -189 30 -28 78 -63 106 -77 53 -26 154 -57 154 -47 0 3 -25 38
-55 78 -30 39 -55 77 -55 83 0 20 41 14 127 -17 84 -31 179 -46 202 -32 19 12
6 43 -27 68 -15 11 -61 38 -101 59 -77 40 -77 53 -2 48 181 -12 210 -5 189 40
-11 25 -39 39 -118 60 -152 39 -145 70 13 56 60 -6 118 7 124 26 4 12 -138 68
-194 77 -40 6 -77 27 -67 36 5 5 40 30 78 56 67 47 68 49 45 61 -39 20 -203
35 -284 26z"/>
<path d="M15649 2586 c-12 -12 -154 -26 -308 -31 -208 -6 -220 -10 -251 -92
-36 -96 -50 -162 -40 -187 10 -28 39 -49 145 -105 44 -23 103 -64 130 -91 70
-67 138 -116 214 -155 71 -35 166 -67 175 -58 3 3 -13 39 -34 80 -39 72 -48
103 -32 103 4 0 36 -9 72 -21 35 -11 80 -22 100 -25 19 -3 45 -7 57 -9 12 -2
27 2 33 10 14 17 -54 76 -108 94 -21 7 -49 21 -62 31 -22 17 -23 20 -8 25 10
4 53 -1 95 -11 98 -22 139 -24 159 -9 15 10 14 14 -7 37 -13 15 -61 45 -106
69 -78 39 -100 58 -70 60 6 0 56 2 110 3 119 3 141 16 102 58 -26 29 -49 36
-183 61 -143 27 -147 49 -17 96 52 19 93 36 91 38 -21 21 -240 45 -257 29z"/>
<path d="M21934 2171 c-56 -33 -118 -97 -179 -187 -48 -71 -135 -167 -222
-245 -64 -58 -72 -74 -61 -122 22 -100 130 -247 167 -228 9 5 59 23 112 40 72
24 121 33 190 36 196 9 316 41 388 104 26 23 29 20 -59 45 -54 15 -100 40 -90
49 3 3 51 32 106 66 56 34 104 68 107 75 16 41 -61 43 -151 5 -46 -20 -92 -25
-92 -10 0 5 35 30 78 55 98 57 141 100 126 124 -12 17 -62 19 -94 2 -8 -4 -48
-17 -87 -28 -87 -24 -87 -20 4 73 86 89 88 92 73 110 -27 33 -90 10 -219 -80
-66 -46 -101 -56 -101 -30 0 8 12 40 26 72 53 119 54 117 -22 74z"/>
<path d="M19065 2143 c-87 -10 -131 -26 -203 -76 -104 -72 -190 -117 -296
-155 -49 -18 -101 -42 -117 -52 -37 -27 -53 -79 -46 -154 16 -158 37 -181 170
-185 100 -3 131 -9 213 -41 80 -32 207 -61 274 -62 60 -2 140 11 140 22 0 5
-27 32 -60 61 -33 29 -60 55 -60 60 0 11 54 26 140 39 83 12 130 28 130 42 0
18 -67 37 -149 41 -45 3 -85 8 -88 11 -15 15 24 35 80 41 85 9 131 22 158 44
20 16 21 21 10 34 -13 17 -46 23 -165 31 -116 8 -112 19 28 71 27 10 63 30 80
46 29 26 30 29 15 44 -11 11 -32 17 -60 16 -46 0 -59 -2 -124 -19 -65 -18
-133 -24 -150 -15 -13 8 -3 22 55 78 39 37 67 71 63 74 -4 4 -21 5 -38 4z"/>
<path d="M11530 1944 c-201 -58 -347 -76 -485 -60 -36 4 -217 21 -335 31 -132
12 -254 16 -283 11 -41 -8 -93 -57 -102 -97 -26 -115 97 -201 465 -326 58 -20
109 -40 115 -44 5 -5 15 -9 23 -9 7 0 66 -25 130 -56 176 -84 234 -106 326
-124 44 -9 59 -19 130 -94 60 -62 95 -89 133 -105 52 -21 127 -28 137 -13 8
14 -31 84 -71 127 -73 77 -103 120 -103 146 0 49 51 51 187 8 98 -32 145 -34
241 -14 45 10 48 21 13 53 -38 34 -109 70 -233 116 -92 35 -129 58 -111 69 11
7 70 15 148 22 188 16 245 28 245 50 0 8 -17 26 -37 39 -75 49 -98 54 -253 51
-80 -1 -153 1 -162 6 -32 17 -19 45 47 110 36 34 65 67 65 72 0 10 -19 28 -48
45 -32 18 -86 14 -182 -14z"/>
</g>
</svg>
